<?xml version="1.0" encoding="utf-8"?>
<!-- Generator: Adobe Illustrator 22.1.0, SVG Export Plug-In . SVG Version: 6.00 Build 0)  -->
<svg version="1.1" id="Layer_1" xmlns="http://www.w3.org/2000/svg" xmlns:xlink="http://www.w3.org/1999/xlink" x="0px" y="0px"
	 viewBox="0 0 40 40" style="enable-background:new 0 0 40 40;" xml:space="preserve">
<path d="M16.1,40c0-0.1-0.1-0.1-0.2-0.1c-1.4-0.5-2.1-1.4-2.1-2.9c0-1.2,0-2.4,0-3.6c0-0.3-0.1-0.4-0.4-0.4
	c-0.9,0.1-1.8-0.1-2.6-0.8c-0.9-0.7-1.3-1.7-1.3-2.8c0-4.6,0-9.2,0-13.7c0-0.7,0.2-0.9,0.9-0.9c6.4,0,12.8,0,19.2,0
	c0.7,0,0.9,0.2,0.9,0.9c0,4.6,0,9.2,0,13.7c0,2.1-1.5,3.6-3.6,3.6c-0.6,0-0.6,0-0.6,0.6c0,1.3,0.1,2.6-0.1,3.9
	c-0.1,1.3-1,2.2-2.3,2.4c0,0-0.1,0-0.1,0.1c-0.3,0-0.7,0-1,0c0-0.1-0.1-0.1-0.1-0.1c-1.3-0.4-2.1-1.6-2.1-3c0-1,0-1.9,0-2.9
	c0-0.3,0.2-0.8-0.1-1c-0.2-0.2-0.7,0-1-0.1c-0.3,0-0.4,0.1-0.4,0.4c0,1.3,0,2.5,0,3.7c0,1-0.4,1.8-1.2,2.4c-0.4,0.3-0.8,0.4-1.2,0.5
	C16.8,40,16.4,40,16.1,40z M20.2,16.1c-2.9,0-5.8,0-8.7,0c-0.3,0-0.4,0.1-0.4,0.4c0,2.5,0,5,0,7.5c0,1.8,0,3.6,0,5.4
	c0,1.3,0.8,2.1,2.1,2.1c0.3,0,0.6,0,0.9,0c1,0,1.2,0.1,1.2,1.2c0,1.4,0,2.8,0,4.3c0,0.3,0,0.5,0.1,0.8c0.3,0.6,0.9,0.9,1.5,0.8
	c0.7-0.1,1.1-0.7,1.1-1.4c0-1.6,0-3.1,0-4.7c0-0.7,0.2-0.9,0.9-0.9c0.8,0,1.6,0,2.3,0c0.7,0,1,0.2,1,1c0,1.5,0,3.1,0,4.6
	c0,0.7,0.4,1.2,1,1.4c0.9,0.3,1.8-0.4,1.9-1.4c0-1.5,0-3.1,0-4.6c0-0.7,0.2-0.9,0.9-0.9c0.4,0,0.7,0,1.1,0c1.4,0,2.2-0.8,2.2-2.2
	c0-4.3,0-8.6,0-12.9c0-0.3-0.1-0.4-0.4-0.4C26,16.1,23.1,16.1,20.2,16.1z"/>
<path d="M20.1,14c-3.2,0-6.3,0-9.4,0c-0.9,0-1.1-0.2-1-1.1c0.2-3.9,2.1-6.8,5.4-8.8c0.2-0.1,0.2-0.2,0.1-0.4c-0.5-0.8-1-1.7-1.5-2.5
	c-0.1-0.2-0.2-0.4-0.2-0.6C13.6,0.3,13.8,0.1,14,0c0.3-0.1,0.6,0.1,0.8,0.3c0.3,0.5,0.6,1,0.9,1.5c0.3,0.4,0.5,0.9,0.8,1.3
	c0.1,0.2,0.3,0.3,0.5,0.2c1.2-0.4,2.5-0.6,3.8-0.5c0.9,0.1,1.8,0.2,2.6,0.5c0.2,0.1,0.3,0,0.5-0.2c0.5-0.9,1.1-1.8,1.6-2.7
	C25.6,0.2,25.8,0,26.1,0c0.6,0,0.9,0.6,0.6,1.1c-0.4,0.7-0.9,1.4-1.3,2.1C25.3,3.5,25,3.7,25.1,4c0,0.2,0.4,0.3,0.7,0.4
	c3.1,2,4.8,4.9,5,8.7c0,0.7-0.2,1-0.9,1C26.6,14,23.3,14,20.1,14z M20.2,12.6c2.9,0,5.8,0,8.7,0c0.3,0,0.4-0.1,0.4-0.4
	c-0.1-0.5-0.2-1-0.3-1.4c-1.3-4.4-5.4-7.1-10-6.6c-4,0.5-7.4,3.9-7.9,8c0,0.3,0,0.4,0.4,0.4C14.4,12.6,17.2,12.6,20.2,12.6z"/>
<path d="M8.9,22.1c0,1.6,0,3.2,0,4.8c0,1.6-1.2,2.7-2.7,2.5C5,29.4,4,28.3,4,26.9c0-3.2,0-6.4,0-9.6c0-2,2-3.2,3.7-2.2
	c0.7,0.4,1.2,1.1,1.2,1.9C8.9,18.7,8.9,20.5,8.9,22.1C8.9,22.1,8.9,22.1,8.9,22.1z M7.5,22.1c0-1.6,0-3.3,0-4.9
	c0-0.7-0.4-1.1-1.1-1.1c-0.6,0-1,0.5-1,1.3c0,3.1,0,6.3,0,9.4c0,0.1,0,0.3,0,0.4c0.1,0.5,0.5,0.8,1,0.8c0.6,0,1.1-0.4,1.1-1.1
	C7.5,25.3,7.5,23.7,7.5,22.1z"/>
<path d="M31.4,22.1c0-1.6,0-3.2,0-4.8c0-1.6,1.2-2.6,2.7-2.5c1.2,0.1,2.2,1.2,2.2,2.5c0,3.2,0,6.4,0,9.6c0,2-2,3.2-3.7,2.2
	c-0.7-0.4-1.1-1.1-1.2-1.9c0-0.1,0-0.1,0-0.2C31.4,25.4,31.4,23.7,31.4,22.1z M34.9,22.1c0-1.5,0-3.1,0-4.6c0-0.2,0-0.4-0.1-0.5
	c-0.1-0.5-0.5-0.8-0.9-0.8c-0.7,0-1.1,0.4-1.1,1.2c0,2.9,0,5.8,0,8.7c0,0.4,0,0.8,0,1.1c0,0.5,0.5,0.9,1,1c0.7,0,1.1-0.5,1.1-1.2
	C34.9,25.3,34.9,23.7,34.9,22.1z"/>
<path d="M16.6,8.9c0,0.1,0,0.3,0,0.4c0,0.3-0.2,0.5-0.5,0.5c-0.1,0-0.1,0-0.2,0c-1.3,0-1.2,0-1.2-1.4c0-0.1,0-0.1,0-0.2
	C15.2,7.7,15.7,8,16.2,8c0.3,0,0.5,0.2,0.5,0.5C16.6,8.7,16.6,8.8,16.6,8.9z"/>
<path d="M23.7,8.9c0-0.2,0-0.3,0-0.5c0-0.3,0.2-0.4,0.4-0.5c0.1,0,0.2,0,0.2,0c1.3,0,1.2,0,1.2,1.4c0,0,0,0.1,0,0.1
	c-0.1,0.4-0.5,0.4-1.4,0.3c-0.3,0-0.5-0.2-0.5-0.6C23.7,9.1,23.7,9,23.7,8.9z"/>
</svg>
