<?xml version="1.0" encoding="utf-8"?>
<!-- Generator: Adobe Illustrator 22.1.0, SVG Export Plug-In . SVG Version: 6.00 Build 0)  -->
<svg version="1.1" id="Layer_1" xmlns="http://www.w3.org/2000/svg" xmlns:xlink="http://www.w3.org/1999/xlink" x="0px" y="0px"
	 viewBox="0 0 40 40" style="enable-background:new 0 0 40 40;" xml:space="preserve">
<path d="M16.4,9.6c0.5-0.7,1.3-1.2,2.1-1.3c0.2,0,0.2-0.1,0.3-0.3c0.1-0.6,0.6-1,1.1-1c0.7,0,1.2,0.3,1.3,1c0,0.2,0.1,0.2,0.3,0.2
	c0.5,0,1,0,1.6,0c0.7,0,1.3,0.5,1.2,1.2c0,0.7-0.5,1.2-1.2,1.2c-1.2,0-2.4,0-3.7,0c-0.9,0-1.5,0.8-1.2,1.6c0.2,0.5,0.7,0.7,1.2,0.8
	c0.7,0,1.5-0.1,2.2,0.2c1.3,0.4,2.2,1.2,2.6,2.6c0.3,1.4-0.1,2.5-1.1,3.5c-0.5,0.5-1,0.7-1.6,0.9c-0.2,0-0.2,0.1-0.3,0.3
	c-0.1,0.7-0.5,1-1.2,1c-0.6,0-1.1-0.4-1.2-1c0-0.2-0.1-0.2-0.3-0.2c-0.5,0-1.1,0-1.6,0c-0.7,0-1.2-0.5-1.2-1.2s0.5-1.2,1.2-1.2
	c0.6,0,1.2,0,1.9,0l0,0c0.6,0,1.2,0,1.8,0c0.7,0,1.3-0.5,1.3-1.2s-0.5-1.2-1.3-1.2s-1.7,0.1-2.5-0.2C15.6,14.2,15,11.4,16.4,9.6z"/>
<path d="M28.8,30.9c-0.7,0-1.3,0.5-1.3,1.2c0,0.7,0.5,1.2,1.3,1.2c0.7,0,1.2-0.5,1.2-1.2C30,31.5,29.4,30.9,28.8,30.9z M33.7,30.9
	c-0.7,0-1.2,0.5-1.2,1.2c0,0.7,0.5,1.2,1.2,1.2s1.3-0.5,1.3-1.2C35,31.5,34.5,30.9,33.7,30.9z M33.7,30.9c-0.7,0-1.2,0.5-1.2,1.2
	c0,0.7,0.5,1.2,1.2,1.2s1.3-0.5,1.3-1.2C35,31.5,34.5,30.9,33.7,30.9z M28.8,30.9c-0.7,0-1.3,0.5-1.3,1.2c0,0.7,0.5,1.2,1.3,1.2
	c0.7,0,1.2-0.5,1.2-1.2C30,31.5,29.4,30.9,28.8,30.9z M40,16.4c0-0.4,0-0.9-0.2-1.3c-0.7-1.5-1.9-2.2-3.4-2.2c-1.1-0.1-2.2,0-3.3,0
	c-0.5,0-0.5,0-0.6-0.5c-0.2-1-0.4-1.9-0.8-2.8c-0.7-1.8-1.9-3.3-3.4-4.5c-0.9-0.8-1.9-1.4-3-1.9c-2.1-0.9-4.2-1.2-6.4-1
	c-2.7,0.1-4.9,1-6.9,2.5C10.4,6,9.2,7.6,8.3,9.5c-0.4,0.9-0.7,1.9-0.8,2.8c-0.1,0.5-0.1,0.5-0.6,0.5c-1.1,0-2.2,0-3.3,0
	c-1.5,0-2.7,0.8-3.4,2.2C0,15.3,0,15.6,0,15.9v19.2c0.1,0.3,0.1,0.7,0.2,0.9c0.8,1.4,1.9,2.2,3.6,2.2h32.5c0.3,0,0.6,0,0.9-0.1
	c1.7-0.5,2.9-1.8,2.9-3.6C40,28.4,40,22.4,40,16.4z M37.5,34.3c0,1-0.4,1.5-1.4,1.5H20c-5.3,0-10.7,0-16,0c-0.9,0-1.5-0.5-1.5-1.5
	c0-5.8,0-11.6,0-17.4c0-0.9,0.6-1.5,1.5-1.5c1.1,0,2.2,0,3.3,0c0.3,0,0.4,0.1,0.4,0.4c0.1,0.7,0.2,1.3,0.4,2C8.1,17.9,8,18,7.8,18
	c-2.6,1.2-2.7,4.2-1.2,5.7c0.7,0.7,1.5,1.1,2.5,1.1c0.3,0,0.6,0,0.9,0h20.5c1.8,0,3.2-1,3.7-2.7c0.4-1.5-0.2-3.1-1.5-3.9l-0.1-0.1
	c-0.2-0.1-0.6-0.2-0.7-0.4c-0.1-0.2,0.1-0.5,0.2-0.7c0.2-0.5,0.2-1,0.3-1.6c0-0.2,0.1-0.2,0.3-0.2c1.2,0,2.5,0,3.7,0
	c0.6,0,1.1,0.5,1.2,1.2v17.9H37.5z M24.1,5.4c1.7,0.8,3.2,1.9,4.2,3.5c2.2,3.3,2.2,6.7,0.3,10.1c-0.8,1.5-2.1,2.6-3.6,3.4
	c-0.2,0.1-0.3,0.1-0.5,0.1H20c-1.4,0-2.8,0-4.2,0c-0.5,0-0.9-0.1-1.2-0.4c-1.5-1-2.7-2.3-3.6-4c-1.2-2.5-1.3-5-0.3-7.6
	c0.4-1.1,1.1-2.1,1.9-3c1.1-1.1,2.4-2,3.9-2.5C19,4.2,21.6,4.3,24.1,5.4z M31,20.2c0.5,0.2,0.9,0.7,0.8,1.3c-0.1,0.6-0.5,1-1.1,1
	s-1.1,0-1.8,0c0.7-0.7,1.3-1.5,1.8-2.3C30.8,20.1,30.9,20.1,31,20.2z M9.3,20.3c0.4,0.6,0.8,1.2,1.3,1.7c0.1,0.2,0.3,0.3,0.5,0.5
	c-0.8-0.1-1.5,0.1-2.2-0.1c-0.5-0.1-0.8-0.7-0.8-1.2s0.5-1,1-1.1C9.3,20.1,9.3,20.2,9.3,20.3z M33.7,30.9c-0.7,0-1.2,0.5-1.2,1.2
	c0,0.7,0.5,1.2,1.2,1.2s1.3-0.5,1.3-1.2C35,31.5,34.5,30.9,33.7,30.9z M28.8,30.9c-0.7,0-1.3,0.5-1.3,1.2c0,0.7,0.5,1.2,1.3,1.2
	c0.7,0,1.2-0.5,1.2-1.2C30,31.5,29.4,30.9,28.8,30.9z M28.8,30.9c-0.7,0-1.3,0.5-1.3,1.2c0,0.7,0.5,1.2,1.3,1.2
	c0.7,0,1.2-0.5,1.2-1.2C30,31.5,29.4,30.9,28.8,30.9z M33.7,30.9c-0.7,0-1.2,0.5-1.2,1.2c0,0.7,0.5,1.2,1.2,1.2s1.3-0.5,1.3-1.2
	C35,31.5,34.5,30.9,33.7,30.9z M33.7,30.9c-0.7,0-1.2,0.5-1.2,1.2c0,0.7,0.5,1.2,1.2,1.2s1.3-0.5,1.3-1.2
	C35,31.5,34.5,30.9,33.7,30.9z M28.8,30.9c-0.7,0-1.3,0.5-1.3,1.2c0,0.7,0.5,1.2,1.3,1.2c0.7,0,1.2-0.5,1.2-1.2
	C30,31.5,29.4,30.9,28.8,30.9z"/>
<path d="M40,34.5c0,1.8-1.2,3.2-2.9,3.6c-0.3,0.1-0.6,0.1-0.9,0.1H3.8c-1.6,0-2.8-0.8-3.6-2.2C0,35.7,0,35.4,0,35.1
	c0.1,0.2,0.1,0.4,0.2,0.5C0.6,36.9,2.1,38,3.6,38c0.1,0,0.3,0,0.4,0h32.1c1.5,0,2.6-0.5,3.4-1.8c0.4-0.6,0.5-1.3,0.5-2
	c0-5.9,0-11.7,0-17.6c0-0.4,0-0.7-0.1-1.1C39.4,14,38,13,36.4,12.9c-1.2,0-2.5,0-3.7,0c-0.2,0-0.3,0-0.3-0.3
	c-0.2-1.7-0.8-3.4-1.7-4.8c-1-1.6-2.4-2.9-4-3.9c-2.2-1.3-4.5-1.9-7-1.8c-1.6,0-3.1,0.4-4.6,1s-2.8,1.5-4,2.7
	C10.2,6.6,9.6,7.5,9,8.4c-0.8,1.3-1.2,2.8-1.4,4.3c0,0.2-0.1,0.3-0.3,0.3c-1.1,0-2.2,0-3.3,0c-1.7-0.1-3.7,1.1-4,3l0,0
	c0.1-0.3,0.1-0.6,0.2-0.9c0.7-1.4,1.9-2.1,3.4-2.2c1.1,0,2.2,0,3.3,0c0.5,0,0.5,0,0.6-0.5c0.2-1,0.4-1.9,0.8-2.8
	c0.9-1.9,2-3.5,3.7-4.7c2-1.5,4.2-2.4,6.7-2.7c2.2-0.2,4.4,0.1,6.4,1c1.1,0.5,2.1,1.1,3,1.9c1.5,1.2,2.6,2.7,3.4,4.5
	c0.4,0.9,0.7,1.9,0.8,2.8c0.1,0.5,0.1,0.5,0.6,0.5c1.1,0,2.2,0,3.3,0c1.6,0.1,2.8,0.8,3.4,2.2c0.2,0.4,0.2,0.9,0.2,1.3
	C40,22.4,40,28.4,40,34.5z"/>
<path d="M30,32.1c0,0.7-0.5,1.2-1.2,1.2s-1.3-0.5-1.3-1.2c0-0.7,0.5-1.2,1.3-1.2C29.4,30.9,30,31.5,30,32.1z"/>
<path d="M35,32.1c0,0.7-0.6,1.2-1.3,1.2s-1.2-0.6-1.2-1.2c0-0.7,0.6-1.2,1.2-1.2C34.5,30.9,35,31.5,35,32.1z"/>
<path d="M24.2,15.7c0.3,1.4-0.1,2.5-1.1,3.5c-0.5,0.5-1,0.7-1.6,0.9c-0.2,0-0.2,0.1-0.3,0.3c-0.1,0.7-0.5,1-1.2,1
	c-0.6,0-1.1-0.4-1.2-1c0-0.2-0.1-0.2-0.3-0.2c-0.5,0-1.1,0-1.6,0c-0.7,0-1.2-0.5-1.2-1.2s0.5-1.2,1.2-1.2c0.6,0,1.2,0,1.9,0l0,0
	c0.6,0,1.2,0,1.8,0c0.7,0,1.3-0.5,1.3-1.2s-0.5-1.2-1.3-1.2s-1.7,0.1-2.5-0.2c-2.5-0.9-3.1-3.7-1.7-5.5c0.5-0.7,1.3-1.2,2.1-1.3
	c0.2,0,0.2-0.1,0.3-0.3c0.1-0.6,0.6-1,1.1-1c0.7,0,1.2,0.3,1.3,1c0,0.2,0.1,0.2,0.3,0.2c0.5,0,1,0,1.6,0c0.7,0,1.3,0.5,1.2,1.2
	c0,0.7-0.5,1.2-1.2,1.2c-1.2,0-2.4,0-3.7,0c-0.9,0-1.5,0.8-1.2,1.6c0.2,0.5,0.7,0.7,1.2,0.8c0.7,0,1.5-0.1,2.2,0.2
	C23,13.5,23.9,14.3,24.2,15.7z"/>
<path d="M30,32.1c0,0.7-0.5,1.2-1.2,1.2s-1.3-0.5-1.3-1.2c0-0.7,0.5-1.2,1.3-1.2C29.4,30.9,30,31.5,30,32.1z"/>
<path d="M35,32.1c0,0.7-0.6,1.2-1.3,1.2s-1.2-0.6-1.2-1.2c0-0.7,0.6-1.2,1.2-1.2C34.5,30.9,35,31.5,35,32.1z"/>
<path d="M24.2,15.7c0.3,1.4-0.1,2.5-1.1,3.5c-0.5,0.5-1,0.7-1.6,0.9c-0.2,0-0.2,0.1-0.3,0.3c-0.1,0.7-0.5,1-1.2,1
	c-0.6,0-1.1-0.4-1.2-1c0-0.2-0.1-0.2-0.3-0.2c-0.5,0-1.1,0-1.6,0c-0.7,0-1.2-0.5-1.2-1.2s0.5-1.2,1.2-1.2c0.6,0,1.2,0,1.9,0l0,0
	c0.6,0,1.2,0,1.8,0c0.7,0,1.3-0.5,1.3-1.2s-0.5-1.2-1.3-1.2s-1.7,0.1-2.5-0.2c-2.5-0.9-3.1-3.7-1.7-5.5c0.5-0.7,1.3-1.2,2.1-1.3
	c0.2,0,0.2-0.1,0.3-0.3c0.1-0.6,0.6-1,1.1-1c0.7,0,1.2,0.3,1.3,1c0,0.2,0.1,0.2,0.3,0.2c0.5,0,1,0,1.6,0c0.7,0,1.3,0.5,1.2,1.2
	c0,0.7-0.5,1.2-1.2,1.2c-1.2,0-2.4,0-3.7,0c-0.9,0-1.5,0.8-1.2,1.6c0.2,0.5,0.7,0.7,1.2,0.8c0.7,0,1.5-0.1,2.2,0.2
	C23,13.5,23.9,14.3,24.2,15.7z"/>
</svg>
