<?xml version="1.0" encoding="utf-8"?>
<!-- Generator: Adobe Illustrator 22.1.0, SVG Export Plug-In . SVG Version: 6.00 Build 0)  -->
<svg version="1.1" id="Layer_1" xmlns="http://www.w3.org/2000/svg" xmlns:xlink="http://www.w3.org/1999/xlink" x="0px" y="0px"
	 viewBox="0 0 40 40" style="enable-background:new 0 0 40 40;" xml:space="preserve">
<style type="text/css">
	.st0{clip-path:url(#SVGID_2_);}
</style>
<g>
	<defs>
		<rect id="SVGID_1_" y="0" width="40" height="40"/>
	</defs>
	<clipPath id="SVGID_2_">
		<use xlink:href="#SVGID_1_"  style="overflow:visible;"/>
	</clipPath>
	<g class="st0">
		<path d="M19.9,26.1c-1.4,0-2.5-1.1-2.5-2.5c0-2.6,1.4-4.9,3.8-6.1c1-0.5,1.7-1.6,1.6-2.7c-0.1-1.4-1.4-2.7-2.8-2.8
			c-0.8,0-1.6,0.2-2.2,0.8c-0.3,0.3-0.6,0.7-0.7,1.2c-0.3,1-1.3,1.7-2.3,1.7v0c0,0,0,0,0,0c-0.8,0-1.5-0.4-2-1
			c-0.5-0.6-0.6-1.4-0.4-2.2c0.4-1.2,1.1-2.3,2-3.2c1.6-1.5,3.6-2.3,5.8-2.2c1.9,0.1,3.7,0.9,5.1,2.3s2.2,3.2,2.3,5.1
			c0.1,3.1-1.5,6-4.3,7.4c-0.7,0.3-1.1,1-1.1,1.7C22.3,25,21.2,26.1,19.9,26.1L19.9,26.1z M19.9,10.5c0.1,0,0.1,0,0.2,0
			c2.2,0.1,4.2,2.1,4.3,4.3c0.1,1.8-0.9,3.4-2.5,4.2c-1.8,0.9-2.9,2.7-2.9,4.7c0,0.5,0.4,0.9,0.9,0.9c0.5,0,0.9-0.4,0.9-0.9
			c0-1.3,0.7-2.5,1.9-3.1c2.2-1.1,3.6-3.4,3.4-5.9c-0.1-1.5-0.7-3-1.9-4.1c-1.1-1.1-2.6-1.8-4.1-1.9c-1.7-0.1-3.4,0.5-4.6,1.7
			c-0.8,0.7-1.3,1.6-1.6,2.6c-0.1,0.3,0,0.6,0.1,0.8c0.2,0.2,0.4,0.4,0.7,0.4c0,0,0,0,0,0c0.4,0,0.7-0.3,0.9-0.6
			c0.2-0.7,0.6-1.3,1.1-1.8C17.6,11,18.7,10.5,19.9,10.5L19.9,10.5z"/>
		<path d="M19.9,32.8c-1.4,0-2.5-1.1-2.5-2.5c0-1.4,1.1-2.5,2.5-2.5c1.4,0,2.5,1.1,2.5,2.5C22.3,31.7,21.2,32.8,19.9,32.8L19.9,32.8
			z M19.9,29.5c-0.5,0-0.9,0.4-0.9,0.9c0,0.5,0.4,0.9,0.9,0.9c0.5,0,0.9-0.4,0.9-0.9C20.8,29.9,20.4,29.5,19.9,29.5L19.9,29.5z"/>
		<path d="M33.6,7.2c-0.2,0-0.4-0.1-0.6-0.2c-0.1-0.1-0.2-0.3-0.2-0.6S32.9,6,33,5.9c0.1-0.1,0.3-0.2,0.6-0.2c0.2,0,0.4,0.1,0.6,0.2
			c0.1,0.1,0.2,0.3,0.2,0.6c0,0.2-0.1,0.4-0.2,0.6C34,7.1,33.8,7.2,33.6,7.2z"/>
		<path d="M20,40c-4.1,0-8.2-1.3-11.6-3.7l-5.2,1.4c-0.3,0.1-0.6,0-0.8-0.2c-0.2-0.2-0.3-0.5-0.2-0.8l1.4-5.2c-2.7-3.8-4-8.3-3.6-13
			c0.3-4.8,2.4-9.3,5.8-12.7C12.7-1,23.4-1.9,31.3,3.5c0.4,0.2,0.4,0.7,0.2,1.1c-0.2,0.4-0.7,0.4-1.1,0.2C23.1-0.2,13.3,0.7,7,7
			c-6.4,6.4-7.2,16.7-1.8,24c0.1,0.2,0.2,0.4,0.1,0.7l-1.1,4.2l4.2-1.1c0.2-0.1,0.5,0,0.7,0.1c7.3,5.4,17.6,4.6,24-1.8
			c6.3-6.3,7.2-16.2,2.2-23.5c-0.2-0.4-0.2-0.8,0.2-1.1c0.4-0.2,0.8-0.2,1.1,0.2c5.5,7.9,4.5,18.6-2.3,25.5
			c-3.4,3.4-7.9,5.5-12.7,5.8C20.9,40,20.5,40,20,40L20,40z"/>
	</g>
</g>
</svg>
