<?xml version="1.0" encoding="utf-8"?>
<!-- Generator: Adobe Illustrator 22.1.0, SVG Export Plug-In . SVG Version: 6.00 Build 0)  -->
<svg version="1.1" id="Layer_1" xmlns="http://www.w3.org/2000/svg" xmlns:xlink="http://www.w3.org/1999/xlink" x="0px" y="0px"
	 viewBox="0 0 40 40" style="enable-background:new 0 0 40 40;" xml:space="preserve">
<style type="text/css">
	.st0{clip-path:url(#SVGID_2_);}
</style>
<g>
	<defs>
		<rect id="SVGID_1_" y="0" width="40" height="40"/>
	</defs>
	<clipPath id="SVGID_2_">
		<use xlink:href="#SVGID_1_"  style="overflow:visible;"/>
	</clipPath>
	<g class="st0">
		<path d="M38.5,16.8C33.3,11.7,28.1,6.6,23.1,1.3c-1.7-1.8-4.4-1.8-6.1,0c-2.7,2.9-5.5,5.6-8.3,8.4c-2.5,2.5-5,5-7.5,7.5
			C0.5,17.9,0,18.7,0,19.8c-0.1,2.2,1.6,3.8,3.8,3.8c0.3,0,0.5,0.1,0.5,0.5c0,3.8,0,7.6,0,11.5c0,2.6,1.9,4.5,4.5,4.5c2,0,4,0,6,0
			c1,0,1.4-0.4,1.4-1.4v-9c0-1.3,0.8-2.1,2.1-2.1c1.1,0,2.2,0,3.4,0c1.4,0,2.2,1,2.2,2.2c0,3,0,6.1,0,9.1c0,0.8,0.5,1.3,1.3,1.3h6.2
			c0.3,0,0.7,0,1-0.1c2-0.5,3.3-2.2,3.4-4.3c0-3.8,0-7.7,0-11.5c0-0.4,0.1-0.5,0.5-0.5c1.3,0,2.3-0.5,3.1-1.5
			c0.3-0.4,0.5-0.9,0.7-1.3v-1.7C39.7,18.1,39.1,17.5,38.5,16.8z M37.7,20.3c-0.2,0.6-0.6,0.9-1.2,0.9c-0.6,0-1.1,0-1.7,0
			c-0.8,0-1.3,0.5-1.3,1.3c0,4.3,0,8.5,0,12.8c0,1.4-1,2.3-2.2,2.2c-1.5-0.1-3.1,0-4.6,0c-0.3,0-0.4-0.1-0.4-0.4c0-2.6,0-5.2,0-7.8
			c0-2.2-1.4-3.8-3.4-4.3c-0.1,0-0.2,0-0.3,0c-1.6-0.1-3.3-0.1-4.9,0c-2,0.2-3.7,2-3.7,4c0,2.7,0,5.4,0,8.1c0,0.4-0.1,0.4-0.4,0.4
			c-1.6,0-3.1,0-4.7,0c-1.3,0-2.1-0.8-2.1-2.1V22.7c0-0.9-0.5-1.4-1.4-1.4c-0.5,0-1,0-1.6,0c-0.6,0-1-0.3-1.2-0.8
			c-0.2-0.5-0.1-1,0.3-1.4c0.1-0.2,0.3-0.3,0.4-0.4C8.4,13.3,13.6,8.1,18.9,2.8c0.8-0.8,1.5-0.8,2.3,0l16,16
			C37.6,19.2,37.9,19.7,37.7,20.3z"/>
	</g>
</g>
</svg>
