<?xml version="1.0" encoding="utf-8"?>
<!-- Generator: Adobe Illustrator 22.1.0, SVG Export Plug-In . SVG Version: 6.00 Build 0)  -->
<svg version="1.1" id="Layer_1" xmlns="http://www.w3.org/2000/svg" xmlns:xlink="http://www.w3.org/1999/xlink" x="0px" y="0px"
	 viewBox="0 0 40 40" style="enable-background:new 0 0 40 40;" xml:space="preserve">
<path d="M39.8,5.3C39.5,5,39.1,5,38.7,5.1c-11.5,3.3-23,6.7-34.5,10c-1,0.3-2,0.5-2.9,1.2c-1.8,1.4-1.5,3.7,0.6,4.6
	C4.3,22,6.7,23,9.2,24.1c0.3,0.1,0.5,0.3,0.6,0.7c0.5,1.6,1.1,3.3,1.6,4.9c0.1,0.2,0.1,0.4,0.3,0.6c0.3,0.3,0.8,0.4,1.2,0.2
	c0.4-0.2,0.6-0.6,0.4-1.1c-0.5-1.6-1-3.2-1.6-4.8c-0.1-0.3-0.1-0.5,0.3-0.7c4.8-2.9,9.6-5.8,14.4-8.8c2.7-1.6,5.3-3.3,8-4.9
	c0,0,0,0,0.1,0v0.1c-0.4,0.3-0.7,0.6-1.1,0.9c-5.8,4.7-11.6,9.4-17.4,14.2c-0.2,0.2-0.4,0.4-0.5,0.7c-0.5,1.9-1,3.7-1.5,5.6
	c-0.3,1-0.5,2-0.8,2.9c-0.1,0.5,0,0.9,0.4,1.2c0.4,0.2,0.8,0.2,1.2-0.2l0.3-0.2c2.2-1.9,4.4-3.8,6.6-5.6c0.2-0.2,0.3-0.2,0.5-0.1
	c0.4,0.2,0.9,0.4,1.3,0.6c1.2,0.5,2.4,1.1,3.6,1.4c2.1,0.5,3.5-0.2,4.3-2.2c0.2-0.4,0.3-0.8,0.5-1.2c2.7-7.2,5.4-14.4,8.1-21.6
	C40.1,6,40.1,5.6,39.8,5.3z M29.4,10.7c-6.3,3.8-12.6,7.7-18.9,11.5c-0.2,0.2-0.4,0.2-0.7,0.1c-2.4-1.1-4.8-2.1-7.2-3.1
	c-0.3-0.2-0.7-0.3-0.8-0.7c0-0.4,0.3-0.6,0.6-0.8c0.6-0.5,1.4-0.6,2.2-0.8c9-2.6,18-5.2,27.1-7.8C31.9,9.1,32,9,32.2,9l0,0
	C31.3,9.6,30.4,10.1,29.4,10.7z M15.7,32.1C16,31,16.3,30,16.5,29c0.1-0.5,0.3-0.9,0.4-1.4c0-0.2,0.1-0.2,0.3-0.2
	c0.9,0.4,1.7,0.7,2.6,1.1C18.4,29.7,17.1,30.9,15.7,32.1z M34.8,14.5c-1.6,4.2-3.2,8.5-4.8,12.7c-0.2,0.6-0.5,1.2-0.8,1.8
	c-0.2,0.5-0.6,0.7-1.1,0.6c-0.5,0-0.9-0.1-1.3-0.2c-2.9-1.2-5.7-2.4-8.6-3.6c0,0-0.1,0-0.1-0.1c6-4.9,11.9-9.7,18-14.7
	C35.6,12.3,35.2,13.4,34.8,14.5z"/>
<path d="M34.2,10c0.1-0.1,0.2-0.2,0.3-0.1C34.5,10,34.4,10.1,34.2,10C34.2,10.1,34.2,10.1,34.2,10z"/>
</svg>
