<?xml version="1.0" encoding="utf-8"?>
<!-- Generator: Adobe Illustrator 22.1.0, SVG Export Plug-In . SVG Version: 6.00 Build 0)  -->
<svg version="1.1" id="Layer_1" xmlns="http://www.w3.org/2000/svg" xmlns:xlink="http://www.w3.org/1999/xlink" x="0px" y="0px"
	 viewBox="0 0 40 40" style="enable-background:new 0 0 40 40;" xml:space="preserve">
<style type="text/css">
	.st0{clip-path:url(#SVGID_2_);}
	.st1{fill:#FEFEFE;}
	.st2{fill:#010101;}
</style>
<g>
	<defs>
		<rect id="SVGID_1_" y="0" width="40" height="40"/>
	</defs>
	<clipPath id="SVGID_2_">
		<use xlink:href="#SVGID_1_"  style="overflow:visible;"/>
	</clipPath>
	<g class="st0">
		<path d="M19.2,10.9c0-0.4,0.3-0.8,0.8-0.8c0.4,0,0.8,0.4,0.8,0.8c0,0.4-0.3,0.8-0.8,0.8C19.5,11.6,19.2,11.3,19.2,10.9z"/>
		<path d="M16.7,16.7c0.2-1.2,1.3-2.3,2.5-2.6c0.3-0.1,0.5-0.1,0.7-0.1c1.5,0,2.7,0.8,3.2,2c0.5,1.3,0.3,2.6-0.7,3.6
			c-0.2,0.2-0.2,0.3,0,0.5c1.1,1.1,1.3,2.7,0.5,4.1c-0.8,1.3-2.3,1.9-3.8,1.5c-1.4-0.4-2.5-1.7-2.5-3.1c0-0.5,0.3-0.9,0.7-0.9
			c0.5,0,0.8,0.3,0.8,0.8c0.1,1.1,0.8,1.8,1.9,1.7c0.9,0,1.7-0.8,1.7-1.7c0-1-0.7-1.8-1.7-1.9c-0.5,0-0.8-0.3-0.8-0.8
			s0.3-0.7,0.8-0.8c1-0.1,1.7-0.8,1.7-1.7c0-0.9-0.6-1.7-1.5-1.9c-0.9-0.2-1.8,0.4-2.1,1.3c-0.1,0.3-0.2,0.6-0.6,0.7
			C17.1,17.8,16.6,17.3,16.7,16.7z"/>
		<path d="M27.5,13.5c1.6,1.9,2.3,4,2.4,6.4c0,4.9-3.4,8.9-8.2,9.8c-5.4,1-10.7-2.8-11.5-8.3C9.6,17,11.8,12.8,15.9,11
			c0.1,0,0.2-0.1,0.3-0.1c0.5-0.2,0.9,0,1,0.4c0.2,0.4,0,0.8-0.4,1c-0.7,0.3-1.4,0.7-2,1.2c-2.6,2-3.8,5.4-2.9,8.6
			c1,3.4,3.2,5.5,6.7,6.1c4.7,0.8,8.9-2.4,9.6-7.1c0.5-3.6-1.5-7.1-4.8-8.6c-0.1-0.1-0.2-0.1-0.3-0.2c-0.4-0.2-0.6-0.6-0.4-1
			c0.2-0.4,0.6-0.6,1-0.4C25.2,11.4,26.4,12.3,27.5,13.5z"/>
		<path d="M39.9,17.9c-0.2-2.4-0.9-4.7-2-6.8c-1.2-2.5-3-4.6-5.1-6.4c-2.7-2.3-5.9-3.7-9.4-4.4c-0.7-0.1-1.4-0.1-2.1-0.2h-3
			c-0.4,0.1-0.8,0-1.2,0.1c-2.3,0.3-4.4,1-6.4,2C8.4,3.3,6.4,5,4.6,7C2.4,9.7,1,12.7,0.3,16c-0.2,0.8-0.2,1.5-0.3,2.3v3.3
			c0.1,0.4,0,0.7,0.1,1.1c0.3,2.3,1,4.5,2.1,6.6c1,2,2.4,3.7,4,5.3c1.8,1.7,3.7,2.9,6,3.9c3.2,1.4,6.5,1.7,9.9,1.4
			c2.3-0.2,4.6-0.9,6.7-1.9c2.2-1.1,4.2-2.5,5.8-4.3c1.7-1.8,2.9-3.8,3.9-6C39.9,24.6,40.2,21.3,39.9,17.9z M12.9,36.9
			c3.2-5.3,11-5.3,14.1,0C23.2,38.7,17.5,39,12.9,36.9z M28.8,36.2c-0.2,0.1-0.3,0.1-0.4-0.1c-2.2-3.3-5.3-4.9-9.3-4.6
			c-3.2,0.3-5.6,1.8-7.3,4.5c-0.2,0.3-0.3,0.3-0.6,0.2c-3.1-1.8-5.5-4.2-7.3-7.3c-0.2-0.3-0.1-0.4,0.2-0.5c3.3-2.2,4.9-5.4,4.5-9.3
			c-0.3-3.2-1.9-5.6-4.5-7.3c-0.3-0.2-0.3-0.3-0.1-0.6C5.6,8,8,5.5,11.2,3.8c0.2-0.1,0.3-0.1,0.4,0.1c2.2,3.3,5.3,4.9,9.3,4.6
			C24,8.2,26.5,6.7,28.2,4c0.2-0.3,0.3-0.3,0.6-0.2c3.1,1.8,5.5,4.2,7.3,7.3c0,0.1,0.1,0.1,0.1,0.2c0,0.1-0.2,0.2-0.2,0.2
			c-2.3,1.5-3.8,3.6-4.4,6.3c-0.9,3.9,0.9,8.2,4.3,10.4c0.3,0.2,0.3,0.3,0.2,0.6C34.3,32,31.9,34.4,28.8,36.2z M3,12.9
			c5.3,3.1,5.3,11,0,14.2C1.1,22.3,1.1,17.6,3,12.9z M37,27.1c-5.3-3.2-5.3-11.1,0-14.2C38.8,17.6,38.8,22.3,37,27.1z M27.1,3
			c-1.7,2.6-4.1,4-7.2,4c-3.1,0-5.4-1.4-7.1-4C17.6,1.1,22.3,1.1,27.1,3z"/>
		<path class="st1" d="M38.5,27.7c-1,2.2-2.2,4.2-3.9,6C32.9,35.5,31,37,28.7,38c-2.1,1-4.3,1.7-6.7,1.9c-3.4,0.3-6.7-0.1-9.9-1.4
			c-2.2-1-4.2-2.2-6-3.9c-1.6-1.5-3-3.3-4-5.3c-1.1-2.1-1.8-4.3-2.1-6.6c0-0.4,0-0.7-0.1-1.1c0.2,0.4,0.2,0.9,0.2,1.3
			c1.2,8.2,7.6,15,15.8,16.6c10.3,2,20.3-4.1,23.1-14.2c3.1-11-3.8-22.6-14.9-24.9c-0.9-0.2-1.8-0.3-2.7-0.4c-0.1,0-0.1,0-0.2-0.1
			c0.7,0.1,1.4,0.1,2.1,0.2c3.5,0.6,6.7,2.1,9.4,4.4c2.1,1.8,3.9,3.9,5.1,6.4c1.1,2.2,1.8,4.4,2,6.8C40.2,21.3,39.9,24.6,38.5,27.7z
			"/>
		<path class="st1" d="M18.4,0C18,0.2,17.5,0.2,17,0.2C8.8,1.4,1.9,7.9,0.4,16.1c-0.1,0.7-0.2,1.4-0.3,2c0,0.1,0,0.2-0.1,0.2
			c0.1-0.8,0.1-1.5,0.3-2.3C1,12.7,2.4,9.7,4.6,7c1.7-2,3.8-3.7,6.2-4.9c2-1,4.1-1.7,6.4-2C17.6,0,18,0.1,18.4,0z"/>
		<path class="st1" d="M19.2,10.9c0-0.4,0.3-0.8,0.8-0.8c0.4,0,0.8,0.4,0.8,0.8c0,0.4-0.3,0.8-0.8,0.8
			C19.5,11.6,19.2,11.3,19.2,10.9z"/>
		<path class="st1" d="M16.7,16.7c0.2-1.2,1.3-2.3,2.5-2.6c0.3-0.1,0.5-0.1,0.7-0.1c1.5,0,2.7,0.8,3.2,2c0.5,1.3,0.3,2.6-0.7,3.6
			c-0.2,0.2-0.2,0.3,0,0.5c1.1,1.1,1.3,2.7,0.5,4.1c-0.8,1.3-2.3,1.9-3.8,1.5c-1.4-0.4-2.5-1.7-2.5-3.1c0-0.5,0.3-0.9,0.7-0.9
			c0.5,0,0.8,0.3,0.8,0.8c0.1,1.1,0.8,1.8,1.9,1.7c0.9,0,1.7-0.8,1.7-1.7c0-1-0.7-1.8-1.7-1.9c-0.5,0-0.8-0.3-0.8-0.8
			s0.3-0.7,0.8-0.8c1-0.1,1.7-0.8,1.7-1.7c0-0.9-0.6-1.7-1.5-1.9c-0.9-0.2-1.8,0.4-2.1,1.3c-0.1,0.3-0.2,0.6-0.6,0.7
			C17.1,17.8,16.6,17.3,16.7,16.7z"/>
		<path class="st1" d="M29.8,19.9c0,4.9-3.4,8.9-8.2,9.8c-5.4,1-10.7-2.8-11.5-8.3C9.6,17,11.8,12.8,15.9,11c0.1,0,0.2-0.1,0.3-0.1
			c0.5-0.2,0.9,0,1,0.4c0.2,0.4,0,0.8-0.4,1c-0.7,0.3-1.4,0.7-2,1.2c-2.6,2-3.8,5.4-2.9,8.6c1,3.4,3.2,5.5,6.7,6.1
			c4.7,0.8,8.9-2.4,9.6-7.1c0.5-3.6-1.5-7.1-4.8-8.6c-0.1-0.1-0.2-0.1-0.3-0.2c-0.4-0.2-0.6-0.6-0.4-1c0.2-0.4,0.6-0.6,1-0.4
			c1.5,0.6,2.7,1.5,3.8,2.7C29,15.4,29.8,17.5,29.8,19.9z"/>
		<path d="M29.8,19.9c0,4.9-3.4,8.9-8.2,9.8c-5.4,1-10.7-2.8-11.5-8.3C9.6,17,11.8,12.8,15.9,11c0.1,0,0.2-0.1,0.3-0.1
			c0.5-0.2,0.9,0,1,0.4c0.2,0.4,0,0.8-0.4,1c-0.7,0.3-1.4,0.7-2,1.2c-2.6,2-3.8,5.4-2.9,8.6c1,3.4,3.2,5.5,6.7,6.1
			c4.7,0.8,8.9-2.4,9.6-7.1c0.5-3.6-1.5-7.1-4.8-8.6c-0.1-0.1-0.2-0.1-0.3-0.2c-0.4-0.2-0.6-0.6-0.4-1c0.2-0.4,0.6-0.6,1-0.4
			c1.5,0.6,2.7,1.5,3.8,2.7C29,15.4,29.8,17.5,29.8,19.9z"/>
		<path d="M22.9,24.3c-0.8,1.3-2.3,1.9-3.8,1.5c-1.4-0.4-2.5-1.7-2.5-3.1c0-0.5,0.3-0.9,0.7-0.9c0.5,0,0.8,0.3,0.8,0.8
			c0.1,1.1,0.8,1.8,1.9,1.7c0.9,0,1.7-0.8,1.7-1.7c0-1-0.7-1.8-1.7-1.9c-0.5,0-0.8-0.3-0.8-0.8s0.3-0.7,0.8-0.8
			c1-0.1,1.7-0.8,1.7-1.7c0-0.9-0.6-1.7-1.5-1.9c-0.9-0.2-1.8,0.4-2.1,1.3c-0.1,0.3-0.2,0.6-0.6,0.7c-0.6,0.2-1.1-0.3-1-0.9
			c0.2-1.2,1.3-2.3,2.5-2.6c0.3-0.1,0.5-0.1,0.7-0.1c1.5,0,2.7,0.8,3.2,2c0.5,1.3,0.3,2.6-0.7,3.6c-0.2,0.2-0.2,0.3,0,0.5
			C23.4,21.3,23.6,23,22.9,24.3z"/>
		<path class="st2" d="M20.7,10.9c0,0.4-0.3,0.8-0.8,0.8c-0.4,0-0.8-0.3-0.8-0.8c0-0.4,0.3-0.8,0.8-0.8
			C20.4,10.1,20.7,10.5,20.7,10.9z"/>
	</g>
</g>
</svg>
