<?xml version="1.0" encoding="utf-8"?>
<!-- Generator: Adobe Illustrator 22.1.0, SVG Export Plug-In . SVG Version: 6.00 Build 0)  -->
<svg version="1.1" id="Layer_1" xmlns="http://www.w3.org/2000/svg" xmlns:xlink="http://www.w3.org/1999/xlink" x="0px" y="0px"
	 viewBox="0 0 40 40" style="enable-background:new 0 0 40 40;" xml:space="preserve">
<style type="text/css">
	.st0{clip-path:url(#SVGID_2_);}
	.st1{fill:#FEFEFE;}
	.st2{fill:#363636;}
	.st3{fill:#323232;}
	.st4{fill:#020202;}
</style>
<g>
	<defs>
		<rect id="SVGID_1_" y="0" width="40" height="40"/>
	</defs>
	<clipPath id="SVGID_2_">
		<use xlink:href="#SVGID_1_"  style="overflow:visible;"/>
	</clipPath>
	<g class="st0">
		<path class="st1" d="M40,21c-0.1,3.5-1.2,6.7-3.2,9.7c-2.1,3.2-4.9,5.7-8.3,7.4c-2,1-4.2,1.7-6.5,1.9c-3.4,0.3-6.8-0.1-10-1.6
			c-2.5-1.2-4.8-2.7-6.7-4.8c-2.8-3-4.5-6.4-5.2-10.4C0.1,22.6,0.1,22,0,21.5c0.2,0.4,0.1,0.9,0.2,1.3c0.8,5.2,3.4,9.4,7.4,12.7
			c2.7,2.2,5.8,3.7,9.3,4.2c4.4,0.7,8.6-0.1,12.5-2.2c4.6-2.6,7.8-6.3,9.5-11.3c1.9-5.4,1.3-10.7-1.5-15.7C34.8,5.9,31,2.7,26,1
			c-1.5-0.5-2.9-0.8-4.5-0.9c-0.1,0-0.2,0-0.2-0.1c0.4,0.1,0.9,0,1.4,0.1c2.8,0.4,5.3,1.4,7.7,2.8c1.5,0.9,2.8,2,4,3.3
			c2.2,2.4,3.9,5.1,4.8,8.2C39.9,16.6,40,18.8,40,21z"/>
		<path class="st2" d="M0,18.8c0.1,0.3,0.1,0.6,0,0.9C0,19.4,0,19.1,0,18.8z"/>
		<path class="st3" d="M0,20.3c0.1,0.3,0.1,0.6,0,0.9C0,20.9,0,20.6,0,20.3z"/>
		<path class="st1" d="M11.4,12.2c0-0.4,0.4-0.8,0.8-0.8c0.4,0,0.8,0.4,0.8,0.8s-0.4,0.8-0.8,0.8C11.8,13,11.4,12.6,11.4,12.2z"/>
		<path class="st1" d="M26.1,19.3c-1.8-2-3.7-4-5.5-6c-0.5-0.5-0.9-0.5-1.4,0c-1.8,2-3.7,4-5.5,6.1c-0.4,0.4-0.4,0.8,0,1.2
			c1.8,2,3.7,4,5.5,6.1c0.4,0.5,0.9,0.5,1.3,0c1.9-2,3.7-4,5.5-6.1c0.2-0.2,0.3-0.4,0.3-0.6C26.4,19.7,26.3,19.5,26.1,19.3z
			 M24.4,20.2c-1.4,1.6-2.9,3.2-4.3,4.7c-0.1,0.1-0.2,0.2-0.4,0c-1.4-1.6-2.9-3.2-4.3-4.7c-0.1-0.1-0.1-0.2,0-0.4
			c1.4-1.6,2.9-3.2,4.3-4.7c0.1-0.1,0.2-0.2,0.4,0c1.4,1.6,2.9,3.2,4.3,4.7c0.1,0.1,0.1,0.1,0.2,0.2C24.5,20,24.5,20.1,24.4,20.2z"
			/>
		<path class="st1" d="M31.7,20.2c-0.1,4.9-3.3,9.3-8.2,10.9c-4.6,1.5-9.9-0.2-12.8-4.1c-1.7-2.3-2.5-4.8-2.4-7.6
			c0.1-1.7,0.5-3.4,1.3-4.9c0.3-0.5,0.7-0.7,1.1-0.5c0.4,0.2,0.6,0.6,0.3,1.2c-0.8,1.6-1.3,3.3-1.2,5.1c0.2,4.4,2.9,8,7,9.4
			c3.9,1.3,8.6-0.1,11.1-3.5c2.3-3.1,2.8-6.5,1.4-10c-1.4-3.4-4.1-5.5-7.7-6.2c-2.2-0.4-4.3,0-6.3,1c-0.3,0.1-0.5,0.2-0.8,0.1
			C14.2,11,14,10.8,14,10.5c0-0.4,0.1-0.6,0.4-0.8c0.6-0.4,1.3-0.6,2-0.9c5-1.5,10.3,0.3,13.2,4.6C31,15.4,31.6,17.6,31.7,20.2z"/>
		<path d="M31.7,20.2c-0.1,4.9-3.3,9.3-8.2,10.9c-4.6,1.5-9.9-0.2-12.8-4.1c-1.7-2.3-2.5-4.8-2.4-7.6c0.1-1.7,0.5-3.4,1.3-4.9
			c0.3-0.5,0.7-0.7,1.1-0.5c0.4,0.2,0.6,0.6,0.3,1.2c-0.8,1.6-1.3,3.3-1.2,5.1c0.2,4.4,2.9,8,7,9.4c3.9,1.3,8.6-0.1,11.1-3.5
			c2.3-3.1,2.8-6.5,1.4-10c-1.4-3.4-4.1-5.5-7.7-6.2c-2.2-0.4-4.3,0-6.3,1c-0.3,0.1-0.5,0.2-0.8,0.1C14.2,11,14,10.8,14,10.5
			c0-0.4,0.1-0.6,0.4-0.8c0.6-0.4,1.3-0.6,2-0.9c5-1.5,10.3,0.3,13.2,4.6C31,15.4,31.6,17.6,31.7,20.2z"/>
		<path d="M26.1,19.3c-1.8-2-3.7-4-5.5-6c-0.5-0.5-0.9-0.5-1.4,0c-1.8,2-3.7,4-5.5,6.1c-0.4,0.4-0.4,0.8,0,1.2c1.8,2,3.7,4,5.5,6.1
			c0.4,0.5,0.9,0.5,1.3,0c1.9-2,3.7-4,5.5-6.1c0.2-0.2,0.3-0.4,0.3-0.6C26.4,19.7,26.3,19.5,26.1,19.3z M24.4,20.2
			c-1.4,1.6-2.9,3.2-4.3,4.7c-0.1,0.1-0.2,0.2-0.4,0c-1.4-1.6-2.9-3.2-4.3-4.7c-0.1-0.1-0.1-0.2,0-0.4c1.4-1.6,2.9-3.2,4.3-4.7
			c0.1-0.1,0.2-0.2,0.4,0c1.4,1.6,2.9,3.2,4.3,4.7c0.1,0.1,0.1,0.1,0.2,0.2C24.5,20,24.5,20.1,24.4,20.2z"/>
		<path class="st4" d="M12.9,12.2c0,0.4-0.4,0.8-0.8,0.8c-0.4,0-0.8-0.4-0.8-0.8c0-0.4,0.4-0.8,0.8-0.8
			C12.6,11.4,12.9,11.8,12.9,12.2z"/>
		<path d="M19.3,26.6c0.4,0.5,0.9,0.5,1.3,0c1.9-2,3.7-4,5.5-6.1c0.2-0.2,0.3-0.4,0.3-0.6c0-0.2-0.1-0.4-0.3-0.6c-1.8-2-3.7-4-5.5-6
			c-0.5-0.5-0.9-0.5-1.4,0c-1.8,2-3.7,4-5.5,6.1c-0.4,0.4-0.4,0.8,0,1.2C15.6,22.6,17.5,24.6,19.3,26.6z M15.5,19.8
			c1.4-1.6,2.9-3.2,4.3-4.7c0.1-0.1,0.2-0.2,0.4,0c1.4,1.6,2.9,3.2,4.3,4.7c0.1,0.1,0.1,0.1,0.2,0.2c-0.1,0.1-0.1,0.1-0.2,0.2
			c-1.4,1.6-2.9,3.2-4.3,4.7c-0.1,0.1-0.2,0.2-0.4,0c-1.4-1.6-2.9-3.2-4.3-4.7C15.4,20,15.4,19.9,15.5,19.8z"/>
		<path d="M39.2,14.4c-1-3.1-2.6-5.9-4.8-8.2c-1.2-1.3-2.5-2.3-4-3.3c-1.6-1-3.2-1.7-4.9-2.2c-0.2,0-0.5,0-0.8-0.1
			C22.8,0.1,20.8,0,19.4,0c-0.1,0-0.3,0-0.4,0c-0.4,0-0.7,0-0.9,0c-1.3,0.1-2.5,0.3-3.8,0.7c-3.1,0.9-5.8,2.6-8.2,4.8
			C5,6.7,3.9,8.1,2.9,9.6c-1.2,2-2.1,4.1-2.6,6.3c-0.2,0.9-0.3,1.7-0.3,2.6v0.3c0.1,0.3,0.1,0.6,0,0.9v0.6c0.1,0.3,0.1,0.6,0,0.9
			v0.3c0.1,0.6,0.1,1.1,0.2,1.7c0.7,4,2.5,7.5,5.2,10.4c1.9,2,4.1,3.6,6.7,4.8c3.2,1.5,6.5,1.9,10,1.6c2.3-0.2,4.4-0.9,6.5-1.9
			c3.4-1.7,6.2-4.2,8.3-7.4c1.9-2.9,3-6.1,3.2-9.7C40,18.8,39.9,16.6,39.2,14.4z M20.7,1.9c0-0.2,0-0.3,0.3-0.3
			c2.5,0.2,4.9,0.8,7.1,2c1.5,0.8,2.9,1.7,4.2,2.9c-0.7,0.7-1.5,1.4-2.2,2.2c-0.2,0.2-0.3,0-0.4,0c-1.1-1-2.4-1.8-3.7-2.4
			c-1.5-0.7-3.1-1.1-4.8-1.3c-0.4,0-0.5-0.1-0.5-0.5C20.8,3.6,20.8,2.7,20.7,1.9z M7.8,6.3C10.2,4.2,12.9,2.8,16,2
			c1-0.3,2.1-0.4,3.2-0.4v3.2C19.2,5,18.9,5,18.8,5c-1,0.1-1.9,0.2-2.9,0.5c-2.1,0.6-4,1.7-5.7,3.1c-0.2,0.2-0.4,0.2-0.6,0
			C9.1,7.9,8.4,7.3,7.8,6.7C7.6,6.5,7.7,6.5,7.8,6.3z M1.6,18.9c0.2-2.5,0.8-4.9,2-7.1c0.8-1.5,1.7-2.9,2.9-4.2
			C7.2,8.4,8,9.1,8.7,9.8c0.2,0.2,0,0.3-0.1,0.4c-1,1.1-1.8,2.4-2.4,3.7C5.5,15.4,5.1,17,5,18.7c0,0.4-0.1,0.5-0.5,0.5
			c-0.9,0-1.7,0-2.6,0C1.6,19.2,1.6,19.2,1.6,18.9z M6.3,32.1C4.2,29.8,2.8,27,2,24c-0.3-1-0.4-2.1-0.4-3.2c1.1,0,2.1,0,3.1,0
			C5,20.7,5,21,5,21.1c0.1,1,0.2,1.9,0.5,2.9c0.6,2.1,1.6,4,3.1,5.7c0.2,0.2,0.2,0.4,0,0.6c-0.6,0.6-1.2,1.2-1.9,1.8
			C6.6,32.3,6.5,32.3,6.3,32.1z M19.2,38.3c-2.6-0.1-5.1-0.8-7.4-2c-1.5-0.7-2.8-1.7-4-2.8c-0.1-0.1-0.1-0.2,0-0.3
			c0.7-0.6,1.3-1.3,2-2c0.2-0.2,0.3-0.1,0.4,0c1.1,1,2.4,1.8,3.7,2.4c1.5,0.7,3.1,1.1,4.8,1.2c0.4,0,0.5,0.1,0.5,0.5
			C19.2,36.4,19.2,37.4,19.2,38.3z M6.5,20c0-7.3,6.2-13.5,13.5-13.5c7.3,0,13.5,6.2,13.5,13.5c0,7.3-6.2,13.5-13.5,13.5
			C12.7,33.4,6.5,27.2,6.5,20z M32.1,33.6c-2.4,2.1-5.1,3.5-8.2,4.3c-1,0.2-2,0.4-3,0.4c-0.2,0-0.2-0.1-0.2-0.2v-1.5
			c0-0.4,0-0.9,0-1.3c0-0.3,0.1-0.4,0.4-0.4c1.4-0.1,2.8-0.4,4.2-1c1.6-0.6,3.1-1.5,4.4-2.7c0.2-0.2,0.3-0.2,0.6,0
			c0.6,0.6,1.2,1.3,1.9,1.9C32.3,33.4,32.3,33.4,32.1,33.6z M38.3,21c-0.2,3.3-1.3,6.4-3.2,9.2c-0.5,0.7-1,1.4-1.6,2
			c-0.1,0.2-0.2,0.2-0.4,0c-0.6-0.6-1.2-1.3-1.9-1.9c-0.2-0.2-0.2-0.3,0-0.5c1.3-1.5,2.2-3.1,2.9-4.9c0.4-1.2,0.7-2.4,0.7-3.6
			c0-0.4,0.1-0.5,0.5-0.5c0.9,0,1.8,0,2.7,0C38.2,20.7,38.4,20.7,38.3,21z M38.1,19.2h-1.4c-0.4,0-0.8,0-1.2,0
			c-0.4,0-0.5-0.1-0.5-0.4c0-1-0.2-1.9-0.5-2.8c-0.6-2.1-1.7-4-3.1-5.7c-0.2-0.2-0.2-0.4,0-0.6c0.6-0.6,1.2-1.2,1.8-1.8
			c0.1-0.1,0.2-0.2,0.4,0c2.1,2.4,3.5,5.1,4.3,8.1c0.2,1,0.4,2,0.4,3C38.4,19.2,38.3,19.2,38.1,19.2z"/>
		<path d="M12.2,12.9c0.4,0,0.8-0.4,0.8-0.8s-0.4-0.8-0.8-0.8c-0.4,0-0.8,0.4-0.8,0.8C11.4,12.6,11.8,13,12.2,12.9z"/>
		<path d="M29.6,13.4c-2.9-4.3-8.2-6.2-13.2-4.6c-0.7,0.2-1.4,0.5-2,0.9c-0.3,0.2-0.5,0.4-0.4,0.8c0,0.3,0.2,0.5,0.5,0.6
			c0.3,0.1,0.6,0,0.8-0.1c2-1,4.1-1.4,6.3-1c3.7,0.6,6.3,2.7,7.7,6.2c1.5,3.6,0.9,6.9-1.4,10c-2.5,3.3-7.2,4.8-11.1,3.5
			c-4.1-1.4-6.9-5-7-9.4c-0.1-1.8,0.4-3.5,1.2-5.1c0.3-0.5,0.1-1-0.3-1.2c-0.4-0.2-0.8,0-1.1,0.5c-0.8,1.5-1.3,3.2-1.3,4.9
			c-0.1,2.8,0.7,5.4,2.4,7.6c2.9,3.9,8.2,5.6,12.8,4.1c4.9-1.6,8.1-6,8.2-10.9C31.6,17.6,31,15.4,29.6,13.4z"/>
		<path d="M21.3,0h-0.2c-0.3,0.1-0.6,0.1-0.9,0h-0.6c-0.1,0-0.1,0-0.2,0c1.4,0,3.4,0.1,5.2,0.6c0.3,0.1,0.6,0.1,0.8,0.1
			c-0.9-0.3-1.8-0.5-2.8-0.6C22.2,0,21.7,0.1,21.3,0z"/>
		<path d="M18.8,0h-0.3c0,0,0,0-0.1,0h-0.1c0,0,0,0,0,0c-0.1,0-0.1,0-0.2,0c0.2,0,0.5,0,0.9,0C19,0,18.9,0,18.8,0z"/>
	</g>
</g>
</svg>
