<?xml version="1.0" encoding="utf-8"?>
<!-- Generator: Adobe Illustrator 22.1.0, SVG Export Plug-In . SVG Version: 6.00 Build 0)  -->
<svg version="1.1" id="Layer_1" xmlns="http://www.w3.org/2000/svg" xmlns:xlink="http://www.w3.org/1999/xlink" x="0px" y="0px"
	 viewBox="0 0 40 40" style="enable-background:new 0 0 40 40;" xml:space="preserve">
<style type="text/css">
	.st0{fill:#FEFEFE;}
</style>
<path d="M12.3,15.6c0-1.4,1.2-2.6,2.6-2.6s2.6,1.2,2.6,2.6s-1.2,2.6-2.6,2.6S12.3,17,12.3,15.6z"/>
<path d="M27.1,25.2c0,1.4-1.2,2.6-2.6,2.6s-2.6-1.2-2.6-2.6c0-1.5,1.2-2.6,2.6-2.6C26,22.6,27.1,23.7,27.1,25.2z"/>
<path d="M26.8,15.1c-0.1,0.1-0.2,0.2-0.3,0.3c-4,4-7.9,7.9-11.9,11.9c-0.3,0.3-0.6,0.5-0.9,0.5c-0.7,0-1.1-0.2-1.4-0.7
	c-0.2-0.5-0.2-0.9,0.1-1.4c0.1-0.1,0.1-0.2,0.2-0.3c4-4,8-8,12-12c0.4-0.4,0.8-0.6,1.3-0.5C27,13.2,27.4,14.3,26.8,15.1z"/>
<path d="M37.4,20.8c-0.4-0.5-0.4-1,0-1.6c0.5-0.7,0.9-1.4,1.3-2.1c1.4-2.2,0.5-4.8-1.9-5.7c-0.7-0.3-1.5-0.6-2.3-0.9
	c-0.7-0.2-1-0.7-1-1.4c0-0.8-0.1-1.5-0.1-2.3c-0.2-2.7-2.4-4.3-5-3.6c-0.7,0.2-1.5,0.4-2.3,0.6c-0.6,0.2-1.1,0-1.5-0.5
	c-0.5-0.6-1-1.2-1.5-1.9c-1.7-2-4.4-2-6.1,0c-0.5,0.6-1,1.2-1.5,1.9c-0.4,0.5-0.9,0.7-1.6,0.5c-0.9-0.2-1.7-0.5-2.6-0.7
	C9.4,2.7,7.2,4.2,6.9,6.4C6.8,7.3,6.8,8.2,6.8,9.1c0,0.7-0.3,1.2-1,1.4s-1.5,0.6-2.2,0.8c-2.4,0.9-3.3,3.6-1.9,5.8
	c0.5,0.7,0.9,1.4,1.3,2.1c0.4,0.5,0.4,1,0,1.6c-0.5,0.7-0.9,1.4-1.4,2.1c-1.4,2.1-0.5,4.8,1.9,5.7c0.7,0.3,1.5,0.6,2.2,0.9
	c0.7,0.2,1,0.7,1,1.4c0,0.7,0.1,1.5,0.1,2.3c0.2,2.6,2.4,4.3,5,3.6c0.8-0.2,1.5-0.4,2.3-0.6c0.7-0.2,1.2,0,1.6,0.5
	c0.5,0.6,1,1.3,1.6,1.9c0.4,0.5,0.9,0.9,1.5,1.1c0.3,0.1,0.6,0.2,0.9,0.3h1.1c0,0,0-0.1,0.1-0.1c1-0.2,1.8-0.7,2.4-1.5
	c0.5-0.6,1-1.2,1.5-1.8c0.4-0.5,0.9-0.7,1.5-0.5c0.8,0.2,1.6,0.4,2.3,0.6c2.4,0.7,4.6-0.8,4.9-3.3c0.1-0.9,0.1-1.8,0.2-2.7
	c0-0.7,0.3-1.1,1-1.4c0.8-0.3,1.5-0.6,2.3-0.9c2.3-0.9,3.2-3.6,1.8-5.7C38.3,22.2,37.9,21.5,37.4,20.8z M35.9,26.2
	c-0.7,0.3-1.5,0.6-2.2,0.9c-1.6,0.6-2.6,1.9-2.6,3.6c0,0.8-0.1,1.7-0.1,2.5s-0.7,1.3-1.6,1.1c-0.8-0.2-1.7-0.5-2.6-0.7
	c-1.6-0.4-2.9,0-3.9,1.2c-0.6,0.7-1.1,1.3-1.6,2c-0.6,0.8-1.4,0.8-2.1,0c-0.5-0.7-1.1-1.3-1.6-2c-0.8-0.9-1.8-1.4-3-1.4
	c-0.9,0-1.7,0.4-2.6,0.6c-0.3,0.1-0.6,0.2-0.9,0.2c-0.8,0.2-1.5-0.3-1.6-1.1c-0.1-1,0-2.1-0.2-3.1c-0.2-1.4-1-2.4-2.3-2.9
	c-0.8-0.3-1.6-0.6-2.4-0.9c-0.9-0.4-1.2-1.2-0.7-2c0.5-0.7,0.9-1.4,1.3-2.1c0.9-1.4,0.9-2.8,0-4.3c-0.4-0.7-0.9-1.3-1.3-2
	c-0.6-1-0.4-1.7,0.7-2.1c0.7-0.3,1.5-0.6,2.2-0.9c1.5-0.6,2.4-1.8,2.4-3.5c0.1-0.9,0.1-1.7,0.2-2.6c0-0.8,0.7-1.3,1.5-1.1
	c0.9,0.2,1.7,0.5,2.6,0.7c1.6,0.4,2.9-0.1,4-1.3c0.6-0.6,1.1-1.3,1.6-2c0.6-0.8,1.4-0.8,2.1,0c0.5,0.6,1,1.3,1.5,1.9
	c1.1,1.3,2.5,1.8,4.1,1.4c0.8-0.2,1.7-0.4,2.5-0.7c0.8-0.2,1.5,0.3,1.6,1.1c0.1,1,0,2.1,0.2,3.1c0.2,1.3,1,2.3,2.2,2.8
	c0.8,0.4,1.7,0.7,2.6,1c0.9,0.3,1.2,1.1,0.6,1.9c-0.5,0.7-0.9,1.4-1.4,2.1c-0.9,1.4-0.9,2.8,0,4.3c0.4,0.7,0.9,1.4,1.4,2.1
	C37,25,36.8,25.8,35.9,26.2z"/>
<path class="st0" d="M12.3,15.6c0-1.4,1.2-2.6,2.6-2.6s2.6,1.2,2.6,2.6s-1.2,2.6-2.6,2.6S12.3,17,12.3,15.6z"/>
<path class="st0" d="M27.1,25.2c0,1.4-1.2,2.6-2.6,2.6s-2.6-1.2-2.6-2.6c0-1.5,1.2-2.6,2.6-2.6C26,22.6,27.1,23.7,27.1,25.2z"/>
<path class="st0" d="M26.6,15.4c-4,4-7.9,7.9-11.9,11.9c-0.3,0.3-0.6,0.5-0.9,0.5c-0.7,0-1.1-0.2-1.4-0.7c-0.2-0.5-0.2-0.9,0.1-1.4
	c0.1-0.1,0.1-0.2,0.2-0.3c4-4,8-8,12-12c0.4-0.4,0.8-0.6,1.3-0.5c0.9,0.2,1.4,1.3,0.8,2.1C26.8,15.2,26.6,15.3,26.6,15.4z"/>
<path d="M26.8,15.1c-0.1,0.1-0.2,0.2-0.3,0.3c-4,4-7.9,7.9-11.9,11.9c-0.3,0.3-0.6,0.5-0.9,0.5c-0.7,0-1.1-0.2-1.4-0.7
	c-0.2-0.5-0.2-0.9,0.1-1.4c0.1-0.1,0.1-0.2,0.2-0.3c4-4,8-8,12-12c0.4-0.4,0.8-0.6,1.3-0.5C27,13.2,27.4,14.3,26.8,15.1z"/>
<path d="M17.5,15.6c0,1.4-1.2,2.6-2.6,2.6s-2.6-1.2-2.6-2.6s1.2-2.6,2.6-2.6S17.5,14.1,17.5,15.6z"/>
<path d="M27.1,25.2c0,1.4-1.2,2.6-2.6,2.6s-2.6-1.2-2.6-2.6c0-1.5,1.2-2.6,2.6-2.6C26,22.6,27.1,23.7,27.1,25.2z"/>
</svg>
