<?xml version="1.0" encoding="utf-8"?>
<!-- Generator: Adobe Illustrator 22.1.0, SVG Export Plug-In . SVG Version: 6.00 Build 0)  -->
<svg version="1.1" id="Layer_1" xmlns="http://www.w3.org/2000/svg" xmlns:xlink="http://www.w3.org/1999/xlink" x="0px" y="0px"
	 viewBox="0 0 40 40" style="enable-background:new 0 0 40 40;" xml:space="preserve">
<style type="text/css">
	.st0{fill:#FEFEFE;}
</style>
<path d="M15.3,30.2H9c-0.8,0-1.6,0-2.4,0c-0.6,0-1,0.3-1,0.8c-0.1,0.6,0.3,1,1,1h7.9c0.4,0,0.8,0,1.2,0c0.5,0,0.8-0.5,0.8-1
	C16.3,30.4,15.9,30.2,15.3,30.2z M15.2,25.6H7.7c-0.4,0-0.8,0-1.2,0c-0.7,0-1,0.4-1,1c0.1,0.5,0.4,0.8,1.1,0.8c1.4,0,2.9,0,4.4,0
	h4.2c0.2,0,0.3,0,0.5,0c0.5-0.1,0.8-0.5,0.7-1S15.9,25.6,15.2,25.6z M15.2,12.1H6.6c-0.9,0-1.2,0.3-1.2,1.2v8.6
	c0,0.9,0.3,1.2,1.2,1.2h8.5c0.9,0,1.2-0.3,1.2-1.2v-8.6C16.4,12.4,16.1,12.1,15.2,12.1z M14.6,20.9c0,0.2,0,0.3-0.3,0.3
	c-2.3,0-4.5,0-6.7,0c-0.2,0-0.3-0.1-0.3-0.3c0-2.3,0-4.5,0-6.7c0-0.3,0.1-0.3,0.3-0.3H11c1.1,0,2.2,0,3.4,0c0.2,0,0.3,0.1,0.3,0.3
	C14.6,16.4,14.6,18.7,14.6,20.9z M28.9,21.1h-8.6c-0.1,0-0.3,0-0.4,0.1c-0.5,0.1-0.8,0.5-0.7,1c0.1,0.5,0.4,0.7,1.1,0.7
	c1.4,0,2.9,0,4.3,0c1.2,0,2.4,0,3.6,0c0.4,0,0.8,0,1.1,0c0.5-0.1,0.8-0.5,0.7-1C29.9,21.4,29.6,21.1,28.9,21.1z M29.5,30.3
	c-0.2-0.1-0.4-0.1-0.7-0.1c-2.2,0-4.4,0-6.6,0c-0.7,0-1.4,0-2.1,0c-0.6,0-0.9,0.3-1,0.7c-0.1,0.6,0.3,1.1,1,1.1c1.5,0,2.9,0,4.4,0
	h4.3c0.2,0,0.3,0,0.5,0c0.4-0.1,0.7-0.3,0.7-0.7C30.1,30.8,29.9,30.4,29.5,30.3z M29,12.1c-1.5,0-2.9,0-4.4,0h-3.3
	c-0.5,0-0.9,0-1.4,0c-0.6,0.1-0.9,0.5-0.8,1.1c0.1,0.5,0.5,0.7,1.1,0.7H29c0.6,0,0.9-0.3,1-0.7C30.2,12.6,29.7,12.1,29,12.1z
	 M29.2,7.6c-0.2,0-0.3,0-0.5,0h-22c-0.2,0-0.3,0-0.5,0C5.8,7.7,5.5,8,5.5,8.4c-0.1,0.6,0.4,1,1.1,1h22.2c0.2,0,0.3,0,0.5-0.1
	C29.8,9.2,30,8.8,30,8.4C30,8,29.7,7.6,29.2,7.6z M29.3,16.6c-0.2,0-0.3,0-0.5,0h-8.4c-0.2,0-0.4,0-0.5,0c-0.4,0.1-0.6,0.3-0.7,0.7
	c-0.1,0.6,0.3,1.1,1,1.1h8.6c0.2,0,0.3,0,0.5-0.1c0.4-0.1,0.7-0.4,0.7-0.9C30,17.1,29.7,16.7,29.3,16.6z M29.3,25.7
	c-0.2,0-0.3,0-0.5,0h-8.5c-0.2,0-0.4,0-0.5,0.1c-0.5,0.1-0.7,0.5-0.7,0.9c0.1,0.5,0.4,0.8,1.1,0.8c1.5,0,2.9,0,4.4,0h3.9
	c0.2,0,0.5,0,0.7,0c0.5-0.1,0.8-0.4,0.8-0.8C30.1,26.1,29.8,25.8,29.3,25.7z M29.3,25.7c-0.2,0-0.3,0-0.5,0h-8.5
	c-0.2,0-0.4,0-0.5,0.1c-0.5,0.1-0.7,0.5-0.7,0.9c0.1,0.5,0.4,0.8,1.1,0.8c1.5,0,2.9,0,4.4,0h3.9c0.2,0,0.5,0,0.7,0
	c0.5-0.1,0.8-0.4,0.8-0.8C30.1,26.1,29.8,25.8,29.3,25.7z M29.3,16.6c-0.2,0-0.3,0-0.5,0h-8.4c-0.2,0-0.4,0-0.5,0
	c-0.4,0.1-0.6,0.3-0.7,0.7c-0.1,0.6,0.3,1.1,1,1.1h8.6c0.2,0,0.3,0,0.5-0.1c0.4-0.1,0.7-0.4,0.7-0.9C30,17.1,29.7,16.7,29.3,16.6z
	 M6.6,9.4h22.2c0.2,0,0.3,0,0.5-0.1C29.8,9.2,30,8.8,30,8.4c0-0.5-0.3-0.8-0.8-0.9c-0.2,0-0.3,0-0.5,0h-22c-0.2,0-0.3,0-0.5,0
	C5.8,7.7,5.5,8,5.5,8.4C5.4,9,5.9,9.4,6.6,9.4z M29,12.1c-1.5,0-2.9,0-4.4,0h-3.3c-0.5,0-0.9,0-1.4,0c-0.6,0.1-0.9,0.5-0.8,1.1
	c0.1,0.5,0.5,0.7,1.1,0.7H29c0.6,0,0.9-0.3,1-0.7C30.2,12.6,29.7,12.1,29,12.1z M29.5,30.3c-0.2-0.1-0.4-0.1-0.7-0.1
	c-2.2,0-4.4,0-6.6,0c-0.7,0-1.4,0-2.1,0c-0.6,0-0.9,0.3-1,0.7c-0.1,0.6,0.3,1.1,1,1.1c1.5,0,2.9,0,4.4,0h4.3c0.2,0,0.3,0,0.5,0
	c0.4-0.1,0.7-0.3,0.7-0.7C30.1,30.8,29.9,30.4,29.5,30.3z M20.2,22.9c1.4,0,2.9,0,4.3,0c1.2,0,2.4,0,3.6,0c0.4,0,0.8,0,1.1,0
	c0.5-0.1,0.8-0.5,0.7-1c-0.1-0.5-0.5-0.8-1.1-0.8h-8.6c-0.1,0-0.3,0-0.4,0.1c-0.5,0.1-0.8,0.5-0.7,1C19.2,22.7,19.6,22.9,20.2,22.9z
	 M15.2,12.1H6.6c-0.9,0-1.2,0.3-1.2,1.2v8.6c0,0.9,0.3,1.2,1.2,1.2h8.5c0.9,0,1.2-0.3,1.2-1.2v-8.6C16.4,12.4,16.1,12.1,15.2,12.1z
	 M14.6,20.9c0,0.2,0,0.3-0.3,0.3c-2.3,0-4.5,0-6.7,0c-0.2,0-0.3-0.1-0.3-0.3c0-2.3,0-4.5,0-6.7c0-0.3,0.1-0.3,0.3-0.3H11
	c1.1,0,2.2,0,3.4,0c0.2,0,0.3,0.1,0.3,0.3C14.6,16.4,14.6,18.7,14.6,20.9z M15.2,25.6H7.7c-0.4,0-0.8,0-1.2,0c-0.7,0-1,0.4-1,1
	c0.1,0.5,0.4,0.8,1.1,0.8c1.4,0,2.9,0,4.4,0h4.2c0.2,0,0.3,0,0.5,0c0.5-0.1,0.8-0.5,0.7-1S15.9,25.6,15.2,25.6z M15.3,30.2H9
	c-0.8,0-1.6,0-2.4,0c-0.6,0-1,0.3-1,0.8c-0.1,0.6,0.3,1,1,1h7.9c0.4,0,0.8,0,1.2,0c0.5,0,0.8-0.5,0.8-1
	C16.3,30.4,15.9,30.2,15.3,30.2z M39.5,7.1c-0.4-0.4-0.9-0.6-1.4-0.6H36c-0.4,0-0.5,0-0.5-0.5c0-0.7,0-1.4,0-2.1c0-1.1-0.8-2-2-2
	c-0.1,0-0.3,0-0.4,0H2.3C2.2,2,2,2,1.8,2C0.7,2.1,0,2.8,0,3.9v29.2c0,0.5,0,1,0.2,1.4c0.8,1.9,2.4,3,4.5,3h23.2c2.5,0,5,0,7.5,0
	c1.2,0,2.3-0.4,3.2-1.3c0.8-0.8,1.3-1.7,1.3-2.8V8.1C39.9,7.8,39.8,7.4,39.5,7.1z M38.2,32.6c0,0.3,0,0.6-0.1,0.9
	c-0.4,1.3-1.4,2-2.8,2H4.8c-1.2,0-2.1-0.4-2.7-1.5c-0.2-0.4-0.3-0.9-0.3-1.3c0-9.5,0-19,0-28.5c0-0.4,0.2-0.3,0.4-0.3h15.5
	c5.2,0,10.3,0,15.5,0c0.3,0,0.4,0.1,0.4,0.4c0,9,0,18,0,27c0,1.2,0.6,2.1,1.7,2.4c0.3,0.1,0.6,0.1,0.9,0c0.4-0.1,0.6-0.5,0.6-0.9
	s-0.3-0.7-0.7-0.8c-0.6-0.1-0.7-0.2-0.7-0.8c0-7.4,0-14.9,0-22.3c0-0.4,0.1-0.5,0.4-0.4c0.6,0,1.3,0,1.9,0c0.3,0,0.4,0.1,0.4,0.4
	C38.2,16.8,38.2,24.7,38.2,32.6z M29.3,25.7c-0.2,0-0.3,0-0.5,0h-8.5c-0.2,0-0.4,0-0.5,0.1c-0.5,0.1-0.7,0.5-0.7,0.9
	c0.1,0.5,0.4,0.8,1.1,0.8c1.5,0,2.9,0,4.4,0h3.9c0.2,0,0.5,0,0.7,0c0.5-0.1,0.8-0.4,0.8-0.8C30.1,26.1,29.8,25.8,29.3,25.7z
	 M29.3,16.6c-0.2,0-0.3,0-0.5,0h-8.4c-0.2,0-0.4,0-0.5,0c-0.4,0.1-0.6,0.3-0.7,0.7c-0.1,0.6,0.3,1.1,1,1.1h8.6c0.2,0,0.3,0,0.5-0.1
	c0.4-0.1,0.7-0.4,0.7-0.9C30,17.1,29.7,16.7,29.3,16.6z M29.2,7.6c-0.2,0-0.3,0-0.5,0h-22c-0.2,0-0.3,0-0.5,0C5.8,7.7,5.5,8,5.5,8.4
	c-0.1,0.6,0.4,1,1.1,1h22.2c0.2,0,0.3,0,0.5-0.1C29.8,9.2,30,8.8,30,8.4C30,8,29.7,7.6,29.2,7.6z M20.2,13.9H29c0.6,0,0.9-0.3,1-0.7
	c0.1-0.6-0.3-1.1-1-1.1c-1.5,0-2.9,0-4.4,0h-3.3c-0.5,0-0.9,0-1.4,0c-0.6,0.1-0.9,0.5-0.8,1.1C19.2,13.6,19.6,13.9,20.2,13.9z
	 M29.5,30.3c-0.2-0.1-0.4-0.1-0.7-0.1c-2.2,0-4.4,0-6.6,0c-0.7,0-1.4,0-2.1,0c-0.6,0-0.9,0.3-1,0.7c-0.1,0.6,0.3,1.1,1,1.1
	c1.5,0,2.9,0,4.4,0h4.3c0.2,0,0.3,0,0.5,0c0.4-0.1,0.7-0.3,0.7-0.7C30.1,30.8,29.9,30.4,29.5,30.3z M20.2,22.9c1.4,0,2.9,0,4.3,0
	c1.2,0,2.4,0,3.6,0c0.4,0,0.8,0,1.1,0c0.5-0.1,0.8-0.5,0.7-1c-0.1-0.5-0.5-0.8-1.1-0.8h-8.6c-0.1,0-0.3,0-0.4,0.1
	c-0.5,0.1-0.8,0.5-0.7,1C19.2,22.7,19.6,22.9,20.2,22.9z M15.2,12.1H6.6c-0.9,0-1.2,0.3-1.2,1.2v8.6c0,0.9,0.3,1.2,1.2,1.2h8.5
	c0.9,0,1.2-0.3,1.2-1.2v-8.6C16.4,12.4,16.1,12.1,15.2,12.1z M14.6,20.9c0,0.2,0,0.3-0.3,0.3c-2.3,0-4.5,0-6.7,0
	c-0.2,0-0.3-0.1-0.3-0.3c0-2.3,0-4.5,0-6.7c0-0.3,0.1-0.3,0.3-0.3H11c1.1,0,2.2,0,3.4,0c0.2,0,0.3,0.1,0.3,0.3
	C14.6,16.4,14.6,18.7,14.6,20.9z M15.2,25.6H7.7c-0.4,0-0.8,0-1.2,0c-0.7,0-1,0.4-1,1c0.1,0.5,0.4,0.8,1.1,0.8c1.4,0,2.9,0,4.4,0
	h4.2c0.2,0,0.3,0,0.5,0c0.5-0.1,0.8-0.5,0.7-1S15.9,25.6,15.2,25.6z M15.3,30.2H9c-0.8,0-1.6,0-2.4,0c-0.6,0-1,0.3-1,0.8
	c-0.1,0.6,0.3,1,1,1h7.9c0.4,0,0.8,0,1.2,0c0.5,0,0.8-0.5,0.8-1C16.3,30.4,15.9,30.2,15.3,30.2z"/>
<path class="st0" d="M39.9,33.5C39.9,33.5,40,33.5,39.9,33.5c0,1-0.5,1.9-1.3,2.7c-0.9,0.9-2,1.3-3.2,1.3c-2.5,0-5,0-7.5,0H4.7
	c-2.1,0-3.7-1.1-4.5-3C0,34.1,0,33.6,0,33.1V3.9C0,2.8,0.7,2.1,1.8,2C2,2,2.2,2,2.3,2h30.9c0.1,0,0.3,0,0.4,0c1.1,0,1.9,0.9,2,2
	c0,0.7,0,1.4,0,2.1c0,0.4,0,0.4,0.5,0.5h2.1c0.6,0,1,0.2,1.4,0.6c0.3,0.3,0.4,0.7,0.5,1c-0.5-1.2-0.9-1.5-2.3-1.5c-0.7,0-1.3,0-2,0
	c-0.3,0-0.3-0.1-0.3-0.3c0-0.7,0-1.5,0-2.2c0-1.3-0.7-2-2-2c-8.1,0-16.3,0-24.4,0c-2.3,0-4.6,0-6.9,0C0.8,2.1,0,2.9,0,4.2
	c0,9.5,0,19,0,28.5c0,2.7,1.9,4.7,4.7,4.7c10.2,0,20.4,0,30.5,0C37.9,37.4,39.7,35.5,39.9,33.5z"/>
<path class="st0" d="M15.3,30.2H9c-0.8,0-1.6,0-2.4,0c-0.6,0-1,0.3-1,0.8c-0.1,0.6,0.3,1,1,1h7.9c0.4,0,0.8,0,1.2,0
	c0.5,0,0.8-0.5,0.8-1C16.3,30.4,15.9,30.2,15.3,30.2z M15.2,25.6H7.7c-0.4,0-0.8,0-1.2,0c-0.7,0-1,0.4-1,1c0.1,0.5,0.4,0.8,1.1,0.8
	c1.4,0,2.9,0,4.4,0h4.2c0.2,0,0.3,0,0.5,0c0.5-0.1,0.8-0.5,0.7-1S15.9,25.6,15.2,25.6z M15.2,12.1H6.6c-0.9,0-1.2,0.3-1.2,1.2v8.6
	c0,0.9,0.3,1.2,1.2,1.2h8.5c0.9,0,1.2-0.3,1.2-1.2v-8.6C16.4,12.4,16.1,12.1,15.2,12.1z M14.6,20.9c0,0.2,0,0.3-0.3,0.3
	c-2.3,0-4.5,0-6.7,0c-0.2,0-0.3-0.1-0.3-0.3c0-2.3,0-4.5,0-6.7c0-0.3,0.1-0.3,0.3-0.3H11c1.1,0,2.2,0,3.4,0c0.2,0,0.3,0.1,0.3,0.3
	C14.6,16.4,14.6,18.7,14.6,20.9z M28.9,21.1h-8.6c-0.1,0-0.3,0-0.4,0.1c-0.5,0.1-0.8,0.5-0.7,1c0.1,0.5,0.4,0.7,1.1,0.7
	c1.4,0,2.9,0,4.3,0c1.2,0,2.4,0,3.6,0c0.4,0,0.8,0,1.1,0c0.5-0.1,0.8-0.5,0.7-1C29.9,21.4,29.6,21.1,28.9,21.1z M29.5,30.3
	c-0.2-0.1-0.4-0.1-0.7-0.1c-2.2,0-4.4,0-6.6,0c-0.7,0-1.4,0-2.1,0c-0.6,0-0.9,0.3-1,0.7c-0.1,0.6,0.3,1.1,1,1.1c1.5,0,2.9,0,4.4,0
	h4.3c0.2,0,0.3,0,0.5,0c0.4-0.1,0.7-0.3,0.7-0.7C30.1,30.8,29.9,30.4,29.5,30.3z M29,12.1c-1.5,0-2.9,0-4.4,0h-3.3
	c-0.5,0-0.9,0-1.4,0c-0.6,0.1-0.9,0.5-0.8,1.1c0.1,0.5,0.5,0.7,1.1,0.7H29c0.6,0,0.9-0.3,1-0.7C30.2,12.6,29.7,12.1,29,12.1z
	 M29.2,7.6c-0.2,0-0.3,0-0.5,0h-22c-0.2,0-0.3,0-0.5,0C5.8,7.7,5.5,8,5.5,8.4c-0.1,0.6,0.4,1,1.1,1h22.2c0.2,0,0.3,0,0.5-0.1
	C29.8,9.2,30,8.8,30,8.4C30,8,29.7,7.6,29.2,7.6z M29.3,16.6c-0.2,0-0.3,0-0.5,0h-8.4c-0.2,0-0.4,0-0.5,0c-0.4,0.1-0.6,0.3-0.7,0.7
	c-0.1,0.6,0.3,1.1,1,1.1h8.6c0.2,0,0.3,0,0.5-0.1c0.4-0.1,0.7-0.4,0.7-0.9C30,17.1,29.7,16.7,29.3,16.6z M29.3,25.7
	c-0.2,0-0.3,0-0.5,0h-8.5c-0.2,0-0.4,0-0.5,0.1c-0.5,0.1-0.7,0.5-0.7,0.9c0.1,0.5,0.4,0.8,1.1,0.8c1.5,0,2.9,0,4.4,0h3.9
	c0.2,0,0.5,0,0.7,0c0.5-0.1,0.8-0.4,0.8-0.8C30.1,26.1,29.8,25.8,29.3,25.7z"/>
<path d="M15.2,12.1H6.6c-0.9,0-1.2,0.3-1.2,1.2v8.6c0,0.9,0.3,1.2,1.2,1.2h8.5c0.9,0,1.2-0.3,1.2-1.2v-8.6
	C16.4,12.4,16.1,12.1,15.2,12.1z M14.6,20.9c0,0.2,0,0.3-0.3,0.3c-2.3,0-4.5,0-6.7,0c-0.2,0-0.3-0.1-0.3-0.3c0-2.3,0-4.5,0-6.7
	c0-0.3,0.1-0.3,0.3-0.3H11c1.1,0,2.2,0,3.4,0c0.2,0,0.3,0.1,0.3,0.3C14.6,16.4,14.6,18.7,14.6,20.9z"/>
<path d="M30,8.4c0,0.4-0.3,0.8-0.7,0.9c-0.1,0-0.3,0.1-0.5,0.1H6.6c-0.8,0-1.2-0.4-1.1-1c0-0.4,0.3-0.7,0.7-0.8c0.2,0,0.3,0,0.5,0
	h22c0.2,0,0.3,0,0.5,0C29.7,7.6,30,8,30,8.4z"/>
<path d="M30,17.5c0,0.4-0.3,0.8-0.7,0.9c-0.2,0-0.3,0.1-0.5,0.1h-8.6c-0.7,0-1.1-0.4-1-1.1c0.1-0.4,0.3-0.6,0.7-0.7
	c0.2,0,0.4,0,0.5,0h8.4c0.2,0,0.3,0,0.5,0C29.7,16.7,30,17.1,30,17.5z"/>
<path d="M30,21.9c0.1,0.5-0.2,0.9-0.7,1c-0.4,0.1-0.8,0-1.1,0c-1.2,0-2.4,0-3.6,0c-1.4,0-2.9,0-4.3,0c-0.6,0-1-0.3-1.1-0.7
	c-0.1-0.5,0.2-0.9,0.7-1c0.1,0,0.3-0.1,0.4-0.1h8.6C29.6,21.1,29.9,21.4,30,21.9z"/>
<path d="M30,13.2c-0.1,0.4-0.5,0.7-1,0.7h-8.7c-0.6,0-1-0.3-1.1-0.7c-0.1-0.5,0.2-1,0.8-1.1c0.5,0,0.9,0,1.4,0h3.3
	c1.5,0,2.9,0,4.4,0C29.7,12.1,30.2,12.6,30,13.2z"/>
<path d="M30,26.6c0,0.5-0.3,0.8-0.8,0.8c-0.2,0-0.5,0-0.7,0h-3.9c-1.5,0-2.9,0-4.4,0c-0.7,0-1-0.3-1.1-0.8c0-0.5,0.2-0.8,0.7-0.9
	c0.2,0,0.4-0.1,0.5-0.1h8.5c0.2,0,0.3,0,0.5,0C29.8,25.8,30.1,26.1,30,26.6z"/>
<path d="M30,31.2c-0.1,0.4-0.3,0.7-0.7,0.7c-0.2,0-0.3,0-0.5,0h-4.3c-1.5,0-2.9,0-4.4,0c-0.7,0-1.1-0.5-1-1.1c0.1-0.4,0.5-0.7,1-0.7
	c0.7,0,1.4,0,2.1,0c2.2,0,4.4,0,6.6,0c0.2,0,0.5,0,0.7,0.1C29.9,30.4,30.1,30.8,30,31.2z"/>
<path d="M16.4,26.4c0.1,0.5-0.2,0.9-0.7,1c-0.1,0-0.3,0-0.5,0H11c-1.5,0-2.9,0-4.4,0c-0.7,0-1-0.3-1.1-0.8c-0.1-0.6,0.3-1,1-1
	c0.4,0,0.8,0,1.2,0h7.6C15.9,25.6,16.3,25.9,16.4,26.4z"/>
<path d="M16.4,30.9c0.1,0.5-0.2,1-0.8,1c-0.4,0-0.8,0-1.2,0H6.5c-0.7,0-1.1-0.4-1-1c0.1-0.5,0.4-0.8,1-0.8c0.8,0,1.6,0,2.4,0h6.3
	C15.9,30.2,16.3,30.4,16.4,30.9z"/>
</svg>
