<?xml version="1.0" encoding="utf-8"?>
<!-- Generator: Adobe Illustrator 22.1.0, SVG Export Plug-In . SVG Version: 6.00 Build 0)  -->
<svg version="1.1" id="Layer_1" xmlns="http://www.w3.org/2000/svg" xmlns:xlink="http://www.w3.org/1999/xlink" x="0px" y="0px"
	 viewBox="0 0 40 40" style="enable-background:new 0 0 40 40;" xml:space="preserve">
<style type="text/css">
	.st0{clip-path:url(#SVGID_2_);}
	.st1{fill:#FEFEFE;}
	.st2{fill:#0C0C0C;}
	.st3{fill:#101010;}
	.st4{fill:#5A5A5A;}
	.st5{fill:#5D5D5D;}
	.st6{fill:#535353;}
	.st7{fill:#717171;}
	.st8{fill:#909090;}
	.st9{fill:#828282;}
</style>
<g>
	<defs>
		<rect id="SVGID_1_" y="0" width="40" height="40"/>
	</defs>
	<clipPath id="SVGID_2_">
		<use xlink:href="#SVGID_1_"  style="overflow:visible;"/>
	</clipPath>
	<g class="st0">
		<path d="M27.4,18.7c-0.8-0.8-2-0.9-2.8-0.1C24.3,19,24,19.1,23.6,19c-0.1,0-0.3,0-0.5,0c-0.2,0-0.4,0-0.4-0.3
			c-0.2-0.5-0.5-1-1-1.2c-0.7-0.3-0.7-0.7-0.7-1.3c0-0.3,0.1-0.6,0.4-0.8c0.8-0.7,0.9-2,0.1-2.8c-0.8-0.8-2-0.9-2.8-0.1
			c-0.8,0.7-0.9,2-0.1,2.7c0.4,0.4,0.5,0.7,0.5,1.2c0,0.1,0,0.3,0,0.4c0,0.2,0,0.3-0.3,0.4c-0.5,0.2-1,0.6-1.2,1.1
			c-0.3,0.6-0.7,0.7-1.2,0.6c0,0-0.1,0-0.1,0c-0.3,0-0.6-0.1-0.8-0.4c-0.7-0.8-2-0.8-2.8-0.1c-0.8,0.8-0.8,2-0.1,2.8
			c0.8,0.8,2.1,0.9,2.8,0c0.3-0.4,0.7-0.5,1-0.4c0.2,0,0.3,0,0.3,0c0.3,0,0.6,0,0.7,0.4c0.2,0.5,0.5,0.9,1,1.1
			c0.6,0.2,0.6,0.6,0.6,1.2c0,0.4-0.1,0.7-0.4,1c-0.8,0.7-0.8,2-0.1,2.7c0.8,0.8,2,0.8,2.8,0.1s0.9-2,0.1-2.7C21,24.4,21,24,21,23.5
			c0-0.1,0-0.2,0-0.3c0-0.2,0-0.3,0.3-0.4c0.5-0.2,1-0.6,1.2-1.1c0.2-0.6,0.6-0.7,1.1-0.6c0,0,0.1,0,0.1,0c0.4,0,0.6,0.1,0.9,0.4
			c0.7,0.8,2,0.8,2.8,0.1C28.1,20.7,28.2,19.4,27.4,18.7z M20,21c-0.5,0-1-0.5-1-1c0-0.5,0.5-1,1-1c0.5,0,1,0.5,1,1
			C21,20.6,20.5,21,20,21z"/>
		<path d="M39.4,14.9C38.6,11.7,37,9,34.9,6.5c-1.9-2.1-4.1-3.7-6.6-4.8c-1.9-0.8-3.8-1.4-5.8-1.6C21.1,0,19.8,0,18.5,0
			c-2.7,0.1-5.2,0.9-7.6,2.1C8.4,3.4,6.3,5.1,4.6,7.2c-2.1,2.5-3.5,5.4-4.2,8.6c-0.2,0.9-0.3,1.8-0.4,2.7v0.5c0.1,0.1,0.1,0.2,0,0.2
			v0.3c0.1,0.2,0.1,0.3,0,0.5v0.3c0.1,0.2,0.1,0.3,0,0.5V21c0,0,0,0,0,0c0,0,0,0.1,0,0.1v0.2c0,0,0,0.1,0,0.1v0.3
			c0.1,0.4,0,0.7,0.1,1.1c0.4,2.6,1.2,5,2.5,7.3C4,32.4,5.7,34.3,7.8,36c2.4,1.8,5,3,8,3.7c0.9,0.2,1.7,0.3,2.6,0.4h0.3
			c0,0,0.1,0,0.1,0c0,0,0,0,0,0h0c0.1,0,0.2,0,0.2,0h0.3c0.2-0.1,0.3-0.1,0.5,0h0.3c0.1-0.1,0.3-0.1,0.4,0h0.4c0.1-0.1,0.1,0,0.2,0
			c0,0,0,0,0,0h0c0,0,0.1,0,0.1,0h0.2c0,0,0.1,0,0.1,0h0c1.9,0,3.8-0.5,5.6-1.2c2.8-1.1,5.3-2.7,7.4-4.9c1.7-1.7,3-3.7,3.9-5.9
			c0.9-2.1,1.4-4.2,1.5-6.5C40,19.2,40,17,39.4,14.9z M34.9,30.1c-1.3,1.9-2.9,3.5-4.8,4.8c-0.2,0.1-0.3,0.1-0.4-0.1
			c-0.6-1-1.1-2-1.7-3c-0.1-0.2-0.1-0.3,0.1-0.4c1.3-0.9,2.5-2.1,3.4-3.4c0.1-0.2,0.2-0.2,0.4-0.1c1,0.6,2,1.2,3,1.7
			c0.1,0,0.2,0.1,0.2,0.2C34.9,30,34.9,30,34.9,30.1z M32.8,26.3c-0.2-0.1-0.2-0.2-0.1-0.4c0.7-1.5,1.1-3,1.2-4.6
			c0-0.2,0.1-0.3,0.3-0.3c1.2,0,2.3,0,3.5,0c0.2,0,0.3,0,0.2,0.2c-0.2,2.3-0.7,4.5-1.7,6.6c-0.1,0.2-0.2,0.3-0.4,0.1
			C34.8,27.4,33.8,26.8,32.8,26.3z M37.7,19c-0.6,0-1.2,0-1.8,0c-0.6,0-1.1,0-1.7,0c-0.2,0-0.3-0.1-0.3-0.3
			c-0.1-1.6-0.5-3.2-1.2-4.6c-0.1-0.2-0.1-0.3,0.1-0.3c1-0.6,2-1.2,3-1.7c0.2-0.1,0.3-0.1,0.4,0.1c0.8,1.7,1.4,3.5,1.6,5.4
			c0,0.4,0.1,0.8,0.1,1.2C37.9,19,37.9,19,37.7,19z M21,4.1V2.3c0-0.2,0-0.3,0.3-0.3c2.3,0.2,4.4,0.7,6.5,1.7
			C28,3.9,28.1,4,27.9,4.3c-0.6,0.9-1.1,1.9-1.7,2.9c-0.1,0.2-0.2,0.3-0.4,0.1c-1.4-0.7-3-1.1-4.6-1.2C21,6.1,21,6,21,5.8
			C21,5.2,21,4.6,21,4.1z M27.9,8.2c0.6-1,1.2-2,1.7-3C29.8,5,29.9,5,30,5.1C32,6.4,33.6,8,34.9,10c0,0.1,0.1,0.1,0.1,0.2
			c0,0.1-0.1,0.1-0.2,0.2c-1,0.6-2,1.2-3.1,1.8c-0.2,0.1-0.2,0.1-0.3-0.1c-0.9-1.3-2.1-2.5-3.4-3.4C27.9,8.5,27.8,8.4,27.9,8.2z
			 M19,5.8c0,0.2-0.1,0.3-0.3,0.3c-1.6,0.1-3.1,0.5-4.6,1.2c-0.2,0.1-0.3,0.1-0.4-0.1c-0.6-1-1.2-2-1.7-3C11.9,4,11.9,4,12.1,3.9
			c2.1-1,4.3-1.6,6.6-1.8c0.2,0,0.3,0,0.3,0.2c0,0.6,0,1.2,0,1.8C19,4.7,19,5.3,19,5.8z M9.9,34.9C8,33.6,6.4,32,5.1,30.1
			c-0.1-0.1-0.1-0.2,0-0.3c1-0.6,2.1-1.2,3.1-1.8c0,0,0.1,0,0.1-0.1c0.1,0,0.1,0.1,0.2,0.2c0.9,1.3,2.1,2.4,3.4,3.4
			c0.2,0.1,0.2,0.2,0.1,0.4c-0.6,1-1.2,2-1.7,3C10.2,35,10.1,35,9.9,34.9z M7.2,26.3c-1,0.6-2,1.1-3,1.7c-0.2,0.1-0.3,0.1-0.4-0.1
			c-1-2.1-1.6-4.3-1.8-6.6C2,21.1,2.1,21,2.3,21c0.6,0,1.2,0,1.8,0c0.6,0,1.1,0,1.7,0c0.2,0,0.3,0.1,0.3,0.3
			c0.1,1.6,0.5,3.1,1.2,4.6C7.4,26.1,7.4,26.2,7.2,26.3z M4.2,12.1c1,0.6,1.9,1.1,2.9,1.7c0.2,0.1,0.2,0.2,0.1,0.4
			c-0.7,1.5-1.1,3-1.2,4.6C6.1,19,6,19,5.8,19c-0.6,0-1.2,0-1.7,0s-1.1,0-1.7,0c-0.2,0-0.3,0-0.3-0.3c0.2-2.3,0.7-4.5,1.7-6.5
			C3.9,12,4,11.9,4.2,12.1z M5.2,10.3C5,10.2,5,10.1,5.1,9.9C6.4,8,8,6.4,9.9,5.2c0.1-0.1,0.3-0.2,0.4,0c0.6,1,1.2,2.1,1.8,3.1
			c0,0,0.1,0.1,0.1,0.1c0,0.1-0.1,0.2-0.2,0.2c-1.3,0.9-2.5,2.1-3.4,3.4c-0.1,0.2-0.2,0.2-0.4,0.1C7.2,11.5,6.2,10.9,5.2,10.3z
			 M12.2,36.2c-0.3-0.1-0.3-0.2-0.1-0.5c0.6-1,1.1-1.9,1.7-2.9c0.1-0.2,0.2-0.2,0.4-0.1c1.4,0.7,2.9,1.1,4.5,1.2
			c0.2,0,0.3,0.1,0.3,0.3c0,0.6,0,1.1,0,1.7c0,0.6,0,1.2,0,1.7c0,0.2,0,0.3-0.3,0.2C16.5,37.8,14.3,37.2,12.2,36.2z M20,32
			c-6.6,0-12-5.4-12-12c0-6.6,5.4-12,12-12c6.6,0,12,5.4,12,12C31.9,26.7,26.6,32,20,32z M21.2,38C21,38,21,37.9,21,37.7V36
			c0-0.6,0-1.2,0-1.7c0-0.2,0.1-0.3,0.3-0.3c1.6-0.1,3.1-0.5,4.6-1.2c0.2-0.1,0.3-0.1,0.4,0.1c0.5,1,1.1,2,1.7,3
			c0.1,0.2,0.1,0.3-0.1,0.4C25.8,37.2,23.5,37.8,21.2,38z"/>
		<path class="st1" d="M18.4,40c-0.9-0.1-1.8-0.2-2.6-0.4c-2.9-0.7-5.6-1.9-8-3.7c-2.1-1.6-3.8-3.6-5.2-5.8
			c-1.3-2.3-2.2-4.7-2.5-7.3c-0.1-0.4,0-0.7-0.1-1.1c0.2,0.4,0.1,0.8,0.2,1.2c1.2,7.1,5.1,12.2,11.6,15.3c2,0.9,4.1,1.4,6.2,1.7
			C18.2,39.9,18.3,39.9,18.4,40z"/>
		<path class="st2" d="M0,19.4c0.1,0.2,0.1,0.3,0,0.5C0,19.7,0,19.6,0,19.4z"/>
		<path class="st2" d="M0,20.2c0.1,0.2,0.1,0.3,0,0.5C0,20.5,0,20.3,0,20.2z"/>
		<path class="st3" d="M19.4,40c0.2-0.1,0.3-0.1,0.5,0C19.7,40,19.5,40,19.4,40z"/>
		<path class="st3" d="M20.1,40c0.1-0.1,0.3-0.1,0.4,0C20.4,40,20.3,40,20.1,40z"/>
		<path class="st4" d="M0,18.8c0.1,0.1,0.1,0.2,0,0.2C0,19,0,18.9,0,18.8z"/>
		<path class="st5" d="M18.8,39.9c0.1,0,0.2,0,0.2,0.1C19,40,18.9,40,18.8,39.9C18.8,40,18.8,40,18.8,39.9
			C18.8,40,18.8,39.9,18.8,39.9z"/>
		<path class="st5" d="M20.9,40c0.1-0.1,0.1-0.1,0.2-0.1c0,0,0,0,0,0c0,0,0,0,0,0C21.1,40,21,40,20.9,40z"/>
		<path class="st6" d="M0,21c0.1,0,0.1,0.1,0.1,0.2c0,0,0,0-0.1,0C0,21.1,0,21,0,21z"/>
		<path class="st7" d="M0,21.1C0,21.1,0,21.1,0,21.1c0.1,0,0.1,0.1,0.1,0.1c0,0,0,0-0.1,0C0,21.2,0,21.2,0,21.1z"/>
		<path class="st8" d="M0,21.3C0,21.3,0,21.3,0,21.3c0.1,0.1,0.1,0.1,0,0.1C0,21.4,0,21.3,0,21.3z"/>
		<path class="st9" d="M18.8,39.9C18.8,40,18.8,40,18.8,39.9C18.8,40,18.7,40,18.6,40C18.7,39.9,18.8,39.9,18.8,39.9z"/>
		<path class="st9" d="M21.1,40C21.1,40,21.1,40,21.1,40c0.1-0.1,0.1-0.1,0.1,0C21.3,40,21.2,40,21.1,40z"/>
		<path class="st1" d="M27.4,18.7c-0.8-0.8-2-0.9-2.8-0.1C24.3,19,24,19.1,23.6,19c-0.1,0-0.3,0-0.5,0c-0.2,0-0.4,0-0.4-0.3
			c-0.2-0.5-0.5-1-1-1.2c-0.7-0.3-0.7-0.7-0.7-1.3c0-0.3,0.1-0.6,0.4-0.8c0.8-0.7,0.9-2,0.1-2.8c-0.8-0.8-2-0.9-2.8-0.1
			c-0.8,0.7-0.9,2-0.1,2.7c0.4,0.4,0.5,0.7,0.5,1.2c0,0.1,0,0.3,0,0.4c0,0.2,0,0.3-0.3,0.4c-0.5,0.2-1,0.6-1.2,1.1
			c-0.3,0.6-0.7,0.7-1.2,0.6c0,0-0.1,0-0.1,0c-0.3,0-0.6-0.1-0.8-0.4c-0.7-0.8-2-0.8-2.8-0.1c-0.8,0.8-0.8,2-0.1,2.8
			c0.8,0.8,2.1,0.9,2.8,0c0.3-0.4,0.7-0.5,1-0.4c0.2,0,0.3,0,0.3,0c0.3,0,0.6,0,0.7,0.4c0.2,0.5,0.5,0.9,1,1.1
			c0.6,0.2,0.6,0.6,0.6,1.2c0,0.4-0.1,0.7-0.4,1c-0.8,0.7-0.8,2-0.1,2.7c0.8,0.8,2,0.8,2.8,0.1s0.9-2,0.1-2.7C21,24.4,21,24,21,23.5
			c0-0.1,0-0.2,0-0.3c0-0.2,0-0.3,0.3-0.4c0.5-0.2,1-0.6,1.2-1.1c0.2-0.6,0.6-0.7,1.1-0.6c0,0,0.1,0,0.1,0c0.4,0,0.6,0.1,0.9,0.4
			c0.7,0.8,2,0.8,2.8,0.1C28.1,20.7,28.2,19.4,27.4,18.7z M20,21c-0.5,0-1-0.5-1-1c0-0.5,0.5-1,1-1c0.5,0,1,0.5,1,1
			C21,20.6,20.5,21,20,21z"/>
		<path d="M27.4,18.7c-0.8-0.8-2-0.9-2.8-0.1C24.3,19,24,19.1,23.6,19c-0.1,0-0.3,0-0.5,0c-0.2,0-0.4,0-0.4-0.3
			c-0.2-0.5-0.5-1-1-1.2c-0.7-0.3-0.7-0.7-0.7-1.3c0-0.3,0.1-0.6,0.4-0.8c0.8-0.7,0.9-2,0.1-2.8c-0.8-0.8-2-0.9-2.8-0.1
			c-0.8,0.7-0.9,2-0.1,2.7c0.4,0.4,0.5,0.7,0.5,1.2c0,0.1,0,0.3,0,0.4c0,0.2,0,0.3-0.3,0.4c-0.5,0.2-1,0.6-1.2,1.1
			c-0.3,0.6-0.7,0.7-1.2,0.6c0,0-0.1,0-0.1,0c-0.3,0-0.6-0.1-0.8-0.4c-0.7-0.8-2-0.8-2.8-0.1c-0.8,0.8-0.8,2-0.1,2.8
			c0.8,0.8,2.1,0.9,2.8,0c0.3-0.4,0.7-0.5,1-0.4c0.2,0,0.3,0,0.3,0c0.3,0,0.6,0,0.7,0.4c0.2,0.5,0.5,0.9,1,1.1
			c0.6,0.2,0.6,0.6,0.6,1.2c0,0.4-0.1,0.7-0.4,1c-0.8,0.7-0.8,2-0.1,2.7c0.8,0.8,2,0.8,2.8,0.1s0.9-2,0.1-2.7C21,24.4,21,24,21,23.5
			c0-0.1,0-0.2,0-0.3c0-0.2,0-0.3,0.3-0.4c0.5-0.2,1-0.6,1.2-1.1c0.2-0.6,0.6-0.7,1.1-0.6c0,0,0.1,0,0.1,0c0.4,0,0.6,0.1,0.9,0.4
			c0.7,0.8,2,0.8,2.8,0.1C28.1,20.7,28.2,19.4,27.4,18.7z M20,21c-0.5,0-1-0.5-1-1c0-0.5,0.5-1,1-1c0.5,0,1,0.5,1,1
			C21,20.6,20.5,21,20,21z"/>
	</g>
</g>
</svg>
