<?xml version="1.0" encoding="utf-8"?>
<!-- Generator: Adobe Illustrator 22.1.0, SVG Export Plug-In . SVG Version: 6.00 Build 0)  -->
<svg version="1.1" id="Layer_1" xmlns="http://www.w3.org/2000/svg" xmlns:xlink="http://www.w3.org/1999/xlink" x="0px" y="0px"
	 viewBox="0 0 40 40" style="enable-background:new 0 0 40 40;" xml:space="preserve">
<style type="text/css">
	.st0{clip-path:url(#SVGID_2_);}
	.st1{fill:#FEFEFE;}
	.st2{fill:#020202;}
</style>
<g>
	<defs>
		<rect id="SVGID_1_" y="0" width="40" height="40"/>
	</defs>
	<clipPath id="SVGID_2_">
		<use xlink:href="#SVGID_1_"  style="overflow:visible;"/>
	</clipPath>
	<g class="st0">
		<path class="st1" d="M32.5,18.1C32.5,18.1,32.5,18.2,32.5,18.1C32.5,18.2,32.5,18.2,32.5,18.1z"/>
		<path class="st1" d="M40,29.8c-0.1,0.9-0.7,1.3-1.6,1.1c-0.4-0.1-0.8-0.2-1.2-0.3c-0.2-0.1-0.3,0-0.4,0.2
			c-0.4,0.8-0.9,1.6-1.4,2.4c-0.2,0.3-0.2,0.6,0.1,0.9c0.6,0.6,1.1,1.3,1.7,1.9c0.3,0.4,0.5,0.7,0.3,1.2c-0.2,0.5-0.6,0.7-1.2,0.7
			h-8.6c-0.6,0-1-0.2-1.2-0.7c-0.2-0.5,0-0.8,0.3-1.2c0.6-0.6,1.1-1.3,1.7-1.9c0.2-0.2,0.3-0.4,0.1-0.7c-0.5-0.8-1-1.7-1.5-2.6
			c-0.1-0.2-0.2-0.1-0.3-0.1c-0.5,0.1-0.9,0.2-1.4,0.3c-0.8,0.1-1.4-0.2-1.5-0.9c-0.2-1.9,0-3.7,1.3-5.2c0.5-0.6,0.8-1.2,1.1-2
			c0.6-1.8,1.7-3.2,3.5-4.1c0.4-0.2,0.8-0.3,1.3-0.4c0.2,0,0.3-0.1,0.3-0.3V5.3c0-0.1,0-0.2,0-0.3c-0.1,0-0.2,0.1-0.2,0.1
			c-4.1,3.9-9,6.4-14.7,7.7c-0.2,0-0.4,0.1-0.6,0.1c-0.6,0.1-0.6,0.1-0.7,0.7c-0.3,3.5-1.1,7-3.1,10c-0.3,0.5-0.6,0.9-1,1.3
			c-0.1,0.2-0.1,0.2,0.1,0.4c2.1,1.3,2.6,3.8,1.1,5.8c-0.1,0.2-0.2,0.3,0,0.4c0,0,0.1,0.1,0.1,0.1c0.4,0.5,0.7,0.7,1.4,0.4
			c1.1-0.4,2.3,0.2,2.9,1.1c0.6,1,0.4,2.2-0.5,2.9c-0.9,0.7-2.2,0.8-3.1,0.2s-1.4-1.8-1-2.8c0.1-0.3,0.1-0.4-0.1-0.6
			c-0.3-0.2-0.4-0.6-0.7-0.7c-0.3-0.1-0.6,0.2-0.9,0.3c-0.9,0.3-1.8,0.3-2.8,0.1c-0.3-0.1-0.3,0-0.4,0.2c-0.2,1.5-0.3,3-0.5,4.4
			c-0.2,1.3-1.3,2.4-2.7,2.6c0,0-0.1,0-0.1,0.1c0-0.1,0.1-0.2,0.2-0.2c1.6-0.4,2.5-1.6,2.6-3.2c0.1-1.3,0.3-2.5,0.4-3.8
			c0-0.3,0.2-0.4,0.4-0.3c1.2,0.3,2.3,0.2,3.3-0.3c0.2-0.1,0.4-0.1,0.6,0.1c0.1,0.1,0.2,0.2,0.4,0.3c0.4,0.3,0.5,0.7,0.3,1.2
			c-0.3,0.9,0,1.7,0.8,2.3c0.8,0.6,1.7,0.7,2.6,0.3c0.9-0.4,1.4-1.1,1.4-2.1c0-1.5-1.7-2.7-3.2-2.1c-0.6,0.2-0.6,0.3-1.3-0.4
			c-0.4-0.4-0.4-0.5-0.1-0.9c1.2-1.8,0.8-4-1-5.3c-0.5-0.4-0.5-0.4-0.1-0.8c1.4-1.7,2.2-3.6,2.9-5.6c0.6-1.9,0.9-3.8,1-5.7
			c0-0.4,0.2-0.5,0.6-0.6c5-0.9,9.4-3,13.3-6c0.6-0.5,1.2-1,1.7-1.6c0.1-0.1,0.2-0.2,0.3-0.2c0.3-0.2,0.4-0.1,0.5,0.2
			c0,0.1,0,0.2,0,0.3v12.2c0,0.6,0,0.6-0.5,0.7c-2,0.5-3.3,1.7-4.2,3.4c-0.3,0.6-0.5,1.1-0.6,1.7c-0.1,0.3-0.2,0.5-0.4,0.6
			c-1.2,1.1-1.7,2.6-1.8,4.1c0,0.5-0.1,1,0,1.5c0.2,0.7,0.6,1,1.4,0.9c0.4-0.1,0.8-0.2,1.2-0.3c0.3-0.1,0.5,0,0.6,0.2
			c0.4,0.8,0.9,1.6,1.4,2.4c0.2,0.4,0.2,0.7-0.1,1c-0.5,0.6-1.1,1.2-1.6,1.8c-0.3,0.3-0.4,0.7-0.2,1.1c0.2,0.4,0.6,0.6,1.1,0.6
			c1.6-0.1,3.2,0.1,4.7,0.1c1.3,0,2.7-0.1,4-0.1c0.5,0,0.8-0.2,1-0.6c0.2-0.4,0.1-0.7-0.2-1c-0.5-0.6-1.1-1.2-1.6-1.8
			c-0.5-0.5-0.5-0.7-0.1-1.3c0.4-0.7,0.9-1.4,1.2-2.2c0.1-0.3,0.3-0.3,0.6-0.3c0.4,0.1,0.8,0.2,1.2,0.3c0.8,0.2,1.4-0.1,1.5-0.9
			c0.1-2-0.2-4-1.8-5.5c-0.2-0.2-0.3-0.5-0.4-0.8c-0.4-1.7-1.2-3.1-2.7-4.2c-0.6-0.4-1.3-0.7-2-0.9c-0.2-0.1-0.4-0.2-0.4-0.3
			c0,0.1,0.1,0.1,0.2,0.1c2.5,0.5,3.9,2,4.7,4.1c0.4,0.9,0.7,1.7,1.4,2.5C39.9,26.3,40.1,28.1,40,29.8z"/>
		<path class="st1" d="M32.5,18.1c0-0.1-0.1-0.2-0.1-0.3c0-4.6,0-9.2,0-13.8c0-0.3,0.2-0.6,0.4-0.8C33.7,2,33,0.4,31.5,0.1
			c-0.3,0-0.6,0-0.9,0c-2.1,0.4-4.1,1-6.1,1.8c-2.7,1.1-5.1,2.4-7.5,4c-1.5,1-2.9,2.2-4.3,3.4c-0.2,0.2-0.4,0.4-0.2,0.7
			c0.2,0.3,0.5,0.3,0.8,0c0.6-0.5,1.1-0.9,1.6-1.4c1.9-1.6,4-3,6.2-4.2c2.6-1.4,5.2-2.4,8.1-3.2c0.5-0.1,1.1-0.3,1.6-0.3
			C31.5,1,32,1.4,32.1,1.9c0.1,0.5-0.2,0.8-0.7,0.9c-0.9,0.2-1.9,0.4-2.8,0.7c-4.5,1.4-8.5,3.6-12.2,6.6c-3,2.4-5.5,5.2-7.5,8.4
			c-1.3,2.1-2.2,4.3-2.8,6.6c-0.1,0.4-0.3,0.8-0.6,1.1c-0.4,0.4-0.7,0.9-0.8,1.4c-0.1,0.3-0.3,0.5-0.7,0.5c-0.7,0-0.7,0-0.6-0.7
			c0.6-3.5,1.9-6.7,3.8-9.8c1.1-1.8,2.4-3.6,3.9-5.2c0.1-0.1,0.1-0.1,0.2-0.2c0.2-0.3,0.1-0.5-0.1-0.7c-0.2-0.2-0.5-0.1-0.7,0.1
			c-1.9,2-3.5,4.2-4.9,6.6C4.5,20.4,3.6,22.7,3,25c-0.3,1-0.5,1.9-0.6,2.9c-0.1,0.4-0.2,0.7-0.6,1c-0.6,0.5-0.9,1.1-1,1.8
			c-0.2,1.5-0.4,3.1-0.5,4.6c0,0.3-0.1,0.6-0.1,0.9c-0.2,1.6,0.5,2.8,2.1,3.4c0.2,0.1,0.4,0.1,0.4,0.3c-0.1-0.1-0.2-0.1-0.3-0.1
			C0.8,39.4-0.1,38,0,36.5c0.2-1.9,0.4-3.8,0.7-5.7c0.1-0.9,0.5-1.6,1.2-2.1c0.2-0.1,0.2-0.2,0.3-0.4c0.9-6.3,3.9-11.8,8.3-16.6
			c0.3-0.4,0.7-0.4,1-0.2c0.3,0.2,0.3,0.6,0,1c-2,2.2-3.7,4.5-5,7.1C5,22.1,4,24.9,3.5,27.7c0,0.2-0.1,0.3,0.2,0.3
			c0.7-0.1,0.7,0,1-0.7c0.2-0.5,0.5-0.9,0.9-1.3c0.3-0.2,0.4-0.5,0.5-0.8c1.1-4.4,3.5-8.2,6.6-11.6c4-4.3,8.9-7.6,14.6-9.6
			c1.3-0.5,2.7-0.9,4.1-1.2c0.5-0.1,0.7-0.4,0.6-0.8c-0.1-0.5-0.5-0.8-1-0.7c-0.5,0.1-1,0.2-1.5,0.3c-5.7,1.5-10.7,4.2-15,7.9
			c-0.3,0.3-0.6,0.6-1,0.8c-0.4,0.3-0.7,0.3-1,0.1c-0.3-0.3-0.3-0.6,0.1-0.9c2-1.8,4.2-3.5,6.5-4.9c3.5-2.1,7.1-3.6,11.1-4.4
			C30.7,0,31.1,0,31.5,0c0.8,0.1,1.4,0.6,1.7,1.3c0.3,0.8,0.2,1.5-0.5,2.1c-0.1,0.1-0.2,0.3-0.2,0.4V18C32.5,18,32.5,18.1,32.5,18.1
			z"/>
		<path d="M33.1,21.8c0-0.4,0.3-0.6,0.6-0.6c0.4,0,0.6,0.3,0.6,0.6c0,0.3-0.3,0.6-0.6,0.6C33.4,22.4,33.1,22.1,33.1,21.8z"/>
		<path d="M38.8,24.9c-0.6-0.8-1-1.6-1.4-2.5c-0.8-2.1-2.3-3.6-4.7-4.1c-0.1,0-0.1,0-0.1,0c0,0,0,0,0,0c0,0-0.1-0.1-0.1-0.1
			c0,0,0,0,0,0c0-0.1,0-0.1,0-0.2V3.9c0-0.2,0-0.3,0.2-0.4c0.6-0.6,0.7-1.3,0.5-2.1c-0.3-0.8-0.8-1.2-1.7-1.3
			c-0.4-0.1-0.8,0-1.1,0.1c-4,0.9-7.7,2.4-11.1,4.4c-2.4,1.4-4.5,3-6.5,4.9c-0.4,0.3-0.4,0.7-0.1,0.9c0.3,0.3,0.6,0.2,1-0.1
			c0.3-0.3,0.6-0.6,1-0.8c4.4-3.7,9.3-6.5,15-7.9c0.5-0.1,1-0.2,1.5-0.3c0.5-0.1,0.9,0.2,1,0.7c0.1,0.5-0.1,0.7-0.6,0.8
			C30,3.1,28.6,3.5,27.2,4c-5.7,2.1-10.6,5.3-14.6,9.6C9.5,17,7.2,20.8,6,25.2c-0.1,0.3-0.2,0.6-0.5,0.8c-0.4,0.4-0.7,0.8-0.9,1.3
			c-0.2,0.6-0.2,0.6-1,0.7c-0.3,0-0.2-0.1-0.2-0.3C4,24.9,5,22.1,6.4,19.5c1.4-2.6,3.1-4.9,5-7.1c0.3-0.4,0.3-0.7,0-1
			c-0.3-0.2-0.6-0.2-1,0.2c-4.4,4.8-7.4,10.2-8.3,16.6c0,0.2-0.1,0.3-0.3,0.4c-0.7,0.5-1.1,1.3-1.2,2.1c-0.2,1.9-0.4,3.8-0.7,5.7
			c-0.2,1.5,0.8,2.9,2.3,3.4c0.1,0,0.3,0,0.3,0.1h1.2c0,0,0-0.1,0.1-0.1c1.4-0.2,2.6-1.3,2.7-2.6c0.2-1.5,0.4-3,0.5-4.4
			c0-0.3,0.1-0.3,0.4-0.2c0.9,0.3,1.8,0.2,2.8-0.1c0.3-0.1,0.6-0.4,0.9-0.3c0.3,0.1,0.5,0.5,0.7,0.7c0.2,0.2,0.3,0.3,0.1,0.6
			c-0.4,1,0,2.2,1,2.8s2.3,0.5,3.1-0.2c0.9-0.8,1.1-2,0.5-2.9c-0.6-1-1.8-1.5-2.9-1.1c-0.7,0.3-1,0.1-1.4-0.4c0,0,0-0.1-0.1-0.1
			c-0.2-0.1-0.2-0.3,0-0.4c1.5-1.9,1-4.4-1.1-5.8c-0.2-0.1-0.2-0.2-0.1-0.4c0.4-0.4,0.7-0.9,1-1.3c2-3.1,2.8-6.5,3.1-10
			c0.1-0.6,0-0.6,0.7-0.7c0.2,0,0.4-0.1,0.6-0.1C22,11.6,26.9,9,31,5.2C31.1,5.1,31.1,5,31.2,5c0.1,0.1,0,0.2,0,0.3V18
			c0,0.2,0,0.3-0.3,0.3c-0.5,0.1-0.9,0.2-1.3,0.4c-1.8,0.8-2.9,2.3-3.5,4.1c-0.2,0.7-0.6,1.4-1.1,2c-1.3,1.5-1.5,3.3-1.3,5.2
			c0.1,0.7,0.7,1.1,1.5,0.9c0.5-0.1,0.9-0.2,1.4-0.3c0.1,0,0.3-0.1,0.3,0.1c0.4,0.9,1,1.7,1.5,2.6c0.2,0.3,0.1,0.5-0.1,0.7
			c-0.6,0.6-1.1,1.3-1.7,1.9c-0.3,0.4-0.5,0.7-0.3,1.2c0.3,0.5,0.7,0.7,1.2,0.7h8.6c0.5,0,1-0.3,1.2-0.7c0.2-0.5,0-0.8-0.3-1.2
			c-0.6-0.6-1.1-1.3-1.7-1.9c-0.3-0.3-0.3-0.5-0.1-0.9c0.5-0.8,1-1.6,1.4-2.4c0.1-0.2,0.2-0.2,0.4-0.2c0.4,0.1,0.8,0.2,1.2,0.3
			c1,0.2,1.6-0.2,1.6-1.1C40.1,28.1,39.9,26.3,38.8,24.9z M38.5,29.7c-0.3-0.1-0.6-0.2-1-0.2c-0.2,0-0.2-0.1-0.2-0.2
			c0.4-1,0.6-2.1,0.6-3.2c0.3,0.4,0.4,0.8,0.5,1.3c0.2,0.7,0.3,1.5,0.2,2.2C38.8,29.7,38.7,29.8,38.5,29.7z M34.6,20.5
			c1,0.9,1.6,2,1.9,3.2c0.1,0.2-0.1,0.3-0.2,0.3c-0.9,0.2-1.9,0.4-2.9,0.5c-0.5,0-0.7,0.3-0.7,0.6c0,0.4,0.3,0.6,0.7,0.6
			c1-0.1,1.9-0.2,2.9-0.4c0.1,0,0.3-0.1,0.5-0.1c0,0.9-0.1,1.8-0.3,2.7c-0.3,1.3-0.9,2.5-1.6,3.7c-0.1,0.2-0.2,0.4-0.4,0.6
			c-0.9,1.4-0.9,1.8,0.3,3c0.4,0.5,0.8,0.9,1.3,1.4h-8.4c0.5-0.5,0.9-1,1.3-1.5c1.1-1.2,1.1-1.6,0.2-2.9c-1-1.5-1.7-3.1-2.1-4.9
			c-0.1-0.6-0.1-1.2-0.2-1.7c0-0.3,0.1-0.4,0.4-0.3c0.9,0.2,1.8,0.4,2.7,0.4c0.6,0,0.9-0.1,0.9-0.5c0-0.4-0.3-0.6-0.8-0.6
			c-0.9-0.1-1.9-0.2-2.8-0.5c-0.2,0-0.3-0.1-0.2-0.3c0.4-1.6,1.2-2.9,2.7-3.8C31.4,19.1,33.3,19.3,34.6,20.5z M30.2,4.3
			c-3.4,3.5-9.7,6.6-13.7,7.3C20.5,8.2,25,5.7,30.2,4.3z M11.2,30.4c-0.6-0.6-1.2-1.3-1.8-1.9c-0.4-0.4-0.7-0.5-1-0.2
			c-0.3,0.3-0.3,0.6,0.1,1c0.5,0.6,1.1,1.2,1.6,1.8c0.2,0.2,0.2,0.2-0.1,0.3c-1.1,0.5-2.5,0.3-3.4-0.6c-0.9-0.8-1.2-2.1-0.7-3.2
			c0.5-1.1,1.7-1.8,2.9-1.7c2.3,0.1,3.7,2.4,2.5,4.3C11.3,30.3,11.3,30.4,11.2,30.4z M9.9,24.5c-0.2,0.2-0.3,0.3-0.6,0.3
			c-0.6-0.1-1.2,0-1.8,0.1c0.1-2.2,4.5-9.5,6.3-10.7C13.4,18,12.4,21.5,9.9,24.5z M3.2,38.8c-1.1-0.1-2-1-1.9-2
			c0.1-1.3,0.3-2.6,0.4-3.9c0.1-0.6,0.2-1.2,0.2-1.9c0.1-1.1,1-1.9,2.1-1.8c0.3,0,0.4,0,0.5,0.3c0.1,0.9,0.6,1.6,1.3,2.2
			C5.9,31.9,6,32,6,32.2c-0.2,1.6-0.4,3.3-0.6,4.9C5.3,38.1,4.3,38.9,3.2,38.8z M14.4,33.2c0.7,0,1.3,0.6,1.3,1.2
			c0,0.7-0.6,1.2-1.3,1.2c-0.7,0-1.3-0.5-1.3-1.2C13,33.7,13.6,33.2,14.4,33.2z M26.3,29.5c-0.2,0-0.4,0.1-0.5,0.1
			C25,29.8,25,29.9,25,29.1c0-0.9,0.1-1.8,0.5-2.7c0-0.1,0.1-0.2,0.2-0.3c0.1,1.1,0.4,2.1,0.7,3.1C26.5,29.4,26.5,29.4,26.3,29.5z"
			/>
		<path class="st1" d="M34.4,21.8c0,0.3-0.3,0.6-0.6,0.6c-0.4,0-0.6-0.3-0.6-0.6c0-0.4,0.3-0.6,0.6-0.6
			C34.1,21.2,34.4,21.4,34.4,21.8z"/>
		<path class="st2" d="M34.4,21.8c0,0.3-0.3,0.6-0.6,0.6c-0.4,0-0.6-0.3-0.6-0.6c0-0.4,0.3-0.6,0.6-0.6
			C34.1,21.2,34.4,21.4,34.4,21.8z"/>
	</g>
</g>
</svg>
