<?xml version="1.0" encoding="utf-8"?>
<!-- Generator: Adobe Illustrator 22.1.0, SVG Export Plug-In . SVG Version: 6.00 Build 0)  -->
<svg version="1.1" id="Layer_1" xmlns="http://www.w3.org/2000/svg" xmlns:xlink="http://www.w3.org/1999/xlink" x="0px" y="0px"
	 viewBox="0 0 40 40" style="enable-background:new 0 0 40 40;" xml:space="preserve">
<path d="M34.7,39.9C34.7,39.9,34.6,40,34.7,39.9c-0.1-0.1,0.1-0.1,0.2-0.1c1.5-0.3,2.6-2.1,2.3-3.6c-0.7-2.9-2-5.5-4-7.7
	c-1.4-1.6-3-2.9-4.9-3.9c-0.8-0.4-1.6-0.7-2.5-1c-0.1,0-0.3-0.1-0.3-0.2c0-0.2,0.1-0.2,0.3-0.3c0.7-0.5,1.4-1.1,1.9-1.8
	c0.2-0.2,0.4-0.3,0.6-0.3c0.9,0,1.7,0,2.6,0c0.8,0,1.5,0,2.2-0.4c1.2-0.7,1.9-1.8,2-3.2c0-1.7,0-3.4,0-5.1c0-0.6-0.1-1.1-0.4-1.6
	c-0.4-0.6-0.6-1.4-1-2c-0.9-1.9-2.1-3.6-3.7-5c-1.4-1.2-2.9-2.1-4.5-2.7c-1.3-0.5-2.6-0.8-4-0.9c-2.5-0.2-4.9,0.2-7.2,1.1
	C11.1,2.6,8.6,4.9,7,8C6.7,8.6,6.4,9.3,6.2,9.9c-0.1,0.2-0.2,0.3-0.3,0.5c-0.4,0.6-0.6,1.4-0.6,2.1c0,1.6,0,3.1,0,4.7
	c0,1.4,0.6,2.5,1.8,3.3c0.7,0.4,1.4,0.5,2.2,0.5c0.9,0,1.8,0,2.7,0c0.3,0,0.6,0.1,0.8,0.4c0.5,0.6,1.1,1.1,1.7,1.6
	c0.1,0.1,0.2,0.1,0.3,0.3c0.1,0.1,0.1,0.2,0,0.3c-0.1,0.1-0.2,0.1-0.3,0.1c-2.2,0.8-4.2,1.9-5.9,3.5c-2.1,1.9-3.6,4.3-4.6,6.9
	c-0.3,0.8-0.5,1.5-0.7,2.3c-0.3,1.3,0.6,2.8,1.9,3.3c0.2,0.1,0.4,0,0.4,0.3c0-0.1-0.2-0.1-0.2-0.1c-1.7-0.5-2.6-2.1-2.1-3.8
	C4.8,30,8.5,25.6,14.6,23.5c0.1,0,0.1-0.1,0.2-0.1c0-0.1-0.1-0.2-0.2-0.2c-0.8-0.5-1.4-1.1-2-1.8c-0.2-0.2-0.3-0.3-0.6-0.3
	c-1.1,0-2.3,0-3.4,0c-1.9-0.1-3.3-1.5-3.4-3.4c-0.1-1.9-0.1-3.9,0-5.8c0-0.3,0.1-0.7,0.2-0.9c0.6-1.1,1-2.3,1.6-3.4
	c2.5-4.3,6.2-6.9,11.1-7.5c5-0.7,9.4,0.8,12.9,4.5c1.4,1.5,2.4,3.2,3.1,5.1c0.1,0.2,0.2,0.4,0.3,0.7c0.4,0.6,0.6,1.3,0.6,2.1v4.8
	c0,2.3-1.6,3.9-3.8,3.9c-1,0-2,0-2.9,0c-0.3,0-0.5,0.1-0.7,0.3c-0.5,0.7-1.2,1.2-1.9,1.7c-0.1,0.1-0.2,0.1-0.3,0.2
	c2.2,0.7,4.1,1.7,5.9,3.2c3,2.6,4.9,5.8,5.9,9.7C37.7,38,36.5,39.7,34.7,39.9z"/>
<path d="M37.2,36.2c-0.9-3.8-2.8-7.1-5.9-9.7c-1.7-1.5-3.7-2.5-5.9-3.2c0.1-0.1,0.2-0.2,0.3-0.2c0.7-0.5,1.3-1,1.9-1.7
	c0.2-0.2,0.4-0.3,0.7-0.3c1,0,1.9,0,2.9,0c2.3,0,3.8-1.6,3.8-3.9v-4.8c0-0.7-0.2-1.4-0.6-2.1c-0.1-0.2-0.2-0.4-0.3-0.7
	c-0.7-1.9-1.7-3.6-3.1-5.1C27.6,1,23.2-0.5,18.2,0.2C13.2,0.8,9.5,3.3,7.1,7.7c-0.6,1.1-1,2.3-1.6,3.4c-0.2,0.3-0.2,0.6-0.2,0.9
	c-0.1,1.9-0.1,3.9,0,5.8c0.1,1.9,1.5,3.2,3.4,3.4c1.1,0.1,2.3,0,3.4,0c0.3,0,0.4,0.1,0.6,0.3c0.6,0.7,1.2,1.3,2,1.8
	c0.1,0.1,0.2,0.1,0.2,0.2c-0.1,0-0.1,0.1-0.2,0.1C8.5,25.6,4.8,30,3.1,36.1c-0.4,1.7,0.5,3.2,2.1,3.8c0.1,0,0.2,0,0.2,0.1h14.9
	c0.1-0.1,0.3,0,0.4,0h12.9c0,0,0,0,0,0c0.3,0,0.5,0,0.8,0h0.2c0,0,0.1-0.1,0.1-0.1C36.5,39.7,37.7,38,37.2,36.2z M10.9,18.4
	c0.1,0.3,0.1,0.4-0.2,0.4c-0.5,0-1.1,0-1.6,0c-0.9,0-1.4-0.5-1.4-1.4c0-1.6,0-3.2,0-4.8c0-0.9,0.5-1.5,1.5-1.5h2
	c-0.3,0.9-0.6,1.7-0.7,2.6C10.1,15.3,10.3,16.9,10.9,18.4z M9.2,8.7c2.3-3.9,5.6-6,9.9-6.4c5.3-0.4,9.8,2.3,12,6.4c-1,0-2,0-3,0
	c-0.2,0-0.2-0.1-0.3-0.2c-2.1-2.5-4.8-3.6-8-3.5c-2.9,0.1-5.4,1.2-7.3,3.5c-0.1,0.1-0.2,0.2-0.4,0.2C11.2,8.7,10.2,8.7,9.2,8.7z
	 M32.8,17.5c0,0.7-0.6,1.3-1.3,1.3c-0.7,0-1.4,0-2.1,0c1-2.6,1-5.1,0-7.7c0.7,0,1.5,0,2.2,0c0.7,0,1.2,0.6,1.3,1.3
	C32.8,14.1,32.8,15.8,32.8,17.5z M19.1,7.4c4.6-0.6,8,2.7,8.7,6.5c0.2,1.1,0.1,2.2-0.3,3.4c-0.1,0.2-0.2,0.3-0.4,0.3
	c-1.4,0-2.8,0-4.2,0c-0.7,0-1.1,0.3-1.3,0.9c-0.2,0.8,0.3,1.5,1.2,1.5c0.9,0,1.8,0,2.7,0H26c-1.3,1.5-2.9,2.3-4.7,2.6
	c-3.1,0.4-6.2-1.1-7.8-3.9C10.9,14.1,13.9,8.1,19.1,7.4z M34.2,37.6c-0.9,0-1.8,0-2.7,0H6.3c-0.3,0-0.7,0-0.8-0.4
	c-0.1-0.2-0.1-0.4-0.1-0.6c1.3-6,6-10.4,12.1-11.5c4.2-0.7,8.1,0.1,11.6,2.5c3.1,2.2,5,5.3,5.9,9C35.1,37.3,34.8,37.6,34.2,37.6z"/>
<path d="M20.4,40c0.1-0.1,0.2-0.1,0.4-0.1c1.4,0,2.7,0,4.1,0c0,0,0,0,0,0.1c0,0,0,0,0,0C23.4,40,21.9,40,20.4,40z"/>
<path d="M24.9,40C24.9,40,24.9,39.9,24.9,40c1.5-0.1,3-0.1,4.5-0.1c0,0,0,0,0,0.1c0,0,0,0,0,0C27.8,40,26.3,40,24.9,40z"/>
<path d="M29.3,40C29.3,40,29.3,39.9,29.3,40c1.5-0.1,2.9-0.1,4.4-0.1c0,0,0,0,0,0s0,0,0,0C32.2,40,30.8,40,29.3,40z"/>
<path d="M33.7,40C33.7,40,33.7,39.9,33.7,40c0.3-0.1,0.5-0.2,0.8,0C34.2,40,33.9,40,33.7,40z"/>
</svg>
