<?xml version="1.0" encoding="utf-8"?>
<!-- Generator: Adobe Illustrator 22.1.0, SVG Export Plug-In . SVG Version: 6.00 Build 0)  -->
<svg version="1.1" id="Layer_1" xmlns="http://www.w3.org/2000/svg" xmlns:xlink="http://www.w3.org/1999/xlink" x="0px" y="0px"
	 viewBox="0 0 40 40" style="enable-background:new 0 0 40 40;" xml:space="preserve">
<style type="text/css">
	.st0{clip-path:url(#SVGID_2_);}
	.st1{fill:#FEFEFE;}
</style>
<g>
	<defs>
		<rect id="SVGID_1_" y="0" width="40" height="40"/>
	</defs>
	<clipPath id="SVGID_2_">
		<use xlink:href="#SVGID_1_"  style="overflow:visible;"/>
	</clipPath>
	<g class="st0">
		<path class="st1" d="M19.2,21c-0.1,0-0.2,0.1-0.3,0.2c-1.3,1.3-2.6,2.6-3.9,3.9c-1.2,1.2-2.8,1.2-4,0c-3.3-3.4-6.7-6.7-10.1-10
			c-0.4-0.4-0.7-1-0.9-1.5c0.2,0,0.2,0.2,0.3,0.3c0.2,0.4,0.4,0.8,0.7,1.1c3.4,3.4,6.7,6.7,10.1,10.1c0.7,0.7,1.6,1.1,2.7,0.8
			c0.5-0.1,0.8-0.4,1.2-0.8c1.3-1.3,2.5-2.5,3.8-3.8C18.8,21.1,19,20.9,19.2,21C19.2,21,19.2,21,19.2,21z"/>
		<path class="st1" d="M21,19.2C21,19.2,21,19.2,21,19.2c-0.1-0.1,0-0.2,0.1-0.3c0.1-0.1,0.2-0.2,0.3-0.3c1.2-1.2,2.5-2.5,3.7-3.7
			c1.1-1,1.1-2.7,0-3.8c-3.4-3.3-6.7-6.7-10-10c-0.4-0.4-0.9-0.8-1.5-0.9c-0.1,0-0.2,0-0.2-0.2c1,0.2,1.6,0.8,2.3,1.5
			c3.2,3.2,6.3,6.4,9.5,9.5c1,1,1.2,2.2,0.5,3.3c-0.1,0.3-0.3,0.5-0.5,0.7c-1.3,1.3-2.6,2.6-3.9,3.9C21.1,19,21,19.1,21,19.2z"/>
		<path class="st1" d="M40,21.8v15.5c0,1.6-1.1,2.7-2.7,2.7c-5.2,0-10.4,0-15.5,0c-1.6,0-2.7-1.1-2.7-2.8V22.1c0-0.4,0-0.7,0.1-1.1
			c0.2,0.1,0,0.3,0,0.5v2.1c0,4.5,0,9,0,13.5c0,1.4,1,2.7,2.7,2.7c0.7,0,1.5,0,2.2,0H37c0.9,0,1.7-0.2,2.3-1
			c0.4-0.5,0.5-1.1,0.5-1.7c0-4.6,0-9.3,0-13.9c0-0.7,0.1-1.5-0.1-2.2c-0.3-0.9-0.9-1.5-1.8-1.8c-0.4-0.1-0.7-0.1-1.1-0.1H22.3
			c-0.4,0-0.7,0.1-1,0.1c-0.1,0-0.2,0.1-0.3-0.1c0.4-0.1,0.9-0.1,1.3-0.1h14.9c0.9,0,1.7,0.3,2.3,1C39.8,20.6,40,21.2,40,21.8z"/>
		<path d="M14.8,13c0,0.9-0.8,1.7-1.7,1.8c-0.9,0-1.7-0.8-1.8-1.7c0-0.9,0.8-1.7,1.7-1.8C14,11.3,14.8,12.1,14.8,13z"/>
		<path d="M14.8,6c0,1-0.8,1.7-1.8,1.7c-0.9,0-1.7-0.8-1.7-1.7c0-0.9,0.8-1.7,1.8-1.7C14,4.3,14.8,5.1,14.8,6z"/>
		<path d="M14.8,20c0,0.9-0.8,1.8-1.7,1.8c-0.9,0-1.7-0.8-1.8-1.7c0-0.9,0.8-1.7,1.7-1.8C13.9,18.2,14.8,19,14.8,20z"/>
		<path d="M39.4,20.1c-0.6-0.8-1.4-1-2.3-1H22.3c-0.4,0-0.9,0-1.3,0.1c0-0.1,0.2-0.2,0.3-0.3c1.3-1.3,2.6-2.6,3.9-3.9
			c0.2-0.2,0.4-0.4,0.5-0.7c0.7-1.1,0.5-2.3-0.5-3.3c-3.2-3.2-6.4-6.3-9.5-9.5C15,0.8,14.3,0.2,13.4,0h-0.8c-0.8,0.1-1.3,0.5-1.8,1
			C7.5,4.3,4.3,7.5,1,10.8c-0.5,0.5-0.9,1-1,1.7v1.1c0.2,0.6,0.5,1.1,0.9,1.5c3.4,3.3,6.7,6.7,10.1,10c1.3,1.2,2.8,1.2,4,0
			c1.3-1.3,2.6-2.6,3.9-3.9c0.1-0.1,0.1-0.2,0.3-0.2h0v0c-0.1,0.4-0.1,0.7-0.1,1.1v15.1c0,1.7,1.1,2.8,2.7,2.8c5.2,0,10.4,0,15.5,0
			c1.6,0,2.7-1.1,2.7-2.7V21.8C40,21.2,39.8,20.6,39.4,20.1z M22,20.9h15c0.9,0,1.2,0.3,1.2,1.2v15c0,0.9-0.3,1.2-1.2,1.2H22
			c-0.9,0-1.2-0.3-1.2-1.2V22C20.9,21.1,21.1,20.9,22,20.9z M13.8,23.9c-0.5,0.5-1,0.5-1.6,0c-3.4-3.4-6.7-6.7-10.1-10.1
			c-0.5-0.5-0.5-1,0-1.5C5.5,8.9,8.9,5.5,12.2,2.2c0.2-0.2,0.5-0.4,0.8-0.4c0.4,0,0.6,0.2,0.8,0.4c2.9,2.9,5.8,5.8,8.7,8.7
			c0.5,0.5,0.9,0.9,1.4,1.4c0.5,0.5,0.5,1,0,1.5C20.5,17.1,17.2,20.5,13.8,23.9z M34.7,26.1c0.9,0,1.8-0.7,1.8-1.7
			c0-1-0.7-1.8-1.7-1.8c-1,0-1.8,0.7-1.8,1.7C33,25.2,33.8,26,34.7,26.1z M34.8,36.5c1,0,1.7-0.8,1.7-1.7c0-1-0.8-1.7-1.7-1.7
			c-1,0-1.7,0.8-1.7,1.7C33,35.7,33.8,36.5,34.8,36.5z M29.6,31.3c1,0,1.7-0.8,1.7-1.7c0-0.9-0.8-1.7-1.7-1.7c-1,0-1.7,0.8-1.7,1.7
			C27.8,30.5,28.6,31.3,29.6,31.3z M24.3,36.5c1,0,1.7-0.8,1.7-1.7c0-0.9-0.8-1.7-1.7-1.7c-1,0-1.8,0.8-1.7,1.7
			C22.6,35.7,23.4,36.5,24.3,36.5z M24.3,26.1c0.9,0,1.7-0.8,1.7-1.7c0-0.9-0.8-1.7-1.7-1.8c-0.9,0-1.8,0.8-1.8,1.7
			C22.6,25.3,23.4,26.1,24.3,26.1z"/>
		<path class="st1" d="M12.6,0c-1,0.2-1.6,0.9-2.3,1.6C7.6,4.3,4.9,7,2.2,9.7c-0.8,0.8-1.8,1.6-2.2,2.7c0.1-0.7,0.5-1.2,1-1.7
			C4.3,7.5,7.5,4.3,10.8,1C11.3,0.5,11.8,0.1,12.6,0z"/>
		<path class="st1" d="M26.1,24.3c0,0.9-0.8,1.7-1.7,1.7c-1,0-1.8-0.8-1.7-1.7c0-0.9,0.8-1.7,1.8-1.7C25.3,22.6,26.1,23.4,26.1,24.3
			z"/>
		<path class="st1" d="M26.1,34.8c0,1-0.8,1.7-1.7,1.7c-1,0-1.8-0.8-1.8-1.7c0-1,0.8-1.7,1.7-1.7C25.3,33,26.1,33.8,26.1,34.8z"/>
		<path class="st1" d="M31.3,29.5c0,1-0.8,1.7-1.7,1.7c-1,0-1.7-0.8-1.8-1.7c0-1,0.8-1.7,1.7-1.7C30.5,27.8,31.3,28.6,31.3,29.5z"/>
		<path class="st1" d="M36.5,34.8c0,1-0.8,1.7-1.7,1.7c-1,0-1.7-0.8-1.7-1.7c0-1,0.8-1.7,1.7-1.7C35.7,33,36.5,33.8,36.5,34.8z"/>
		<path class="st1" d="M33,24.3c0-0.9,0.8-1.7,1.8-1.7c1,0,1.7,0.8,1.7,1.8c0,1-0.8,1.7-1.8,1.7C33.8,26,33,25.2,33,24.3z"/>
		<path class="st1" d="M14.8,13c0,0.9-0.8,1.7-1.7,1.8c-0.9,0-1.7-0.8-1.8-1.7c0-0.9,0.8-1.7,1.7-1.8C14,11.3,14.8,12.1,14.8,13z"/>
		<path class="st1" d="M11.3,6c0-0.9,0.8-1.7,1.8-1.7c0.9,0,1.7,0.8,1.7,1.7c0,1-0.8,1.7-1.8,1.7C12.1,7.8,11.3,7,11.3,6z"/>
		<path class="st1" d="M14.8,20c0,0.9-0.8,1.8-1.7,1.8c-0.9,0-1.7-0.8-1.8-1.7c0-0.9,0.8-1.7,1.7-1.8C13.9,18.2,14.8,19,14.8,20z"/>
		<path d="M26.1,24.3c0,0.9-0.8,1.7-1.7,1.7c-1,0-1.8-0.8-1.7-1.7c0-0.9,0.8-1.7,1.8-1.7C25.3,22.6,26.1,23.4,26.1,24.3z"/>
		<path d="M31.3,29.5c0,1-0.8,1.7-1.7,1.7c-1,0-1.7-0.8-1.8-1.7c0-1,0.8-1.7,1.7-1.7C30.5,27.8,31.3,28.6,31.3,29.5z"/>
		<path d="M36.5,34.8c0,1-0.8,1.7-1.7,1.7c-1,0-1.7-0.8-1.7-1.7c0-1,0.8-1.7,1.7-1.7C35.7,33,36.5,33.8,36.5,34.8z"/>
		<path d="M36.5,24.4c0,1-0.8,1.7-1.8,1.7c-1,0-1.7-0.8-1.7-1.8c0-0.9,0.8-1.7,1.8-1.7C35.8,22.6,36.5,23.4,36.5,24.4z"/>
		<path d="M26.1,34.8c0,1-0.8,1.7-1.7,1.7c-1,0-1.8-0.8-1.8-1.7c0-1,0.8-1.7,1.7-1.7C25.3,33,26.1,33.8,26.1,34.8z"/>
		<path d="M14.8,13c0,0.9-0.8,1.7-1.7,1.8c-0.9,0-1.7-0.8-1.8-1.7c0-0.9,0.8-1.7,1.7-1.8C14,11.3,14.8,12.1,14.8,13z"/>
		<path d="M14.8,6c0,1-0.8,1.7-1.8,1.7c-0.9,0-1.7-0.8-1.7-1.7c0-0.9,0.8-1.7,1.8-1.7C14,4.3,14.8,5.1,14.8,6z"/>
		<path d="M14.8,20c0,0.9-0.8,1.8-1.7,1.8c-0.9,0-1.7-0.8-1.8-1.7c0-0.9,0.8-1.7,1.7-1.8C13.9,18.2,14.8,19,14.8,20z"/>
	</g>
</g>
</svg>
