<?xml version="1.0" encoding="utf-8"?>
<!-- Generator: Adobe Illustrator 22.1.0, SVG Export Plug-In . SVG Version: 6.00 Build 0)  -->
<svg version="1.1" id="Layer_1" xmlns="http://www.w3.org/2000/svg" xmlns:xlink="http://www.w3.org/1999/xlink" x="0px" y="0px"
	 viewBox="0 0 40 40" style="enable-background:new 0 0 40 40;" xml:space="preserve">
<style type="text/css">
	.st0{clip-path:url(#SVGID_2_);}
	.st1{fill:#FEFEFE;}
	.st2{fill:#FDFDFD;}
	.st3{fill:#010101;}
</style>
<g>
	<defs>
		<rect id="SVGID_1_" y="0" width="40" height="40"/>
	</defs>
	<clipPath id="SVGID_2_">
		<use xlink:href="#SVGID_1_"  style="overflow:visible;"/>
	</clipPath>
	<g class="st0">
		<path d="M16.7,10.3c0-0.4,0.4-0.7,0.8-0.7c0.4,0,0.8,0.4,0.8,0.8c0,0.4-0.4,0.8-0.8,0.8C17.1,11.1,16.7,10.7,16.7,10.3z"/>
		<path d="M19.6,17.3c-0.7,2-1.4,4-2.2,6c-0.2,0.5-0.6,0.8-1,0.6c-0.4-0.2-0.6-0.6-0.4-1.1c0.6-1.6,1.1-3.1,1.7-4.7
			c0-0.1,0.1-0.2,0.1-0.3h-1.6c-0.5,0-0.9-0.3-0.9-0.8c0-0.5,0.4-0.8,0.9-0.8h2.6C19.5,16.1,19.9,16.6,19.6,17.3z"/>
		<path d="M9.8,16.1H7.2c-0.5,0-0.9,0.3-0.9,0.8c0,0.5,0.3,0.8,0.9,0.8h1.6c0,0.1-0.1,0.2-0.1,0.3c-0.6,1.6-1.2,3.2-1.7,4.8
			c-0.2,0.5,0,0.9,0.5,1.1c0.4,0.2,0.8-0.1,1-0.5c0.7-2,1.5-4.1,2.2-6.1C10.8,16.6,10.4,16.1,9.8,16.1z M9.8,16.1H7.2
			c-0.5,0-0.9,0.3-0.9,0.8c0,0.5,0.3,0.8,0.9,0.8h1.6c0,0.1-0.1,0.2-0.1,0.3c-0.6,1.6-1.2,3.2-1.7,4.8c-0.2,0.5,0,0.9,0.5,1.1
			c0.4,0.2,0.8-0.1,1-0.5c0.7-2,1.5-4.1,2.2-6.1C10.8,16.6,10.4,16.1,9.8,16.1z M9.8,16.1H7.2c-0.5,0-0.9,0.3-0.9,0.8
			c0,0.5,0.3,0.8,0.9,0.8h1.6c0,0.1-0.1,0.2-0.1,0.3c-0.6,1.6-1.2,3.2-1.7,4.8c-0.2,0.5,0,0.9,0.5,1.1c0.4,0.2,0.8-0.1,1-0.5
			c0.7-2,1.5-4.1,2.2-6.1C10.8,16.6,10.4,16.1,9.8,16.1z M27.9,16.1h-2.6c-0.5,0-0.9,0.3-0.9,0.8c0,0.5,0.4,0.8,0.9,0.8h1.6
			c0,0.1-0.1,0.2-0.1,0.3c-0.6,1.6-1.1,3.2-1.7,4.8c-0.2,0.5,0,1,0.4,1.1c0.4,0.2,0.8-0.1,1-0.6c0.7-2,1.5-4,2.2-6
			C28.9,16.6,28.6,16.1,27.9,16.1z M27.9,16.1h-2.6c-0.5,0-0.9,0.3-0.9,0.8c0,0.5,0.4,0.8,0.9,0.8h1.6c0,0.1-0.1,0.2-0.1,0.3
			c-0.6,1.6-1.1,3.2-1.7,4.8c-0.2,0.5,0,1,0.4,1.1c0.4,0.2,0.8-0.1,1-0.6c0.7-2,1.5-4,2.2-6C28.9,16.6,28.6,16.1,27.9,16.1z
			 M9.8,16.1H7.2c-0.5,0-0.9,0.3-0.9,0.8c0,0.5,0.3,0.8,0.9,0.8h1.6c0,0.1-0.1,0.2-0.1,0.3c-0.6,1.6-1.2,3.2-1.7,4.8
			c-0.2,0.5,0,0.9,0.5,1.1c0.4,0.2,0.8-0.1,1-0.5c0.7-2,1.5-4.1,2.2-6.1C10.8,16.6,10.4,16.1,9.8,16.1z M9.8,16.1H7.2
			c-0.5,0-0.9,0.3-0.9,0.8c0,0.5,0.3,0.8,0.9,0.8h1.6c0,0.1-0.1,0.2-0.1,0.3c-0.6,1.6-1.2,3.2-1.7,4.8c-0.2,0.5,0,0.9,0.5,1.1
			c0.4,0.2,0.8-0.1,1-0.5c0.7-2,1.5-4.1,2.2-6.1C10.8,16.6,10.4,16.1,9.8,16.1z M27.9,16.1h-2.6c-0.5,0-0.9,0.3-0.9,0.8
			c0,0.5,0.4,0.8,0.9,0.8h1.6c0,0.1-0.1,0.2-0.1,0.3c-0.6,1.6-1.1,3.2-1.7,4.8c-0.2,0.5,0,1,0.4,1.1c0.4,0.2,0.8-0.1,1-0.6
			c0.7-2,1.5-4,2.2-6C28.9,16.6,28.6,16.1,27.9,16.1z M27.9,16.1h-2.6c-0.5,0-0.9,0.3-0.9,0.8c0,0.5,0.4,0.8,0.9,0.8h1.6
			c0,0.1-0.1,0.2-0.1,0.3c-0.6,1.6-1.1,3.2-1.7,4.8c-0.2,0.5,0,1,0.4,1.1c0.4,0.2,0.8-0.1,1-0.6c0.7-2,1.5-4,2.2-6
			C28.9,16.6,28.6,16.1,27.9,16.1z M9.8,16.1H7.2c-0.5,0-0.9,0.3-0.9,0.8c0,0.5,0.3,0.8,0.9,0.8h1.6c0,0.1-0.1,0.2-0.1,0.3
			c-0.6,1.6-1.2,3.2-1.7,4.8c-0.2,0.5,0,0.9,0.5,1.1c0.4,0.2,0.8-0.1,1-0.5c0.7-2,1.5-4.1,2.2-6.1C10.8,16.6,10.4,16.1,9.8,16.1z
			 M30.9,12.7H4.1c-0.7,0-1,0.3-1,1v12.7c0,0.7,0.3,1,1,1h26.8c0.7,0,1-0.3,1-1V13.7C31.9,12.9,31.6,12.7,30.9,12.7z M12.2,25.4
			c0,0.3-0.1,0.4-0.4,0.3c-2.3,0-4.5,0-6.8,0c-0.3,0-0.3-0.1-0.3-0.4V14.6c0-0.3,0.1-0.4,0.3-0.3c2.3,0,4.5,0,6.8,0
			c0.3,0,0.4,0.1,0.4,0.3c0,1.8,0,3.6,0,5.4C12.2,21.8,12.2,23.6,12.2,25.4z M21.3,25.4c0,0.3,0,0.4-0.4,0.4c-2.3,0-4.5,0-6.8,0
			c-0.3,0-0.4-0.1-0.4-0.4c0-3.6,0-7.2,0-10.8c0-0.3,0.1-0.3,0.4-0.3c2.3,0,4.5,0,6.8,0c0.3,0,0.4,0.1,0.3,0.4V25.4L21.3,25.4z
			 M30.3,20c0,1.8,0,3.6,0,5.4c0,0.3-0.1,0.4-0.4,0.3c-2.3,0-4.5,0-6.8,0c-0.3,0-0.4-0.1-0.4-0.4c0-3.6,0-7.2,0-10.8
			c0-0.3,0.1-0.4,0.4-0.3c2.3,0,4.5,0,6.8,0c0.3,0,0.4,0.1,0.4,0.3C30.3,16.4,30.3,18.2,30.3,20z M27.9,16.1h-2.6
			c-0.5,0-0.9,0.3-0.9,0.8c0,0.5,0.4,0.8,0.9,0.8h1.6c0,0.1-0.1,0.2-0.1,0.3c-0.6,1.6-1.1,3.2-1.7,4.8c-0.2,0.5,0,1,0.4,1.1
			c0.4,0.2,0.8-0.1,1-0.6c0.7-2,1.5-4,2.2-6C28.9,16.6,28.6,16.1,27.9,16.1z M9.8,16.1H7.2c-0.5,0-0.9,0.3-0.9,0.8
			c0,0.5,0.3,0.8,0.9,0.8h1.6c0,0.1-0.1,0.2-0.1,0.3c-0.6,1.6-1.2,3.2-1.7,4.8c-0.2,0.5,0,0.9,0.5,1.1c0.4,0.2,0.8-0.1,1-0.5
			c0.7-2,1.5-4.1,2.2-6.1C10.8,16.6,10.4,16.1,9.8,16.1z M9.8,16.1H7.2c-0.5,0-0.9,0.3-0.9,0.8c0,0.5,0.3,0.8,0.9,0.8h1.6
			c0,0.1-0.1,0.2-0.1,0.3c-0.6,1.6-1.2,3.2-1.7,4.8c-0.2,0.5,0,0.9,0.5,1.1c0.4,0.2,0.8-0.1,1-0.5c0.7-2,1.5-4.1,2.2-6.1
			C10.8,16.6,10.4,16.1,9.8,16.1z M27.9,16.1h-2.6c-0.5,0-0.9,0.3-0.9,0.8c0,0.5,0.4,0.8,0.9,0.8h1.6c0,0.1-0.1,0.2-0.1,0.3
			c-0.6,1.6-1.1,3.2-1.7,4.8c-0.2,0.5,0,1,0.4,1.1c0.4,0.2,0.8-0.1,1-0.6c0.7-2,1.5-4,2.2-6C28.9,16.6,28.6,16.1,27.9,16.1z
			 M27.9,16.1h-2.6c-0.5,0-0.9,0.3-0.9,0.8c0,0.5,0.4,0.8,0.9,0.8h1.6c0,0.1-0.1,0.2-0.1,0.3c-0.6,1.6-1.1,3.2-1.7,4.8
			c-0.2,0.5,0,1,0.4,1.1c0.4,0.2,0.8-0.1,1-0.6c0.7-2,1.5-4,2.2-6C28.9,16.6,28.6,16.1,27.9,16.1z M9.8,16.1H7.2
			c-0.5,0-0.9,0.3-0.9,0.8c0,0.5,0.3,0.8,0.9,0.8h1.6c0,0.1-0.1,0.2-0.1,0.3c-0.6,1.6-1.2,3.2-1.7,4.8c-0.2,0.5,0,0.9,0.5,1.1
			c0.4,0.2,0.8-0.1,1-0.5c0.7-2,1.5-4.1,2.2-6.1C10.8,16.6,10.4,16.1,9.8,16.1z M9.8,16.1H7.2c-0.5,0-0.9,0.3-0.9,0.8
			c0,0.5,0.3,0.8,0.9,0.8h1.6c0,0.1-0.1,0.2-0.1,0.3c-0.6,1.6-1.2,3.2-1.7,4.8c-0.2,0.5,0,0.9,0.5,1.1c0.4,0.2,0.8-0.1,1-0.5
			c0.7-2,1.5-4.1,2.2-6.1C10.8,16.6,10.4,16.1,9.8,16.1z M27.9,16.1h-2.6c-0.5,0-0.9,0.3-0.9,0.8c0,0.5,0.4,0.8,0.9,0.8h1.6
			c0,0.1-0.1,0.2-0.1,0.3c-0.6,1.6-1.1,3.2-1.7,4.8c-0.2,0.5,0,1,0.4,1.1c0.4,0.2,0.8-0.1,1-0.6c0.7-2,1.5-4,2.2-6
			C28.9,16.6,28.6,16.1,27.9,16.1z M27.9,16.1h-2.6c-0.5,0-0.9,0.3-0.9,0.8c0,0.5,0.4,0.8,0.9,0.8h1.6c0,0.1-0.1,0.2-0.1,0.3
			c-0.6,1.6-1.1,3.2-1.7,4.8c-0.2,0.5,0,1,0.4,1.1c0.4,0.2,0.8-0.1,1-0.6c0.7-2,1.5-4,2.2-6C28.9,16.6,28.6,16.1,27.9,16.1z
			 M9.8,16.1H7.2c-0.5,0-0.9,0.3-0.9,0.8c0,0.5,0.3,0.8,0.9,0.8h1.6c0,0.1-0.1,0.2-0.1,0.3c-0.6,1.6-1.2,3.2-1.7,4.8
			c-0.2,0.5,0,0.9,0.5,1.1c0.4,0.2,0.8-0.1,1-0.5c0.7-2,1.5-4.1,2.2-6.1C10.8,16.6,10.4,16.1,9.8,16.1z"/>
		<path d="M26.3,33.6H9.1c-0.1,0-0.2,0-0.3,0C8.3,33.7,8,34,8,34.4c0,0.4,0.3,0.7,0.7,0.8c0.1,0,0.2,0,0.3,0h17.2
			c0.4,0,0.8-0.4,0.8-0.8C27,34,26.7,33.7,26.3,33.6z M26.3,33.6H9.1c-0.1,0-0.2,0-0.3,0C8.3,33.7,8,34,8,34.4
			c0,0.4,0.3,0.7,0.7,0.8c0.1,0,0.2,0,0.3,0h17.2c0.4,0,0.8-0.4,0.8-0.8C27,34,26.7,33.7,26.3,33.6z M26.3,33.6H9.1
			c-0.1,0-0.2,0-0.3,0C8.3,33.7,8,34,8,34.4c0,0.4,0.3,0.7,0.7,0.8c0.1,0,0.2,0,0.3,0h17.2c0.4,0,0.8-0.4,0.8-0.8
			C27,34,26.7,33.7,26.3,33.6z M26.3,33.6H9.1c-0.1,0-0.2,0-0.3,0C8.3,33.7,8,34,8,34.4c0,0.4,0.3,0.7,0.7,0.8c0.1,0,0.2,0,0.3,0
			h17.2c0.4,0,0.8-0.4,0.8-0.8C27,34,26.7,33.7,26.3,33.6z M39.7,1.2c-0.5-0.7-1.1-1.2-2-1.2h-0.9c-0.4,0.1-0.7,0.1-1.1,0.4
			C34.1,1.6,34.2,4,36,5c0.4,0.2,0.5,0.5,0.5,0.9c0,3.6,0,7.2,0,10.8c0,0.3,0,0.6,0,0.9c0,0.5-0.2,0.9-0.6,1.2
			c-0.2,0.1-0.4,0.3-0.6,0.2c-0.2-0.1-0.1-0.3-0.1-0.5c0-2.6,0-5.2,0-7.8c0-0.9-0.3-1.2-1.2-1.2c-0.7,0-1.3,0-2,0
			c-0.3,0-0.5-0.1-0.6-0.4c-0.1-0.3-0.3-0.7-0.5-1c-2.1-3.9-5.2-6.4-9.4-7.6c-0.9-0.2-1.7-0.3-2.6-0.4h-2.5c-0.4,0.1-0.8,0-1.2,0.1
			c-3,0.5-5.5,1.8-7.8,3.8C5.8,5.4,4.6,7,3.8,8.9C3.6,9.3,3.4,9.4,3.1,9.4c-0.7,0-1.4,0-2.1,0c-0.7,0-1,0.3-1,1v19.1
			c0,0.8,0.3,1,1,1c0.5,0,1.1,0,1.6,0c0.3,0,0.4,0.1,0.4,0.4c0,0.1,0,0.2,0,0.3v7.5c0,1,0.2,1.2,1.2,1.2h26.7c0.8,0,1.1-0.3,1.1-1.1
			v-7.8c0-0.5,0-0.6,0.6-0.6c0.5,0,1,0,1.5,0c0.7,0,1.1-0.4,1.1-1.1v-8c0-0.5,0-0.5,0.5-0.6c1.6-0.4,2.6-1.7,2.6-3.3V5.8
			c0-0.3,0-0.5,0.3-0.7c0.8-0.4,1.3-1,1.4-1.9v-1C39.9,1.9,39.9,1.5,39.7,1.2z M37.3,1.6c0.6,0,1.1,0.5,1.1,1.1
			c0,0.6-0.5,1.1-1.1,1.1c-0.6,0-1.1-0.5-1.1-1.1C36.3,2.1,36.8,1.6,37.3,1.6z M29.6,9.5h-3.8c-1.6,0-3.2,0-4.8,0
			c-0.5,0-0.8,0.3-0.8,0.8c0,0.4,0.3,0.8,0.8,0.8h0.3c3.9,0,7.8,0,11.7,0c0.3,0,0.4,0.1,0.4,0.4v17.1c0,0.3-0.1,0.4-0.4,0.4H2
			c-0.3,0-0.4,0-0.4-0.4c0-5.7,0-11.4,0-17.1c0-0.3,0.1-0.4,0.4-0.4h11.7c0.1,0,0.2,0,0.3,0c0.4,0,0.7-0.4,0.7-0.8
			c0-0.4-0.3-0.7-0.7-0.8c-0.1,0-0.2,0-0.3,0c-2.8,0-5.5,0-8.3,0c0.8-1.8,1.9-3.3,3.3-4.6c2.1-1.9,4.6-3,7.4-3.3
			C22.5,1,27.7,4.8,29.6,9.5z M30.3,38.1c0,0.3-0.1,0.4-0.4,0.4c-4.2,0-8.3,0-12.5,0c-4.1,0-8.2,0-12.4,0c-0.3,0-0.4-0.1-0.4-0.4
			c0-2.4,0-4.8,0-7.2c0-0.3,0.1-0.4,0.4-0.4c8.3,0,16.6,0,24.9,0c0.3,0,0.4,0.1,0.4,0.4C30.3,33.2,30.3,35.6,30.3,38.1z M26.3,33.6
			H9.1c-0.1,0-0.2,0-0.3,0C8.3,33.7,8,34,8,34.4c0,0.4,0.3,0.7,0.7,0.8c0.1,0,0.2,0,0.3,0h17.2c0.4,0,0.8-0.4,0.8-0.8
			C27,34,26.7,33.7,26.3,33.6z M26.3,33.6H9.1c-0.1,0-0.2,0-0.3,0C8.3,33.7,8,34,8,34.4c0,0.4,0.3,0.7,0.7,0.8c0.1,0,0.2,0,0.3,0
			h17.2c0.4,0,0.8-0.4,0.8-0.8C27,34,26.7,33.7,26.3,33.6z M26.3,33.6H9.1c-0.1,0-0.2,0-0.3,0C8.3,33.7,8,34,8,34.4
			c0,0.4,0.3,0.7,0.7,0.8c0.1,0,0.2,0,0.3,0h17.2c0.4,0,0.8-0.4,0.8-0.8C27,34,26.7,33.7,26.3,33.6z"/>
		<path class="st1" d="M40,3.2c-0.1,0.9-0.6,1.5-1.4,1.9c-0.3,0.2-0.3,0.4-0.3,0.7v11.7c0,1.6-1.1,2.9-2.6,3.3
			c-0.5,0.1-0.5,0.1-0.5,0.6v8c0,0.7-0.4,1.1-1.1,1.1c-0.5,0-1,0-1.5,0c-0.5,0-0.6,0-0.6,0.6V39c0,0.8-0.3,1.1-1.1,1.1H4.2
			C3.3,40,3,39.8,3,38.8v-7.5c0-0.1,0-0.2,0-0.3c0-0.3-0.1-0.4-0.4-0.4c-0.5,0-1.1,0-1.6,0c-0.8,0-1-0.3-1-1V10.4c0-0.7,0.3-1,1-1
			c0.7,0,1.4,0,2.1,0c0.4,0,0.6-0.1,0.7-0.5c0.8-1.9,2-3.6,3.5-5c2.2-2,4.8-3.4,7.8-3.8c0.4-0.1,0.8,0,1.2-0.1
			c-0.5,0.2-1.1,0.2-1.7,0.3C9.5,1.5,5.9,4.4,3.9,9.2C3.7,9.4,3.6,9.5,3.3,9.5c-0.8,0-1.6,0-2.3,0C0.3,9.5,0,9.8,0,10.4
			c0,6.4,0,12.8,0,19.1c0,0.6,0.3,0.9,0.9,0.9c0.6,0,1.2,0,1.9,0c0.3,0,0.3,0.1,0.3,0.3c0,2.7,0,5.4,0,8.1c0,0.8,0.2,1,1,1h26.7
			c0.8,0,1-0.2,1-1c0-2.7,0-5.4,0-8.1c0-0.3,0.1-0.4,0.4-0.4c0.6,0,1.2,0,1.8,0c0.7,0,1-0.3,1-1c0-2.8,0-5.5,0-8.3
			c0-0.3,0-0.4,0.3-0.4c1.7-0.2,2.8-1.6,2.8-3.2c0-4,0-7.9,0-11.9c0-0.3,0.1-0.4,0.3-0.5c0.7-0.3,1.1-0.8,1.4-1.5
			C39.9,3.4,39.9,3.3,40,3.2z"/>
		<path class="st1" d="M36.6,5.5v11.9c0,0.8-0.5,1.5-1.2,1.7c-0.3,0.1-0.3,0-0.3-0.2c0-2.8,0-5.5,0-8.3c0-0.8-0.2-1.1-1.1-1.1
			c-0.7,0-1.5,0-2.2,0c-0.3,0-0.4-0.1-0.5-0.3c-1.6-3.8-4.3-6.5-8.2-8.1c-1.3-0.6-2.8-0.9-4.2-1c-0.1,0-0.1,0-0.1-0.1
			c0.9,0.1,1.8,0.1,2.6,0.4c4.2,1.2,7.4,3.7,9.4,7.6c0.2,0.3,0.3,0.7,0.5,1c0.1,0.3,0.3,0.4,0.6,0.4c0.7,0,1.3,0,2,0
			c0.9,0,1.2,0.3,1.2,1.2c0,2.6,0,5.2,0,7.8c0,0.2-0.1,0.4,0.1,0.5c0.2,0.1,0.4-0.1,0.6-0.2c0.4-0.3,0.6-0.7,0.6-1.2
			c0-0.3,0-0.6,0-0.9c0-3.6,0-7.2,0-10.8c0-0.4-0.1-0.6-0.5-0.9c-1.8-1.1-1.9-3.4-0.2-4.7c0.3-0.2,0.7-0.3,1.1-0.4
			c-0.5,0.2-1,0.3-1.3,0.7c-1.4,1.3-1,3.6,0.7,4.3C36.5,5.2,36.6,5.3,36.6,5.5z"/>
		<path class="st2" d="M40,2.2c-0.2-0.3-0.2-0.7-0.4-1c-0.4-0.7-1.1-1-1.8-1.2c0.7,0,1.4,0,2.1,0C40,0,40,0,40,0.2
			C40,0.9,40,1.5,40,2.2z"/>
		<path class="st1" d="M16.7,10.3c0-0.4,0.4-0.7,0.8-0.7c0.4,0,0.8,0.4,0.8,0.8c0,0.4-0.4,0.8-0.8,0.8
			C17.1,11.1,16.7,10.7,16.7,10.3z"/>
		<path class="st1" d="M19.6,17.3c-0.7,2-1.4,4-2.2,6c-0.2,0.5-0.6,0.8-1,0.6c-0.4-0.2-0.6-0.6-0.4-1.1c0.6-1.6,1.1-3.1,1.7-4.7
			c0-0.1,0.1-0.2,0.1-0.3h-1.6c-0.5,0-0.9-0.3-0.9-0.8c0-0.5,0.4-0.8,0.9-0.8h2.6C19.5,16.1,19.9,16.6,19.6,17.3z"/>
		<path class="st1" d="M9.8,16.1H7.2c-0.5,0-0.9,0.3-0.9,0.8c0,0.5,0.3,0.8,0.9,0.8h1.6c0,0.1-0.1,0.2-0.1,0.3
			c-0.6,1.6-1.2,3.2-1.7,4.8c-0.2,0.5,0,0.9,0.5,1.1c0.4,0.2,0.8-0.1,1-0.5c0.7-2,1.5-4.1,2.2-6.1C10.8,16.6,10.4,16.1,9.8,16.1z
			 M9.8,16.1H7.2c-0.5,0-0.9,0.3-0.9,0.8c0,0.5,0.3,0.8,0.9,0.8h1.6c0,0.1-0.1,0.2-0.1,0.3c-0.6,1.6-1.2,3.2-1.7,4.8
			c-0.2,0.5,0,0.9,0.5,1.1c0.4,0.2,0.8-0.1,1-0.5c0.7-2,1.5-4.1,2.2-6.1C10.8,16.6,10.4,16.1,9.8,16.1z M9.8,16.1H7.2
			c-0.5,0-0.9,0.3-0.9,0.8c0,0.5,0.3,0.8,0.9,0.8h1.6c0,0.1-0.1,0.2-0.1,0.3c-0.6,1.6-1.2,3.2-1.7,4.8c-0.2,0.5,0,0.9,0.5,1.1
			c0.4,0.2,0.8-0.1,1-0.5c0.7-2,1.5-4.1,2.2-6.1C10.8,16.6,10.4,16.1,9.8,16.1z M27.9,16.1h-2.6c-0.5,0-0.9,0.3-0.9,0.8
			c0,0.5,0.4,0.8,0.9,0.8h1.6c0,0.1-0.1,0.2-0.1,0.3c-0.6,1.6-1.1,3.2-1.7,4.8c-0.2,0.5,0,1,0.4,1.1c0.4,0.2,0.8-0.1,1-0.6
			c0.7-2,1.5-4,2.2-6C28.9,16.6,28.6,16.1,27.9,16.1z M27.9,16.1h-2.6c-0.5,0-0.9,0.3-0.9,0.8c0,0.5,0.4,0.8,0.9,0.8h1.6
			c0,0.1-0.1,0.2-0.1,0.3c-0.6,1.6-1.1,3.2-1.7,4.8c-0.2,0.5,0,1,0.4,1.1c0.4,0.2,0.8-0.1,1-0.6c0.7-2,1.5-4,2.2-6
			C28.9,16.6,28.6,16.1,27.9,16.1z M9.8,16.1H7.2c-0.5,0-0.9,0.3-0.9,0.8c0,0.5,0.3,0.8,0.9,0.8h1.6c0,0.1-0.1,0.2-0.1,0.3
			c-0.6,1.6-1.2,3.2-1.7,4.8c-0.2,0.5,0,0.9,0.5,1.1c0.4,0.2,0.8-0.1,1-0.5c0.7-2,1.5-4.1,2.2-6.1C10.8,16.6,10.4,16.1,9.8,16.1z
			 M9.8,16.1H7.2c-0.5,0-0.9,0.3-0.9,0.8c0,0.5,0.3,0.8,0.9,0.8h1.6c0,0.1-0.1,0.2-0.1,0.3c-0.6,1.6-1.2,3.2-1.7,4.8
			c-0.2,0.5,0,0.9,0.5,1.1c0.4,0.2,0.8-0.1,1-0.5c0.7-2,1.5-4.1,2.2-6.1C10.8,16.6,10.4,16.1,9.8,16.1z M27.9,16.1h-2.6
			c-0.5,0-0.9,0.3-0.9,0.8c0,0.5,0.4,0.8,0.9,0.8h1.6c0,0.1-0.1,0.2-0.1,0.3c-0.6,1.6-1.1,3.2-1.7,4.8c-0.2,0.5,0,1,0.4,1.1
			c0.4,0.2,0.8-0.1,1-0.6c0.7-2,1.5-4,2.2-6C28.9,16.6,28.6,16.1,27.9,16.1z M27.9,16.1h-2.6c-0.5,0-0.9,0.3-0.9,0.8
			c0,0.5,0.4,0.8,0.9,0.8h1.6c0,0.1-0.1,0.2-0.1,0.3c-0.6,1.6-1.1,3.2-1.7,4.8c-0.2,0.5,0,1,0.4,1.1c0.4,0.2,0.8-0.1,1-0.6
			c0.7-2,1.5-4,2.2-6C28.9,16.6,28.6,16.1,27.9,16.1z M9.8,16.1H7.2c-0.5,0-0.9,0.3-0.9,0.8c0,0.5,0.3,0.8,0.9,0.8h1.6
			c0,0.1-0.1,0.2-0.1,0.3c-0.6,1.6-1.2,3.2-1.7,4.8c-0.2,0.5,0,0.9,0.5,1.1c0.4,0.2,0.8-0.1,1-0.5c0.7-2,1.5-4.1,2.2-6.1
			C10.8,16.6,10.4,16.1,9.8,16.1z M30.9,12.7H4.1c-0.7,0-1,0.3-1,1v12.7c0,0.7,0.3,1,1,1h26.8c0.7,0,1-0.3,1-1V13.7
			C31.9,12.9,31.6,12.7,30.9,12.7z M12.2,25.4c0,0.3-0.1,0.4-0.4,0.3c-2.3,0-4.5,0-6.8,0c-0.3,0-0.3-0.1-0.3-0.4V14.6
			c0-0.3,0.1-0.4,0.3-0.3c2.3,0,4.5,0,6.8,0c0.3,0,0.4,0.1,0.4,0.3c0,1.8,0,3.6,0,5.4C12.2,21.8,12.2,23.6,12.2,25.4z M21.3,25.4
			c0,0.3,0,0.4-0.4,0.4c-2.3,0-4.5,0-6.8,0c-0.3,0-0.4-0.1-0.4-0.4c0-3.6,0-7.2,0-10.8c0-0.3,0.1-0.3,0.4-0.3c2.3,0,4.5,0,6.8,0
			c0.3,0,0.4,0.1,0.3,0.4V25.4L21.3,25.4z M30.3,20c0,1.8,0,3.6,0,5.4c0,0.3-0.1,0.4-0.4,0.3c-2.3,0-4.5,0-6.8,0
			c-0.3,0-0.4-0.1-0.4-0.4c0-3.6,0-7.2,0-10.8c0-0.3,0.1-0.4,0.4-0.3c2.3,0,4.5,0,6.8,0c0.3,0,0.4,0.1,0.4,0.3
			C30.3,16.4,30.3,18.2,30.3,20z M27.9,16.1h-2.6c-0.5,0-0.9,0.3-0.9,0.8c0,0.5,0.4,0.8,0.9,0.8h1.6c0,0.1-0.1,0.2-0.1,0.3
			c-0.6,1.6-1.1,3.2-1.7,4.8c-0.2,0.5,0,1,0.4,1.1c0.4,0.2,0.8-0.1,1-0.6c0.7-2,1.5-4,2.2-6C28.9,16.6,28.6,16.1,27.9,16.1z
			 M9.8,16.1H7.2c-0.5,0-0.9,0.3-0.9,0.8c0,0.5,0.3,0.8,0.9,0.8h1.6c0,0.1-0.1,0.2-0.1,0.3c-0.6,1.6-1.2,3.2-1.7,4.8
			c-0.2,0.5,0,0.9,0.5,1.1c0.4,0.2,0.8-0.1,1-0.5c0.7-2,1.5-4.1,2.2-6.1C10.8,16.6,10.4,16.1,9.8,16.1z M9.8,16.1H7.2
			c-0.5,0-0.9,0.3-0.9,0.8c0,0.5,0.3,0.8,0.9,0.8h1.6c0,0.1-0.1,0.2-0.1,0.3c-0.6,1.6-1.2,3.2-1.7,4.8c-0.2,0.5,0,0.9,0.5,1.1
			c0.4,0.2,0.8-0.1,1-0.5c0.7-2,1.5-4.1,2.2-6.1C10.8,16.6,10.4,16.1,9.8,16.1z M27.9,16.1h-2.6c-0.5,0-0.9,0.3-0.9,0.8
			c0,0.5,0.4,0.8,0.9,0.8h1.6c0,0.1-0.1,0.2-0.1,0.3c-0.6,1.6-1.1,3.2-1.7,4.8c-0.2,0.5,0,1,0.4,1.1c0.4,0.2,0.8-0.1,1-0.6
			c0.7-2,1.5-4,2.2-6C28.9,16.6,28.6,16.1,27.9,16.1z M27.9,16.1h-2.6c-0.5,0-0.9,0.3-0.9,0.8c0,0.5,0.4,0.8,0.9,0.8h1.6
			c0,0.1-0.1,0.2-0.1,0.3c-0.6,1.6-1.1,3.2-1.7,4.8c-0.2,0.5,0,1,0.4,1.1c0.4,0.2,0.8-0.1,1-0.6c0.7-2,1.5-4,2.2-6
			C28.9,16.6,28.6,16.1,27.9,16.1z M9.8,16.1H7.2c-0.5,0-0.9,0.3-0.9,0.8c0,0.5,0.3,0.8,0.9,0.8h1.6c0,0.1-0.1,0.2-0.1,0.3
			c-0.6,1.6-1.2,3.2-1.7,4.8c-0.2,0.5,0,0.9,0.5,1.1c0.4,0.2,0.8-0.1,1-0.5c0.7-2,1.5-4.1,2.2-6.1C10.8,16.6,10.4,16.1,9.8,16.1z
			 M9.8,16.1H7.2c-0.5,0-0.9,0.3-0.9,0.8c0,0.5,0.3,0.8,0.9,0.8h1.6c0,0.1-0.1,0.2-0.1,0.3c-0.6,1.6-1.2,3.2-1.7,4.8
			c-0.2,0.5,0,0.9,0.5,1.1c0.4,0.2,0.8-0.1,1-0.5c0.7-2,1.5-4.1,2.2-6.1C10.8,16.6,10.4,16.1,9.8,16.1z M27.9,16.1h-2.6
			c-0.5,0-0.9,0.3-0.9,0.8c0,0.5,0.4,0.8,0.9,0.8h1.6c0,0.1-0.1,0.2-0.1,0.3c-0.6,1.6-1.1,3.2-1.7,4.8c-0.2,0.5,0,1,0.4,1.1
			c0.4,0.2,0.8-0.1,1-0.6c0.7-2,1.5-4,2.2-6C28.9,16.6,28.6,16.1,27.9,16.1z M27.9,16.1h-2.6c-0.5,0-0.9,0.3-0.9,0.8
			c0,0.5,0.4,0.8,0.9,0.8h1.6c0,0.1-0.1,0.2-0.1,0.3c-0.6,1.6-1.1,3.2-1.7,4.8c-0.2,0.5,0,1,0.4,1.1c0.4,0.2,0.8-0.1,1-0.6
			c0.7-2,1.5-4,2.2-6C28.9,16.6,28.6,16.1,27.9,16.1z M9.8,16.1H7.2c-0.5,0-0.9,0.3-0.9,0.8c0,0.5,0.3,0.8,0.9,0.8h1.6
			c0,0.1-0.1,0.2-0.1,0.3c-0.6,1.6-1.2,3.2-1.7,4.8c-0.2,0.5,0,0.9,0.5,1.1c0.4,0.2,0.8-0.1,1-0.5c0.7-2,1.5-4.1,2.2-6.1
			C10.8,16.6,10.4,16.1,9.8,16.1z"/>
		<path class="st1" d="M27,34.4c0,0.4-0.3,0.7-0.8,0.8H9.1c-0.1,0-0.2,0-0.3,0c-0.4,0-0.7-0.4-0.7-0.8c0-0.4,0.3-0.7,0.7-0.8
			c0.1,0,0.2,0,0.3,0h17.2C26.7,33.7,27,34,27,34.4z"/>
		<path d="M19.6,17.3c-0.7,2-1.4,4-2.2,6c-0.2,0.5-0.6,0.8-1,0.6c-0.4-0.2-0.6-0.6-0.4-1.1c0.6-1.6,1.1-3.1,1.7-4.7
			c0-0.1,0.1-0.2,0.1-0.3h-1.6c-0.5,0-0.9-0.3-0.9-0.8c0-0.5,0.4-0.8,0.9-0.8h2.6C19.5,16.1,19.9,16.6,19.6,17.3z"/>
		<path d="M9.8,16.1H7.2c-0.5,0-0.9,0.3-0.9,0.8c0,0.5,0.3,0.8,0.9,0.8h1.6c0,0.1-0.1,0.2-0.1,0.3c-0.6,1.6-1.2,3.2-1.7,4.8
			c-0.2,0.5,0,0.9,0.5,1.1c0.4,0.2,0.8-0.1,1-0.5c0.7-2,1.5-4.1,2.2-6.1C10.8,16.6,10.4,16.1,9.8,16.1z M9.8,16.1H7.2
			c-0.5,0-0.9,0.3-0.9,0.8c0,0.5,0.3,0.8,0.9,0.8h1.6c0,0.1-0.1,0.2-0.1,0.3c-0.6,1.6-1.2,3.2-1.7,4.8c-0.2,0.5,0,0.9,0.5,1.1
			c0.4,0.2,0.8-0.1,1-0.5c0.7-2,1.5-4.1,2.2-6.1C10.8,16.6,10.4,16.1,9.8,16.1z M9.8,16.1H7.2c-0.5,0-0.9,0.3-0.9,0.8
			c0,0.5,0.3,0.8,0.9,0.8h1.6c0,0.1-0.1,0.2-0.1,0.3c-0.6,1.6-1.2,3.2-1.7,4.8c-0.2,0.5,0,0.9,0.5,1.1c0.4,0.2,0.8-0.1,1-0.5
			c0.7-2,1.5-4.1,2.2-6.1C10.8,16.6,10.4,16.1,9.8,16.1z M27.9,16.1h-2.6c-0.5,0-0.9,0.3-0.9,0.8c0,0.5,0.4,0.8,0.9,0.8h1.6
			c0,0.1-0.1,0.2-0.1,0.3c-0.6,1.6-1.1,3.2-1.7,4.8c-0.2,0.5,0,1,0.4,1.1c0.4,0.2,0.8-0.1,1-0.6c0.7-2,1.5-4,2.2-6
			C28.9,16.6,28.6,16.1,27.9,16.1z M27.9,16.1h-2.6c-0.5,0-0.9,0.3-0.9,0.8c0,0.5,0.4,0.8,0.9,0.8h1.6c0,0.1-0.1,0.2-0.1,0.3
			c-0.6,1.6-1.1,3.2-1.7,4.8c-0.2,0.5,0,1,0.4,1.1c0.4,0.2,0.8-0.1,1-0.6c0.7-2,1.5-4,2.2-6C28.9,16.6,28.6,16.1,27.9,16.1z
			 M9.8,16.1H7.2c-0.5,0-0.9,0.3-0.9,0.8c0,0.5,0.3,0.8,0.9,0.8h1.6c0,0.1-0.1,0.2-0.1,0.3c-0.6,1.6-1.2,3.2-1.7,4.8
			c-0.2,0.5,0,0.9,0.5,1.1c0.4,0.2,0.8-0.1,1-0.5c0.7-2,1.5-4.1,2.2-6.1C10.8,16.6,10.4,16.1,9.8,16.1z M9.8,16.1H7.2
			c-0.5,0-0.9,0.3-0.9,0.8c0,0.5,0.3,0.8,0.9,0.8h1.6c0,0.1-0.1,0.2-0.1,0.3c-0.6,1.6-1.2,3.2-1.7,4.8c-0.2,0.5,0,0.9,0.5,1.1
			c0.4,0.2,0.8-0.1,1-0.5c0.7-2,1.5-4.1,2.2-6.1C10.8,16.6,10.4,16.1,9.8,16.1z M27.9,16.1h-2.6c-0.5,0-0.9,0.3-0.9,0.8
			c0,0.5,0.4,0.8,0.9,0.8h1.6c0,0.1-0.1,0.2-0.1,0.3c-0.6,1.6-1.1,3.2-1.7,4.8c-0.2,0.5,0,1,0.4,1.1c0.4,0.2,0.8-0.1,1-0.6
			c0.7-2,1.5-4,2.2-6C28.9,16.6,28.6,16.1,27.9,16.1z M27.9,16.1h-2.6c-0.5,0-0.9,0.3-0.9,0.8c0,0.5,0.4,0.8,0.9,0.8h1.6
			c0,0.1-0.1,0.2-0.1,0.3c-0.6,1.6-1.1,3.2-1.7,4.8c-0.2,0.5,0,1,0.4,1.1c0.4,0.2,0.8-0.1,1-0.6c0.7-2,1.5-4,2.2-6
			C28.9,16.6,28.6,16.1,27.9,16.1z M9.8,16.1H7.2c-0.5,0-0.9,0.3-0.9,0.8c0,0.5,0.3,0.8,0.9,0.8h1.6c0,0.1-0.1,0.2-0.1,0.3
			c-0.6,1.6-1.2,3.2-1.7,4.8c-0.2,0.5,0,0.9,0.5,1.1c0.4,0.2,0.8-0.1,1-0.5c0.7-2,1.5-4.1,2.2-6.1C10.8,16.6,10.4,16.1,9.8,16.1z
			 M30.9,12.7H4.1c-0.7,0-1,0.3-1,1v12.7c0,0.7,0.3,1,1,1h26.8c0.7,0,1-0.3,1-1V13.7C31.9,12.9,31.6,12.7,30.9,12.7z M12.2,25.4
			c0,0.3-0.1,0.4-0.4,0.3c-2.3,0-4.5,0-6.8,0c-0.3,0-0.3-0.1-0.3-0.4V14.6c0-0.3,0.1-0.4,0.3-0.3c2.3,0,4.5,0,6.8,0
			c0.3,0,0.4,0.1,0.4,0.3c0,1.8,0,3.6,0,5.4C12.2,21.8,12.2,23.6,12.2,25.4z M21.3,25.4c0,0.3,0,0.4-0.4,0.4c-2.3,0-4.5,0-6.8,0
			c-0.3,0-0.4-0.1-0.4-0.4c0-3.6,0-7.2,0-10.8c0-0.3,0.1-0.3,0.4-0.3c2.3,0,4.5,0,6.8,0c0.3,0,0.4,0.1,0.3,0.4V25.4L21.3,25.4z
			 M30.3,20c0,1.8,0,3.6,0,5.4c0,0.3-0.1,0.4-0.4,0.3c-2.3,0-4.5,0-6.8,0c-0.3,0-0.4-0.1-0.4-0.4c0-3.6,0-7.2,0-10.8
			c0-0.3,0.1-0.4,0.4-0.3c2.3,0,4.5,0,6.8,0c0.3,0,0.4,0.1,0.4,0.3C30.3,16.4,30.3,18.2,30.3,20z M27.9,16.1h-2.6
			c-0.5,0-0.9,0.3-0.9,0.8c0,0.5,0.4,0.8,0.9,0.8h1.6c0,0.1-0.1,0.2-0.1,0.3c-0.6,1.6-1.1,3.2-1.7,4.8c-0.2,0.5,0,1,0.4,1.1
			c0.4,0.2,0.8-0.1,1-0.6c0.7-2,1.5-4,2.2-6C28.9,16.6,28.6,16.1,27.9,16.1z M9.8,16.1H7.2c-0.5,0-0.9,0.3-0.9,0.8
			c0,0.5,0.3,0.8,0.9,0.8h1.6c0,0.1-0.1,0.2-0.1,0.3c-0.6,1.6-1.2,3.2-1.7,4.8c-0.2,0.5,0,0.9,0.5,1.1c0.4,0.2,0.8-0.1,1-0.5
			c0.7-2,1.5-4.1,2.2-6.1C10.8,16.6,10.4,16.1,9.8,16.1z M9.8,16.1H7.2c-0.5,0-0.9,0.3-0.9,0.8c0,0.5,0.3,0.8,0.9,0.8h1.6
			c0,0.1-0.1,0.2-0.1,0.3c-0.6,1.6-1.2,3.2-1.7,4.8c-0.2,0.5,0,0.9,0.5,1.1c0.4,0.2,0.8-0.1,1-0.5c0.7-2,1.5-4.1,2.2-6.1
			C10.8,16.6,10.4,16.1,9.8,16.1z M27.9,16.1h-2.6c-0.5,0-0.9,0.3-0.9,0.8c0,0.5,0.4,0.8,0.9,0.8h1.6c0,0.1-0.1,0.2-0.1,0.3
			c-0.6,1.6-1.1,3.2-1.7,4.8c-0.2,0.5,0,1,0.4,1.1c0.4,0.2,0.8-0.1,1-0.6c0.7-2,1.5-4,2.2-6C28.9,16.6,28.6,16.1,27.9,16.1z
			 M27.9,16.1h-2.6c-0.5,0-0.9,0.3-0.9,0.8c0,0.5,0.4,0.8,0.9,0.8h1.6c0,0.1-0.1,0.2-0.1,0.3c-0.6,1.6-1.1,3.2-1.7,4.8
			c-0.2,0.5,0,1,0.4,1.1c0.4,0.2,0.8-0.1,1-0.6c0.7-2,1.5-4,2.2-6C28.9,16.6,28.6,16.1,27.9,16.1z M9.8,16.1H7.2
			c-0.5,0-0.9,0.3-0.9,0.8c0,0.5,0.3,0.8,0.9,0.8h1.6c0,0.1-0.1,0.2-0.1,0.3c-0.6,1.6-1.2,3.2-1.7,4.8c-0.2,0.5,0,0.9,0.5,1.1
			c0.4,0.2,0.8-0.1,1-0.5c0.7-2,1.5-4.1,2.2-6.1C10.8,16.6,10.4,16.1,9.8,16.1z M9.8,16.1H7.2c-0.5,0-0.9,0.3-0.9,0.8
			c0,0.5,0.3,0.8,0.9,0.8h1.6c0,0.1-0.1,0.2-0.1,0.3c-0.6,1.6-1.2,3.2-1.7,4.8c-0.2,0.5,0,0.9,0.5,1.1c0.4,0.2,0.8-0.1,1-0.5
			c0.7-2,1.5-4.1,2.2-6.1C10.8,16.6,10.4,16.1,9.8,16.1z M27.9,16.1h-2.6c-0.5,0-0.9,0.3-0.9,0.8c0,0.5,0.4,0.8,0.9,0.8h1.6
			c0,0.1-0.1,0.2-0.1,0.3c-0.6,1.6-1.1,3.2-1.7,4.8c-0.2,0.5,0,1,0.4,1.1c0.4,0.2,0.8-0.1,1-0.6c0.7-2,1.5-4,2.2-6
			C28.9,16.6,28.6,16.1,27.9,16.1z M27.9,16.1h-2.6c-0.5,0-0.9,0.3-0.9,0.8c0,0.5,0.4,0.8,0.9,0.8h1.6c0,0.1-0.1,0.2-0.1,0.3
			c-0.6,1.6-1.1,3.2-1.7,4.8c-0.2,0.5,0,1,0.4,1.1c0.4,0.2,0.8-0.1,1-0.6c0.7-2,1.5-4,2.2-6C28.9,16.6,28.6,16.1,27.9,16.1z
			 M9.8,16.1H7.2c-0.5,0-0.9,0.3-0.9,0.8c0,0.5,0.3,0.8,0.9,0.8h1.6c0,0.1-0.1,0.2-0.1,0.3c-0.6,1.6-1.2,3.2-1.7,4.8
			c-0.2,0.5,0,0.9,0.5,1.1c0.4,0.2,0.8-0.1,1-0.5c0.7-2,1.5-4.1,2.2-6.1C10.8,16.6,10.4,16.1,9.8,16.1z"/>
		<path class="st3" d="M18.3,10.3c0,0.4-0.4,0.8-0.8,0.8c-0.4,0-0.8-0.4-0.8-0.8c0-0.4,0.4-0.7,0.8-0.7C18,9.5,18.3,9.9,18.3,10.3z"
			/>
		<path d="M27,34.4c0,0.4-0.3,0.7-0.8,0.8H9.1c-0.1,0-0.2,0-0.3,0c-0.4,0-0.7-0.4-0.7-0.8c0-0.4,0.3-0.7,0.7-0.8c0.1,0,0.2,0,0.3,0
			h17.2C26.7,33.7,27,34,27,34.4z"/>
		<path class="st1" d="M10.6,17.2c-0.7,2-1.5,4.1-2.2,6.1c-0.2,0.5-0.6,0.7-1,0.5c-0.4-0.2-0.6-0.6-0.5-1.1c0.6-1.6,1.1-3.2,1.7-4.8
			c0-0.1,0.1-0.2,0.1-0.3H7.2c-0.5,0-0.9-0.3-0.9-0.8c0-0.5,0.3-0.8,0.9-0.8h2.6C10.4,16.1,10.8,16.6,10.6,17.2z"/>
		<path class="st1" d="M19.6,17.3c-0.7,2-1.4,4-2.2,6c-0.2,0.5-0.6,0.8-1,0.6c-0.4-0.2-0.6-0.6-0.4-1.1c0.6-1.6,1.1-3.1,1.7-4.7
			c0-0.1,0.1-0.2,0.1-0.3h-1.6c-0.5,0-0.9-0.3-0.9-0.8c0-0.5,0.4-0.8,0.9-0.8h2.6C19.5,16.1,19.9,16.6,19.6,17.3z"/>
		<path class="st1" d="M28.7,17.2c-0.7,2-1.4,4-2.2,6c-0.2,0.5-0.6,0.7-1,0.6c-0.5-0.2-0.6-0.6-0.4-1.1c0.6-1.6,1.1-3.2,1.7-4.8
			c0-0.1,0.1-0.2,0.1-0.3h-1.6c-0.5,0-0.9-0.3-0.9-0.8c0-0.5,0.3-0.8,0.9-0.8h2.6C28.6,16.1,28.9,16.6,28.7,17.2z"/>
		<path d="M10.6,17.2c-0.7,2-1.5,4.1-2.2,6.1c-0.2,0.5-0.6,0.7-1,0.5c-0.4-0.2-0.6-0.6-0.5-1.1c0.6-1.6,1.1-3.2,1.7-4.8
			c0-0.1,0.1-0.2,0.1-0.3H7.2c-0.5,0-0.9-0.3-0.9-0.8c0-0.5,0.3-0.8,0.9-0.8h2.6C10.4,16.1,10.8,16.6,10.6,17.2z"/>
		<path d="M19.6,17.3c-0.7,2-1.4,4-2.2,6c-0.2,0.5-0.6,0.8-1,0.6c-0.4-0.2-0.6-0.6-0.4-1.1c0.6-1.6,1.1-3.1,1.7-4.7
			c0-0.1,0.1-0.2,0.1-0.3h-1.6c-0.5,0-0.9-0.3-0.9-0.8c0-0.5,0.4-0.8,0.9-0.8h2.6C19.5,16.1,19.9,16.6,19.6,17.3z"/>
		<path d="M28.7,17.2c-0.7,2-1.4,4-2.2,6c-0.2,0.5-0.6,0.7-1,0.6c-0.5-0.2-0.6-0.6-0.4-1.1c0.6-1.6,1.1-3.2,1.7-4.8
			c0-0.1,0.1-0.2,0.1-0.3h-1.6c-0.5,0-0.9-0.3-0.9-0.8c0-0.5,0.3-0.8,0.9-0.8h2.6C28.6,16.1,28.9,16.6,28.7,17.2z"/>
	</g>
</g>
</svg>
