<?xml version="1.0" encoding="utf-8"?>
<!-- Generator: Adobe Illustrator 22.1.0, SVG Export Plug-In . SVG Version: 6.00 Build 0)  -->
<svg version="1.1" id="Layer_1" xmlns="http://www.w3.org/2000/svg" xmlns:xlink="http://www.w3.org/1999/xlink" x="0px" y="0px"
	 viewBox="0 0 40 40" style="enable-background:new 0 0 40 40;" xml:space="preserve">
<style type="text/css">
	.st0{fill:none;}
	.st1{fill:#FEFEFE;}
	.st2{fill:#CCCCCC;}
</style>
<rect x="-66.3" class="st0" width="40" height="40"/>
<g>
	<path class="st1" d="M39.8,12.6C39.8,12.5,39.8,12.5,39.8,12.6c-0.2,3.5-2.1,6.3-5.3,7.4c-0.2,0.1-0.3,0.2-0.3,0.4
		c0,1.2,0,2.3,0,3.4c0,0.3,0,0.6-0.3,0.7c-0.3,0.1-0.5,0-0.7-0.1c-1-0.7-2-1.4-3-2.2c-0.2-0.1-0.3-0.2-0.5,0c-1,0.7-2,1.5-3,2.2
		c-0.2,0.2-0.4,0.3-0.7,0.1c-0.3-0.2-0.3-0.5-0.3-0.7v-2.2c-0.1-0.1-0.2,0.1-0.3,0.1c-0.7,0.5-1.4,0.9-2.2,1.4
		c-0.1,0.1-0.2,0.2-0.2,0.4c0,0.8,0,1.6,0,2.3c0,0.2,0.1,0.3,0.3,0.3c0.8,0,1.7,0,2.5,0c0.7,0,0.9,0.2,0.9,1c0,0.5,0,0.9,0,1.4
		c0,0.4,0.1,0.4,0.4,0.4s0.7,0,1,0c1,0.1,1.7,0.9,1.7,2c0,1.1,0,2.3,0,3.4c0,0.3,0.1,0.4,0.4,0.4c0.5,0,1,0,1.4,0.3
		c0.6,0.4,1,1,1.1,1.8c0,0.4,0,0.8,0,1.2s-0.2,0.6-0.6,0.6c-0.1,0-0.2,0-0.3,0H7.7c-0.8,0-0.9-0.1-0.9-1c0-0.4,0-0.8,0.1-1.2
		c0.3-1.1,1.1-1.7,2.2-1.7c0.6,0,0.6,0,0.6-0.7c0-1,0-2,0-3c0-1.3,0.8-2.2,2-2.2c0.3,0,0.6,0,0.8,0c0.3,0,0.4,0,0.3-0.4
		c0-0.5,0-1.1,0-1.6s0.2-0.7,0.7-0.7h2.7c0.2,0,0.3,0,0.3-0.3c0-0.8,0-1.6,0-2.3c0-0.1,0-0.3-0.1-0.4c-0.8-0.5-1.6-1-2.5-1.6
		c0.1-0.1,0.2,0,0.4,0.1c0.7,0.4,1.3,0.8,1.9,1.3c0.3,0.2,0.4,0.4,0.4,0.7v2c0,0.5-0.1,0.6-0.5,0.6c-0.8,0-1.6,0-2.4,0
		c-0.6,0-0.7,0.1-0.7,0.8c0,0.5,0,1,0,1.4c0,0.3-0.1,0.5-0.5,0.5c-0.3,0-0.6,0-0.9,0c-1.1,0-1.8,0.8-1.9,2c0,1,0,2,0,3.1
		c0,0.6-0.1,0.7-0.6,0.7c-1.9,0.1-2.4,1.6-2.2,3.2c0,0.3,0.2,0.5,0.5,0.5c0.2,0,0.4,0,0.5,0H32c0.5,0,0.7-0.2,0.7-0.8v-0.4
		c0-1.2-0.6-2-1.7-2.3c-0.2,0-0.4-0.1-0.6-0.1c-0.4,0-0.5-0.1-0.5-0.6c0-1.1,0-2.1,0-3.2c0-0.4,0-0.7-0.2-1
		c-0.3-0.6-0.8-0.9-1.4-0.9c-0.4,0-0.7,0-1.1,0c-0.3,0-0.4-0.2-0.4-0.5c0-0.5,0-1,0-1.5c0-0.6-0.2-0.8-0.8-0.8c-0.8,0-1.6,0-2.3,0
		c-0.6,0-0.6-0.1-0.6-0.7s0-1.2,0-1.9c0-0.3,0.1-0.6,0.4-0.8c0.6-0.4,1.3-0.9,2-1.3c0.4-0.2,0.5-0.2,0.5,0.3s0,1,0,1.5
		c0,0.1,0,0.3,0,0.4c0.1,0.5,0.4,0.6,0.7,0.4c0.3-0.2,0.7-0.5,1-0.7c0.6-0.4,1.2-0.9,1.8-1.3c0.5-0.4,0.6-0.4,1.2,0
		c0.8,0.6,1.7,1.2,2.5,1.9c0.1,0.1,0.2,0.2,0.3,0.2c0.3,0.2,0.6,0,0.7-0.3c0-0.2,0-0.3,0-0.5c0-1,0-2,0-3c0-0.4,0.2-0.6,0.5-0.7
		c2.8-1.1,4.4-3.2,5-6.3C39.8,13.2,39.8,12.8,39.8,12.6z"/>
	<path class="st1" d="M9.4,22.2c-1,0.7-1.9,1.4-2.9,2.2c-0.2,0.2-0.4,0.3-0.7,0.2c-0.3-0.2-0.3-0.5-0.3-0.8c0-1.1,0-2.3,0-3.4
		c0-0.2-0.1-0.3-0.3-0.4c-3.3-1.2-5.3-4.2-5.3-8V7.7c0-0.7,0.2-0.9,0.8-0.9c1.9,0,3.8,0,5.7,0c0.2,0,0.4-0.1,0.6-0.2
		C7.7,6,8.5,5.9,9.4,5.9c0.2,0,0.5,0.1,0.5-0.4S9.6,5.1,9.4,5.1H7.5c-0.4,0-0.6-0.2-0.6-0.7V1.9c0-0.5,0.2-0.7,0.7-0.7h24.5
		c0.8,0,0.9,0.1,0.9,1v2.2c0,0.6-0.2,0.8-0.7,0.8c-0.6,0-1.2,0-1.8,0c-0.3,0-0.3,0.1-0.3,0.4s0,0.4,0.3,0.4c0.8,0,1.6,0,2.3,0.5
		c0.4,0.3,0.8,0.4,1.2,0.4c1.8,0,3.5,0,5.3,0c0.3,0,0.6,0.1,0.7,0.5h-0.1c0,0,0,0-0.1,0l0,0c0,0,0,0-0.1,0c-0.2-0.2-0.5-0.3-0.8-0.3
		h-5.2c-0.4,0-0.7-0.1-1-0.3c-0.6-0.4-1.2-0.6-1.9-0.6h-0.2c-0.5,0-0.6-0.1-0.6-0.5s0.1-0.5,0.7-0.5h1.4C32.9,5.2,33,5,33,4.4
		c0-0.7,0-1.4,0-2.2c0-0.5-0.1-0.6-0.6-0.7H8c-0.9,0-1,0.1-1,1.1c0,0.6,0,1.2,0,1.8c0,0.5,0.2,0.7,0.7,0.7c0.6,0,1.1,0,1.7,0
		c0.4,0,0.5,0.1,0.5,0.5S9.8,6.1,9.4,6.1C8.4,6,7.6,6.2,6.8,6.8C6.6,7,6.4,7,6.1,7H0.6C0.2,7,0,7.2,0,7.7c0,1,0,2,0,2.9
		s-0.1,1.7,0.1,2.6c0.4,3.3,2.1,5.5,4.9,6.6C5.6,20,5.6,20,5.6,20.7v2.8c0,0.1,0,0.2,0,0.4c0,0.6,0.3,0.7,0.8,0.5
		c0.7-0.5,1.4-1,2-1.5c0.3-0.2,0.6-0.4,0.9-0.6c0.3-0.2,0.5-0.2,0.8,0c0.8,0.6,1.5,1.2,2.3,1.7c0.2,0.1,0.3,0.3,0.5,0.4
		c0.5,0.3,0.8,0.2,0.8-0.5c0-0.6,0-1.2,0-1.7c0-0.2,0-0.4,0.1-0.4v2.3c0,0.3,0,0.5-0.3,0.7c-0.2,0.1-0.5,0-0.7-0.1
		c-1-0.7-2-1.4-3-2.2C9.8,22.1,9.6,22.1,9.4,22.2z"/>
	<path class="st2" d="M39.9,7.3v5.3l0,0l0,0c-0.2-0.2-0.1-0.4-0.1-0.5V7.8C39.8,7.6,39.8,7.4,39.9,7.3C39.8,7.3,39.8,7.3,39.9,7.3
		L39.9,7.3z"/>
	<path d="M25.6,12c0.2-0.2,0.3-0.5,0.2-0.7c-0.1-0.3-0.3-0.4-0.6-0.5c-1-0.2-2-0.3-3-0.5c-0.2,0-0.3-0.1-0.4-0.3c-0.4-1-0.9-2-1.3-3
		c-0.1-0.2-0.2-0.5-0.5-0.5S19.6,6.7,19.5,7c-0.4,1-0.9,2-1.3,3c-0.1,0.2-0.2,0.3-0.4,0.3c-1,0.1-2,0.3-3,0.5
		c-0.3,0-0.5,0.1-0.6,0.4c-0.1,0.3,0,0.5,0.2,0.7c0.7,0.7,1.4,1.5,2.1,2.2c0.2,0.2,0.3,0.4,0.2,0.7c-0.2,1.1-0.4,2.2-0.5,3.3
		c0,0.6,0.4,0.9,0.8,0.6c0.9-0.5,1.8-1,2.6-1.5c0.3-0.2,0.5-0.2,0.8,0c0.8,0.5,1.7,0.9,2.5,1.4c0.3,0.2,0.5,0.3,0.8,0
		c0.2-0.2,0.2-0.5,0.2-0.8c-0.2-1-0.3-2.1-0.5-3.1c0-0.3,0-0.5,0.2-0.7C24.2,13.5,24.9,12.8,25.6,12z M22.3,13.7
		c-0.2,0.2-0.3,0.5-0.2,0.8c0.1,0.9,0.3,1.7,0.4,2.7c-0.7-0.4-1.4-0.8-2.1-1.2c-0.3-0.2-0.6-0.2-0.9,0c-0.7,0.4-1.4,0.8-2.1,1.2
		c0.1-0.8,0.2-1.6,0.4-2.4c0.1-0.5,0-0.9-0.4-1.3c-0.5-0.5-1-1.2-1.5-1.7c0.7-0.1,1.4-0.2,2.2-0.3c0.4,0,0.6-0.2,0.8-0.6
		c0.3-0.8,0.7-1.5,1.1-2.4c0.4,0.8,0.7,1.6,1.1,2.4c0.2,0.4,0.4,0.5,0.8,0.6c0.8,0.1,1.5,0.2,2.2,0.3C23.4,12.5,22.9,13.1,22.3,13.7
		z M25.6,12c0.2-0.2,0.3-0.5,0.2-0.7c-0.1-0.3-0.3-0.4-0.6-0.5c-1-0.2-2-0.3-3-0.5c-0.2,0-0.3-0.1-0.4-0.3c-0.4-1-0.9-2-1.3-3
		c-0.1-0.2-0.2-0.5-0.5-0.5S19.6,6.7,19.5,7c-0.4,1-0.9,2-1.3,3c-0.1,0.2-0.2,0.3-0.4,0.3c-1,0.1-2,0.3-3,0.5
		c-0.3,0-0.5,0.1-0.6,0.4c-0.1,0.3,0,0.5,0.2,0.7c0.7,0.7,1.4,1.5,2.1,2.2c0.2,0.2,0.3,0.4,0.2,0.7c-0.2,1.1-0.4,2.2-0.5,3.3
		c0,0.6,0.4,0.9,0.8,0.6c0.9-0.5,1.8-1,2.6-1.5c0.3-0.2,0.5-0.2,0.8,0c0.8,0.5,1.7,0.9,2.5,1.4c0.3,0.2,0.5,0.3,0.8,0
		c0.2-0.2,0.2-0.5,0.2-0.8c-0.2-1-0.3-2.1-0.5-3.1c0-0.3,0-0.5,0.2-0.7C24.2,13.5,24.9,12.8,25.6,12z M22.3,13.7
		c-0.2,0.2-0.3,0.5-0.2,0.8c0.1,0.9,0.3,1.7,0.4,2.7c-0.7-0.4-1.4-0.8-2.1-1.2c-0.3-0.2-0.6-0.2-0.9,0c-0.7,0.4-1.4,0.8-2.1,1.2
		c0.1-0.8,0.2-1.6,0.4-2.4c0.1-0.5,0-0.9-0.4-1.3c-0.5-0.5-1-1.2-1.5-1.7c0.7-0.1,1.4-0.2,2.2-0.3c0.4,0,0.6-0.2,0.8-0.6
		c0.3-0.8,0.7-1.5,1.1-2.4c0.4,0.8,0.7,1.6,1.1,2.4c0.2,0.4,0.4,0.5,0.8,0.6c0.8,0.1,1.5,0.2,2.2,0.3C23.4,12.5,22.9,13.1,22.3,13.7
		z M25.6,12c0.2-0.2,0.3-0.5,0.2-0.7c-0.1-0.3-0.3-0.4-0.6-0.5c-1-0.2-2-0.3-3-0.5c-0.2,0-0.3-0.1-0.4-0.3c-0.4-1-0.9-2-1.3-3
		c-0.1-0.2-0.2-0.5-0.5-0.5S19.6,6.7,19.5,7c-0.4,1-0.9,2-1.3,3c-0.1,0.2-0.2,0.3-0.4,0.3c-1,0.1-2,0.3-3,0.5
		c-0.3,0-0.5,0.1-0.6,0.4c-0.1,0.3,0,0.5,0.2,0.7c0.7,0.7,1.4,1.5,2.1,2.2c0.2,0.2,0.3,0.4,0.2,0.7c-0.2,1.1-0.4,2.2-0.5,3.3
		c0,0.6,0.4,0.9,0.8,0.6c0.9-0.5,1.8-1,2.6-1.5c0.3-0.2,0.5-0.2,0.8,0c0.8,0.5,1.7,0.9,2.5,1.4c0.3,0.2,0.5,0.3,0.8,0
		c0.2-0.2,0.2-0.5,0.2-0.8c-0.2-1-0.3-2.1-0.5-3.1c0-0.3,0-0.5,0.2-0.7C24.2,13.5,24.9,12.8,25.6,12z M22.3,13.7
		c-0.2,0.2-0.3,0.5-0.2,0.8c0.1,0.9,0.3,1.7,0.4,2.7c-0.7-0.4-1.4-0.8-2.1-1.2c-0.3-0.2-0.6-0.2-0.9,0c-0.7,0.4-1.4,0.8-2.1,1.2
		c0.1-0.8,0.2-1.6,0.4-2.4c0.1-0.5,0-0.9-0.4-1.3c-0.5-0.5-1-1.2-1.5-1.7c0.7-0.1,1.4-0.2,2.2-0.3c0.4,0,0.6-0.2,0.8-0.6
		c0.3-0.8,0.7-1.5,1.1-2.4c0.4,0.8,0.7,1.6,1.1,2.4c0.2,0.4,0.4,0.5,0.8,0.6c0.8,0.1,1.5,0.2,2.2,0.3C23.4,12.5,22.9,13.1,22.3,13.7
		z M25.6,12c0.2-0.2,0.3-0.5,0.2-0.7c-0.1-0.3-0.3-0.4-0.6-0.5c-1-0.2-2-0.3-3-0.5c-0.2,0-0.3-0.1-0.4-0.3c-0.4-1-0.9-2-1.3-3
		c-0.1-0.2-0.2-0.5-0.5-0.5S19.6,6.7,19.5,7c-0.4,1-0.9,2-1.3,3c-0.1,0.2-0.2,0.3-0.4,0.3c-1,0.1-2,0.3-3,0.5
		c-0.3,0-0.5,0.1-0.6,0.4c-0.1,0.3,0,0.5,0.2,0.7c0.7,0.7,1.4,1.5,2.1,2.2c0.2,0.2,0.3,0.4,0.2,0.7c-0.2,1.1-0.4,2.2-0.5,3.3
		c0,0.6,0.4,0.9,0.8,0.6c0.9-0.5,1.8-1,2.6-1.5c0.3-0.2,0.5-0.2,0.8,0c0.8,0.5,1.7,0.9,2.5,1.4c0.3,0.2,0.5,0.3,0.8,0
		c0.2-0.2,0.2-0.5,0.2-0.8c-0.2-1-0.3-2.1-0.5-3.1c0-0.3,0-0.5,0.2-0.7C24.2,13.5,24.9,12.8,25.6,12z M22.3,13.7
		c-0.2,0.2-0.3,0.5-0.2,0.8c0.1,0.9,0.3,1.7,0.4,2.7c-0.7-0.4-1.4-0.8-2.1-1.2c-0.3-0.2-0.6-0.2-0.9,0c-0.7,0.4-1.4,0.8-2.1,1.2
		c0.1-0.8,0.2-1.6,0.4-2.4c0.1-0.5,0-0.9-0.4-1.3c-0.5-0.5-1-1.2-1.5-1.7c0.7-0.1,1.4-0.2,2.2-0.3c0.4,0,0.6-0.2,0.8-0.6
		c0.3-0.8,0.7-1.5,1.1-2.4c0.4,0.8,0.7,1.6,1.1,2.4c0.2,0.4,0.4,0.5,0.8,0.6c0.8,0.1,1.5,0.2,2.2,0.3C23.4,12.5,22.9,13.1,22.3,13.7
		z M25.6,12c0.2-0.2,0.3-0.5,0.2-0.7c-0.1-0.3-0.3-0.4-0.6-0.5c-1-0.2-2-0.3-3-0.5c-0.2,0-0.3-0.1-0.4-0.3c-0.4-1-0.9-2-1.3-3
		c-0.1-0.2-0.2-0.5-0.5-0.5S19.6,6.7,19.5,7c-0.4,1-0.9,2-1.3,3c-0.1,0.2-0.2,0.3-0.4,0.3c-1,0.1-2,0.3-3,0.5
		c-0.3,0-0.5,0.1-0.6,0.4c-0.1,0.3,0,0.5,0.2,0.7c0.7,0.7,1.4,1.5,2.1,2.2c0.2,0.2,0.3,0.4,0.2,0.7c-0.2,1.1-0.4,2.2-0.5,3.3
		c0,0.6,0.4,0.9,0.8,0.6c0.9-0.5,1.8-1,2.6-1.5c0.3-0.2,0.5-0.2,0.8,0c0.8,0.5,1.7,0.9,2.5,1.4c0.3,0.2,0.5,0.3,0.8,0
		c0.2-0.2,0.2-0.5,0.2-0.8c-0.2-1-0.3-2.1-0.5-3.1c0-0.3,0-0.5,0.2-0.7C24.2,13.5,24.9,12.8,25.6,12z M22.3,13.7
		c-0.2,0.2-0.3,0.5-0.2,0.8c0.1,0.9,0.3,1.7,0.4,2.7c-0.7-0.4-1.4-0.8-2.1-1.2c-0.3-0.2-0.6-0.2-0.9,0c-0.7,0.4-1.4,0.8-2.1,1.2
		c0.1-0.8,0.2-1.6,0.4-2.4c0.1-0.5,0-0.9-0.4-1.3c-0.5-0.5-1-1.2-1.5-1.7c0.7-0.1,1.4-0.2,2.2-0.3c0.4,0,0.6-0.2,0.8-0.6
		c0.3-0.8,0.7-1.5,1.1-2.4c0.4,0.8,0.7,1.6,1.1,2.4c0.2,0.4,0.4,0.5,0.8,0.6c0.8,0.1,1.5,0.2,2.2,0.3C23.4,12.5,22.9,13.1,22.3,13.7
		z M25.6,12c0.2-0.2,0.3-0.5,0.2-0.7c-0.1-0.3-0.3-0.4-0.6-0.5c-1-0.2-2-0.3-3-0.5c-0.2,0-0.3-0.1-0.4-0.3c-0.4-1-0.9-2-1.3-3
		c-0.1-0.2-0.2-0.5-0.5-0.5S19.6,6.7,19.5,7c-0.4,1-0.9,2-1.3,3c-0.1,0.2-0.2,0.3-0.4,0.3c-1,0.1-2,0.3-3,0.5
		c-0.3,0-0.5,0.1-0.6,0.4c-0.1,0.3,0,0.5,0.2,0.7c0.7,0.7,1.4,1.5,2.1,2.2c0.2,0.2,0.3,0.4,0.2,0.7c-0.2,1.1-0.4,2.2-0.5,3.3
		c0,0.6,0.4,0.9,0.8,0.6c0.9-0.5,1.8-1,2.6-1.5c0.3-0.2,0.5-0.2,0.8,0c0.8,0.5,1.7,0.9,2.5,1.4c0.3,0.2,0.5,0.3,0.8,0
		c0.2-0.2,0.2-0.5,0.2-0.8c-0.2-1-0.3-2.1-0.5-3.1c0-0.3,0-0.5,0.2-0.7C24.2,13.5,24.9,12.8,25.6,12z M22.3,13.7
		c-0.2,0.2-0.3,0.5-0.2,0.8c0.1,0.9,0.3,1.7,0.4,2.7c-0.7-0.4-1.4-0.8-2.1-1.2c-0.3-0.2-0.6-0.2-0.9,0c-0.7,0.4-1.4,0.8-2.1,1.2
		c0.1-0.8,0.2-1.6,0.4-2.4c0.1-0.5,0-0.9-0.4-1.3c-0.5-0.5-1-1.2-1.5-1.7c0.7-0.1,1.4-0.2,2.2-0.3c0.4,0,0.6-0.2,0.8-0.6
		c0.3-0.8,0.7-1.5,1.1-2.4c0.4,0.8,0.7,1.6,1.1,2.4c0.2,0.4,0.4,0.5,0.8,0.6c0.8,0.1,1.5,0.2,2.2,0.3C23.4,12.5,22.9,13.1,22.3,13.7
		z M25.6,12c0.2-0.2,0.3-0.5,0.2-0.7c-0.1-0.3-0.3-0.4-0.6-0.5c-1-0.2-2-0.3-3-0.5c-0.2,0-0.3-0.1-0.4-0.3c-0.4-1-0.9-2-1.3-3
		c-0.1-0.2-0.2-0.5-0.5-0.5S19.6,6.7,19.5,7c-0.4,1-0.9,2-1.3,3c-0.1,0.2-0.2,0.3-0.4,0.3c-1,0.1-2,0.3-3,0.5
		c-0.3,0-0.5,0.1-0.6,0.4c-0.1,0.3,0,0.5,0.2,0.7c0.7,0.7,1.4,1.5,2.1,2.2c0.2,0.2,0.3,0.4,0.2,0.7c-0.2,1.1-0.4,2.2-0.5,3.3
		c0,0.6,0.4,0.9,0.8,0.6c0.9-0.5,1.8-1,2.6-1.5c0.3-0.2,0.5-0.2,0.8,0c0.8,0.5,1.7,0.9,2.5,1.4c0.3,0.2,0.5,0.3,0.8,0
		c0.2-0.2,0.2-0.5,0.2-0.8c-0.2-1-0.3-2.1-0.5-3.1c0-0.3,0-0.5,0.2-0.7C24.2,13.5,24.9,12.8,25.6,12z M22.3,13.7
		c-0.2,0.2-0.3,0.5-0.2,0.8c0.1,0.9,0.3,1.7,0.4,2.7c-0.7-0.4-1.4-0.8-2.1-1.2c-0.3-0.2-0.6-0.2-0.9,0c-0.7,0.4-1.4,0.8-2.1,1.2
		c0.1-0.8,0.2-1.6,0.4-2.4c0.1-0.5,0-0.9-0.4-1.3c-0.5-0.5-1-1.2-1.5-1.7c0.7-0.1,1.4-0.2,2.2-0.3c0.4,0,0.6-0.2,0.8-0.6
		c0.3-0.8,0.7-1.5,1.1-2.4c0.4,0.8,0.7,1.6,1.1,2.4c0.2,0.4,0.4,0.5,0.8,0.6c0.8,0.1,1.5,0.2,2.2,0.3C23.4,12.5,22.9,13.1,22.3,13.7
		z M27.1,31.8c-0.1,0-0.3,0-0.4,0H13.1c-0.1,0-0.3,0-0.4,0c-0.2,0-0.4,0.2-0.4,0.5c0,0.3,0,0.5,0.3,0.6c0.1,0.1,0.3,0.1,0.5,0.1
		h13.8c0.1,0,0.2,0,0.3,0c0.3-0.1,0.5-0.3,0.5-0.6C27.6,32,27.4,31.8,27.1,31.8z M27.1,31.8c-0.1,0-0.3,0-0.4,0H13.1
		c-0.1,0-0.3,0-0.4,0c-0.2,0-0.4,0.2-0.4,0.5c0,0.3,0,0.5,0.3,0.6c0.1,0.1,0.3,0.1,0.5,0.1h13.8c0.1,0,0.2,0,0.3,0
		c0.3-0.1,0.5-0.3,0.5-0.6C27.6,32,27.4,31.8,27.1,31.8z M25.6,12c0.2-0.2,0.3-0.5,0.2-0.7c-0.1-0.3-0.3-0.4-0.6-0.5
		c-1-0.2-2-0.3-3-0.5c-0.2,0-0.3-0.1-0.4-0.3c-0.4-1-0.9-2-1.3-3c-0.1-0.2-0.2-0.5-0.5-0.5S19.6,6.7,19.5,7c-0.4,1-0.9,2-1.3,3
		c-0.1,0.2-0.2,0.3-0.4,0.3c-1,0.1-2,0.3-3,0.5c-0.3,0-0.5,0.1-0.6,0.4c-0.1,0.3,0,0.5,0.2,0.7c0.7,0.7,1.4,1.5,2.1,2.2
		c0.2,0.2,0.3,0.4,0.2,0.7c-0.2,1.1-0.4,2.2-0.5,3.3c0,0.6,0.4,0.9,0.8,0.6c0.9-0.5,1.8-1,2.6-1.5c0.3-0.2,0.5-0.2,0.8,0
		c0.8,0.5,1.7,0.9,2.5,1.4c0.3,0.2,0.5,0.3,0.8,0c0.2-0.2,0.2-0.5,0.2-0.8c-0.2-1-0.3-2.1-0.5-3.1c0-0.3,0-0.5,0.2-0.7
		C24.2,13.5,24.9,12.8,25.6,12z M22.3,13.7c-0.2,0.2-0.3,0.5-0.2,0.8c0.1,0.9,0.3,1.7,0.4,2.7c-0.7-0.4-1.4-0.8-2.1-1.2
		c-0.3-0.2-0.6-0.2-0.9,0c-0.7,0.4-1.4,0.8-2.1,1.2c0.1-0.8,0.2-1.6,0.4-2.4c0.1-0.5,0-0.9-0.4-1.3c-0.5-0.5-1-1.2-1.5-1.7
		c0.7-0.1,1.4-0.2,2.2-0.3c0.4,0,0.6-0.2,0.8-0.6c0.3-0.8,0.7-1.5,1.1-2.4c0.4,0.8,0.7,1.6,1.1,2.4c0.2,0.4,0.4,0.5,0.8,0.6
		c0.8,0.1,1.5,0.2,2.2,0.3C23.4,12.5,22.9,13.1,22.3,13.7z M39.3,6.8c-1.8,0-3.5,0-5.3,0c-0.5,0-0.8-0.1-1.2-0.4
		c-0.7-0.5-1.5-0.6-2.3-0.5c-0.3,0-0.3-0.1-0.3-0.4s0-0.4,0.3-0.4c0.6,0,1.2,0,1.8,0c0.6,0,0.7-0.2,0.7-0.8V2.2c0-0.9-0.1-1-0.9-1
		H7.6c-0.5,0-0.7,0.2-0.7,0.7v2.5c0,0.5,0.2,0.7,0.7,0.7h1.7c0.2,0,0.5-0.1,0.5,0.4S9.5,5.9,9.3,5.9c-0.9,0-1.7,0.2-2.4,0.7
		C6.7,6.8,6.6,6.8,6.3,6.8c-1.9,0-3.8,0-5.7,0C0.1,6.8-0.1,7-0.1,7.7V12c0,3.8,2,6.8,5.3,8c0.2,0.1,0.3,0.2,0.3,0.4
		c0,1.2,0,2.3,0,3.4c0,0.3,0,0.6,0.3,0.8c0.3,0.2,0.5,0,0.7-0.2c1-0.7,2-1.4,2.9-2.2c0.2-0.2,0.3-0.2,0.5,0c1,0.7,2,1.5,3,2.2
		c0.2,0.2,0.4,0.3,0.7,0.1c0.3-0.1,0.3-0.3,0.3-0.6v-2.3l0,0c0.9,0.6,1.7,1.1,2.5,1.6c0.1,0.1,0.1,0.2,0.1,0.4c0,0.8,0,1.6,0,2.3
		c0,0.3-0.1,0.3-0.3,0.3h-2.7c-0.5,0-0.7,0.2-0.7,0.7s0,1.1,0,1.6c0,0.3-0.1,0.4-0.3,0.4c-0.3,0-0.6,0-0.8,0c-1.2,0-2,0.8-2,2.2
		c0,1,0,2,0,3c0,0.7,0,0.7-0.6,0.7c-1.1,0-1.9,0.7-2.2,1.7c-0.1,0.4-0.1,0.8-0.1,1.2c0,0.9,0.1,1,0.9,1H32c0.1,0,0.2,0,0.3,0
		c0.4,0,0.6-0.2,0.6-0.6s0-0.8,0-1.2c0-0.8-0.4-1.4-1.1-1.8c-0.4-0.3-0.9-0.4-1.4-0.3c-0.3,0-0.4-0.1-0.4-0.4c0-1.2,0-2.3,0-3.4
		s-0.7-1.9-1.7-2c-0.3,0-0.7,0-1,0s-0.4,0-0.4-0.4c0-0.5,0-0.9,0-1.4c0-0.8-0.2-1-0.9-1c-0.8,0-1.7,0-2.5,0c-0.2,0-0.3,0-0.3-0.3
		c0-0.8,0-1.6,0-2.3c0-0.2,0.1-0.3,0.2-0.4c0.7-0.5,1.4-0.9,2.2-1.4c0.1,0,0.1-0.2,0.3-0.1V24c0,0.3,0,0.6,0.3,0.7
		c0.3,0.2,0.5,0,0.7-0.1c1-0.7,2-1.4,3-2.2c0.2-0.2,0.3-0.1,0.5,0c1,0.7,2,1.5,3,2.2c0.2,0.2,0.4,0.3,0.7,0.1
		c0.3-0.2,0.3-0.4,0.3-0.7c0-1.2,0-2.3,0-3.4c0-0.2,0-0.3,0.3-0.4c3.1-1.1,5.1-3.8,5.3-7.4V7.3l0,0C39.8,6.9,39.5,6.8,39.3,6.8z
		 M34.3,18.5c-0.1-0.8,0.1-1.4,0.8-1.8c1.5-0.9,2.2-2.5,2.2-4.4c0-0.7,0-1.3,0-2c0-0.6-0.2-0.8-0.7-0.8c-0.6,0-1.3,0-1.9,0
		c-0.3,0-0.4,0-0.4-0.4S34.1,8.4,34,8c1.5,0,3,0,4.5,0c0.2,0,0.3,0.1,0.3,0.3c0,1.2,0,2.5,0,3.7c0.1,2.2-0.7,4-2.2,5.4
		c-0.6,0.6-1.3,1-2,1.3C34.4,18.8,34.3,18.7,34.3,18.5z M34.3,15.4v-2.2c0-0.7,0-1.5,0-2.2c0-0.3,0.1-0.4,0.3-0.3c0.5,0,0.9,0,1.4,0
		c0.1,0,0.3,0,0.3,0.2c0,0.8,0,1.5-0.1,2.3c-0.2,1-0.8,1.8-1.5,2.4c-0.1,0.1-0.2,0.2-0.3,0.1C34.3,15.7,34.3,15.5,34.3,15.4z
		 M12.9,22.9c-0.9-0.7-1.8-1.3-2.7-1.9c-0.3-0.3-0.6-0.3-1,0c-0.8,0.6-1.5,1.2-2.3,1.7C6.8,22.9,6.7,23,6.5,23v-0.4
		c0-4.2,0-8.4,0-12.7c0-1.6,1-3,3-2.7c0.3,0,0.2,0.2,0.2,0.4c0,2.2,0,4.4,0,6.6c0,1.5,0.3,2.9,1,4.2c0.5,0.9,1.1,1.7,1.9,2.4
		c0.2,0.2,0.3,0.3,0.3,0.6C12.9,21.7,12.9,22.3,12.9,22.9z M8.3,4C8,4,7.9,3.9,7.9,3.5c0-0.4-0.1-0.9,0.1-1.1
		c0.2-0.2,0.6-0.1,0.9-0.1c7.5,0,15,0,22.5,0c0.3,0,0.5,0,0.4,0.5c0,0.3,0.1,0.8-0.1,1s-0.6,0.1-0.9,0.1c-3.7,0-7.3,0-11,0
		C16,4,12.2,3.9,8.3,4z M30.1,14c0-2.2,0-4.3,0-6.5c0-0.3,0.1-0.5,0.4-0.4c0.4,0,0.8,0,1.2,0.1c0.9,0.3,1.6,1.3,1.6,2.4
		c0,4.4,0,8.8,0,13.3c-0.9-0.7-1.7-1.3-2.5-1.9c-0.6-0.4-0.7-0.4-1.2,0c-0.8,0.6-1.6,1.2-2.5,1.9v-2c0-0.1,0.1-0.2,0.2-0.2
		C29.1,19,30.1,16.8,30.1,14z M5.7,8.3C5.6,8.5,5.6,8.7,5.6,8.9C5.5,9.6,5.5,9.6,4.8,9.6c-0.6,0-1.1,0-1.7,0c-0.5,0-0.7,0.2-0.7,0.7
		c0,1-0.1,2.1,0.1,3.1c0.3,1.7,1.2,2.9,2.7,3.7c0.2,0.1,0.3,0.2,0.3,0.5c0,0.4,0,0.8,0,1.3c-2.6-0.9-4.4-3.5-4.4-6.6
		c0-1.3,0-2.6,0-3.9c0-0.3,0.1-0.3,0.3-0.3c1.4,0,2.8,0,4.2,0C5.7,8,5.8,8,5.7,8.3z M5.5,15.8c-1.2-0.8-1.8-1.9-1.9-3.3
		c0-0.5,0-1,0-1.5c0-0.2,0.1-0.3,0.2-0.3c0.5,0,1,0,1.5,0c0.2,0,0.2,0,0.2,0.2C5.5,10.9,5.5,15.8,5.5,15.8z M10.8,14.3
		c0-2.9,0-5.9,0-8.8c0-0.3,0.1-0.3,0.4-0.3h8.7c2.9,0,5.8,0,8.7,0c0.3,0,0.4,0.1,0.4,0.5c0,2.7,0,5.5,0,8.2c0,2.9-1.1,5.1-3.4,6.6
		c-1,0.7-2,1.3-3.1,2C22.3,22.7,22,23,22,23.4c0,0.9,0,1.7,0,2.6c0,0.3-0.1,0.4-0.4,0.4c-1.2,0-2.5,0-3.7,0c-0.2,0-0.3-0.1-0.3-0.4
		c0-0.9,0-1.8,0-2.7c0-0.4-0.1-0.6-0.4-0.8c-1.1-0.7-2.2-1.4-3.4-2.2C11.9,18.8,10.8,16.9,10.8,14.3z M25.8,27.7
		c0,0.4,0.2,0.9-0.1,1.1c-0.2,0.2-0.7,0.1-1,0.1H14.4c-0.3,0-0.4-0.1-0.4-0.4c0-0.4-0.1-0.8,0.1-1c0.2-0.2,0.6-0.1,1-0.1
		c1.6,0,3.3,0,5,0c1.9,0,3.7,0,5.6,0C25.8,27.4,25.9,27.4,25.8,27.7z M29,31c0,1.1,0,2.2,0,3.3c0,0.3-0.1,0.4-0.4,0.4
		c-2.9,0-5.8,0-8.8,0c-2.9,0-5.8,0-8.7,0c-0.3,0-0.4-0.1-0.4-0.4c0-1.1,0-2.1,0-3.2c0-0.7,0.2-1,0.9-1h16.5C28.7,30.1,29,30.3,29,31
		z M31.9,37.2c0,0.3-0.1,0.3-0.3,0.3c-2.3,0-4.7,0-7,0h-4.7c-3.8,0-7.7,0-11.5,0C8,37.4,8,37.3,8,36.9c0.1-0.6,0.4-1,1-1
		c0.1,0,0.2,0,0.4,0h21.3C31.4,35.9,31.8,36.3,31.9,37.2z M27.1,31.8c-0.1,0-0.3,0-0.4,0H13.1c-0.1,0-0.3,0-0.4,0
		c-0.2,0-0.4,0.2-0.4,0.5c0,0.3,0,0.5,0.3,0.6c0.1,0.1,0.3,0.1,0.5,0.1h13.8c0.1,0,0.2,0,0.3,0c0.3-0.1,0.5-0.3,0.5-0.6
		C27.6,32,27.4,31.8,27.1,31.8z M16.4,14.2c0.2,0.2,0.3,0.4,0.2,0.7c-0.2,1.1-0.4,2.2-0.5,3.3c0,0.6,0.4,0.9,0.8,0.6
		c0.9-0.5,1.8-1,2.6-1.5c0.3-0.2,0.5-0.2,0.8,0c0.8,0.5,1.7,0.9,2.5,1.4c0.3,0.2,0.5,0.3,0.8,0c0.2-0.2,0.2-0.5,0.2-0.8
		c-0.2-1-0.3-2.1-0.5-3.1c0-0.3,0-0.5,0.2-0.7c0.7-0.7,1.4-1.5,2.1-2.2c0.2-0.2,0.3-0.5,0.2-0.7c-0.1-0.3-0.3-0.4-0.6-0.5
		c-1-0.2-2-0.3-3-0.5c-0.2,0-0.3-0.1-0.4-0.3c-0.4-1-0.9-2-1.3-3c-0.1-0.2-0.2-0.5-0.5-0.5s-0.5,0.2-0.6,0.5c-0.4,1-0.9,2-1.3,3
		c-0.1,0.2-0.2,0.3-0.4,0.3c-1,0.1-2,0.3-3,0.5c-0.3,0-0.5,0.1-0.6,0.4c-0.1,0.3,0,0.5,0.2,0.7C15,12.7,15.7,13.5,16.4,14.2z
		 M18,11.5c0.4,0,0.6-0.2,0.8-0.6c0.3-0.8,0.7-1.5,1.1-2.4c0.4,0.8,0.7,1.6,1.1,2.4c0.2,0.4,0.4,0.5,0.8,0.6
		c0.8,0.1,1.5,0.2,2.2,0.3c-0.5,0.6-1.1,1.3-1.6,1.9c-0.2,0.2-0.3,0.5-0.2,0.8c0.1,0.9,0.3,1.7,0.4,2.7c-0.7-0.4-1.4-0.8-2.1-1.2
		c-0.3-0.2-0.6-0.2-0.9,0c-0.7,0.4-1.4,0.8-2.1,1.2c0.1-0.8,0.2-1.6,0.4-2.4c0.1-0.5,0-0.9-0.4-1.3c-0.5-0.5-1-1.2-1.5-1.7
		C16.5,11.7,17.3,11.6,18,11.5z M25.6,12c0.2-0.2,0.3-0.5,0.2-0.7c-0.1-0.3-0.3-0.4-0.6-0.5c-1-0.2-2-0.3-3-0.5
		c-0.2,0-0.3-0.1-0.4-0.3c-0.4-1-0.9-2-1.3-3c-0.1-0.2-0.2-0.5-0.5-0.5S19.6,6.7,19.5,7c-0.4,1-0.9,2-1.3,3
		c-0.1,0.2-0.2,0.3-0.4,0.3c-1,0.1-2,0.3-3,0.5c-0.3,0-0.5,0.1-0.6,0.4c-0.1,0.3,0,0.5,0.2,0.7c0.7,0.7,1.4,1.5,2.1,2.2
		c0.2,0.2,0.3,0.4,0.2,0.7c-0.2,1.1-0.4,2.2-0.5,3.3c0,0.6,0.4,0.9,0.8,0.6c0.9-0.5,1.8-1,2.6-1.5c0.3-0.2,0.5-0.2,0.8,0
		c0.8,0.5,1.7,0.9,2.5,1.4c0.3,0.2,0.5,0.3,0.8,0c0.2-0.2,0.2-0.5,0.2-0.8c-0.2-1-0.3-2.1-0.5-3.1c0-0.3,0-0.5,0.2-0.7
		C24.2,13.5,24.9,12.8,25.6,12z M22.3,13.7c-0.2,0.2-0.3,0.5-0.2,0.8c0.1,0.9,0.3,1.7,0.4,2.7c-0.7-0.4-1.4-0.8-2.1-1.2
		c-0.3-0.2-0.6-0.2-0.9,0c-0.7,0.4-1.4,0.8-2.1,1.2c0.1-0.8,0.2-1.6,0.4-2.4c0.1-0.5,0-0.9-0.4-1.3c-0.5-0.5-1-1.2-1.5-1.7
		c0.7-0.1,1.4-0.2,2.2-0.3c0.4,0,0.6-0.2,0.8-0.6c0.3-0.8,0.7-1.5,1.1-2.4c0.4,0.8,0.7,1.6,1.1,2.4c0.2,0.4,0.4,0.5,0.8,0.6
		c0.8,0.1,1.5,0.2,2.2,0.3C23.4,12.5,22.9,13.1,22.3,13.7z M27.1,31.8c-0.1,0-0.3,0-0.4,0H13.1c-0.1,0-0.3,0-0.4,0
		c-0.2,0-0.4,0.2-0.4,0.5c0,0.3,0,0.5,0.3,0.6c0.1,0.1,0.3,0.1,0.5,0.1h13.8c0.1,0,0.2,0,0.3,0c0.3-0.1,0.5-0.3,0.5-0.6
		C27.6,32,27.4,31.8,27.1,31.8z M27.1,31.8c-0.1,0-0.3,0-0.4,0H13.1c-0.1,0-0.3,0-0.4,0c-0.2,0-0.4,0.2-0.4,0.5c0,0.3,0,0.5,0.3,0.6
		c0.1,0.1,0.3,0.1,0.5,0.1h13.8c0.1,0,0.2,0,0.3,0c0.3-0.1,0.5-0.3,0.5-0.6C27.6,32,27.4,31.8,27.1,31.8z M25.6,12
		c0.2-0.2,0.3-0.5,0.2-0.7c-0.1-0.3-0.3-0.4-0.6-0.5c-1-0.2-2-0.3-3-0.5c-0.2,0-0.3-0.1-0.4-0.3c-0.4-1-0.9-2-1.3-3
		c-0.1-0.2-0.2-0.5-0.5-0.5S19.6,6.7,19.5,7c-0.4,1-0.9,2-1.3,3c-0.1,0.2-0.2,0.3-0.4,0.3c-1,0.1-2,0.3-3,0.5
		c-0.3,0-0.5,0.1-0.6,0.4c-0.1,0.3,0,0.5,0.2,0.7c0.7,0.7,1.4,1.5,2.1,2.2c0.2,0.2,0.3,0.4,0.2,0.7c-0.2,1.1-0.4,2.2-0.5,3.3
		c0,0.6,0.4,0.9,0.8,0.6c0.9-0.5,1.8-1,2.6-1.5c0.3-0.2,0.5-0.2,0.8,0c0.8,0.5,1.7,0.9,2.5,1.4c0.3,0.2,0.5,0.3,0.8,0
		c0.2-0.2,0.2-0.5,0.2-0.8c-0.2-1-0.3-2.1-0.5-3.1c0-0.3,0-0.5,0.2-0.7C24.2,13.5,24.9,12.8,25.6,12z M22.3,13.7
		c-0.2,0.2-0.3,0.5-0.2,0.8c0.1,0.9,0.3,1.7,0.4,2.7c-0.7-0.4-1.4-0.8-2.1-1.2c-0.3-0.2-0.6-0.2-0.9,0c-0.7,0.4-1.4,0.8-2.1,1.2
		c0.1-0.8,0.2-1.6,0.4-2.4c0.1-0.5,0-0.9-0.4-1.3c-0.5-0.5-1-1.2-1.5-1.7c0.7-0.1,1.4-0.2,2.2-0.3c0.4,0,0.6-0.2,0.8-0.6
		c0.3-0.8,0.7-1.5,1.1-2.4c0.4,0.8,0.7,1.6,1.1,2.4c0.2,0.4,0.4,0.5,0.8,0.6c0.8,0.1,1.5,0.2,2.2,0.3C23.4,12.5,22.9,13.1,22.3,13.7
		z M25.6,12c0.2-0.2,0.3-0.5,0.2-0.7c-0.1-0.3-0.3-0.4-0.6-0.5c-1-0.2-2-0.3-3-0.5c-0.2,0-0.3-0.1-0.4-0.3c-0.4-1-0.9-2-1.3-3
		c-0.1-0.2-0.2-0.5-0.5-0.5S19.6,6.7,19.5,7c-0.4,1-0.9,2-1.3,3c-0.1,0.2-0.2,0.3-0.4,0.3c-1,0.1-2,0.3-3,0.5
		c-0.3,0-0.5,0.1-0.6,0.4c-0.1,0.3,0,0.5,0.2,0.7c0.7,0.7,1.4,1.5,2.1,2.2c0.2,0.2,0.3,0.4,0.2,0.7c-0.2,1.1-0.4,2.2-0.5,3.3
		c0,0.6,0.4,0.9,0.8,0.6c0.9-0.5,1.8-1,2.6-1.5c0.3-0.2,0.5-0.2,0.8,0c0.8,0.5,1.7,0.9,2.5,1.4c0.3,0.2,0.5,0.3,0.8,0
		c0.2-0.2,0.2-0.5,0.2-0.8c-0.2-1-0.3-2.1-0.5-3.1c0-0.3,0-0.5,0.2-0.7C24.2,13.5,24.9,12.8,25.6,12z M22.3,13.7
		c-0.2,0.2-0.3,0.5-0.2,0.8c0.1,0.9,0.3,1.7,0.4,2.7c-0.7-0.4-1.4-0.8-2.1-1.2c-0.3-0.2-0.6-0.2-0.9,0c-0.7,0.4-1.4,0.8-2.1,1.2
		c0.1-0.8,0.2-1.6,0.4-2.4c0.1-0.5,0-0.9-0.4-1.3c-0.5-0.5-1-1.2-1.5-1.7c0.7-0.1,1.4-0.2,2.2-0.3c0.4,0,0.6-0.2,0.8-0.6
		c0.3-0.8,0.7-1.5,1.1-2.4c0.4,0.8,0.7,1.6,1.1,2.4c0.2,0.4,0.4,0.5,0.8,0.6c0.8,0.1,1.5,0.2,2.2,0.3C23.4,12.5,22.9,13.1,22.3,13.7
		z M25.6,12c0.2-0.2,0.3-0.5,0.2-0.7c-0.1-0.3-0.3-0.4-0.6-0.5c-1-0.2-2-0.3-3-0.5c-0.2,0-0.3-0.1-0.4-0.3c-0.4-1-0.9-2-1.3-3
		c-0.1-0.2-0.2-0.5-0.5-0.5S19.6,6.7,19.5,7c-0.4,1-0.9,2-1.3,3c-0.1,0.2-0.2,0.3-0.4,0.3c-1,0.1-2,0.3-3,0.5
		c-0.3,0-0.5,0.1-0.6,0.4c-0.1,0.3,0,0.5,0.2,0.7c0.7,0.7,1.4,1.5,2.1,2.2c0.2,0.2,0.3,0.4,0.2,0.7c-0.2,1.1-0.4,2.2-0.5,3.3
		c0,0.6,0.4,0.9,0.8,0.6c0.9-0.5,1.8-1,2.6-1.5c0.3-0.2,0.5-0.2,0.8,0c0.8,0.5,1.7,0.9,2.5,1.4c0.3,0.2,0.5,0.3,0.8,0
		c0.2-0.2,0.2-0.5,0.2-0.8c-0.2-1-0.3-2.1-0.5-3.1c0-0.3,0-0.5,0.2-0.7C24.2,13.5,24.9,12.8,25.6,12z M22.3,13.7
		c-0.2,0.2-0.3,0.5-0.2,0.8c0.1,0.9,0.3,1.7,0.4,2.7c-0.7-0.4-1.4-0.8-2.1-1.2c-0.3-0.2-0.6-0.2-0.9,0c-0.7,0.4-1.4,0.8-2.1,1.2
		c0.1-0.8,0.2-1.6,0.4-2.4c0.1-0.5,0-0.9-0.4-1.3c-0.5-0.5-1-1.2-1.5-1.7c0.7-0.1,1.4-0.2,2.2-0.3c0.4,0,0.6-0.2,0.8-0.6
		c0.3-0.8,0.7-1.5,1.1-2.4c0.4,0.8,0.7,1.6,1.1,2.4c0.2,0.4,0.4,0.5,0.8,0.6c0.8,0.1,1.5,0.2,2.2,0.3C23.4,12.5,22.9,13.1,22.3,13.7
		z M25.6,12c0.2-0.2,0.3-0.5,0.2-0.7c-0.1-0.3-0.3-0.4-0.6-0.5c-1-0.2-2-0.3-3-0.5c-0.2,0-0.3-0.1-0.4-0.3c-0.4-1-0.9-2-1.3-3
		c-0.1-0.2-0.2-0.5-0.5-0.5S19.6,6.7,19.5,7c-0.4,1-0.9,2-1.3,3c-0.1,0.2-0.2,0.3-0.4,0.3c-1,0.1-2,0.3-3,0.5
		c-0.3,0-0.5,0.1-0.6,0.4c-0.1,0.3,0,0.5,0.2,0.7c0.7,0.7,1.4,1.5,2.1,2.2c0.2,0.2,0.3,0.4,0.2,0.7c-0.2,1.1-0.4,2.2-0.5,3.3
		c0,0.6,0.4,0.9,0.8,0.6c0.9-0.5,1.8-1,2.6-1.5c0.3-0.2,0.5-0.2,0.8,0c0.8,0.5,1.7,0.9,2.5,1.4c0.3,0.2,0.5,0.3,0.8,0
		c0.2-0.2,0.2-0.5,0.2-0.8c-0.2-1-0.3-2.1-0.5-3.1c0-0.3,0-0.5,0.2-0.7C24.2,13.5,24.9,12.8,25.6,12z M22.3,13.7
		c-0.2,0.2-0.3,0.5-0.2,0.8c0.1,0.9,0.3,1.7,0.4,2.7c-0.7-0.4-1.4-0.8-2.1-1.2c-0.3-0.2-0.6-0.2-0.9,0c-0.7,0.4-1.4,0.8-2.1,1.2
		c0.1-0.8,0.2-1.6,0.4-2.4c0.1-0.5,0-0.9-0.4-1.3c-0.5-0.5-1-1.2-1.5-1.7c0.7-0.1,1.4-0.2,2.2-0.3c0.4,0,0.6-0.2,0.8-0.6
		c0.3-0.8,0.7-1.5,1.1-2.4c0.4,0.8,0.7,1.6,1.1,2.4c0.2,0.4,0.4,0.5,0.8,0.6c0.8,0.1,1.5,0.2,2.2,0.3C23.4,12.5,22.9,13.1,22.3,13.7
		z M25.6,12c0.2-0.2,0.3-0.5,0.2-0.7c-0.1-0.3-0.3-0.4-0.6-0.5c-1-0.2-2-0.3-3-0.5c-0.2,0-0.3-0.1-0.4-0.3c-0.4-1-0.9-2-1.3-3
		c-0.1-0.2-0.2-0.5-0.5-0.5S19.6,6.7,19.5,7c-0.4,1-0.9,2-1.3,3c-0.1,0.2-0.2,0.3-0.4,0.3c-1,0.1-2,0.3-3,0.5
		c-0.3,0-0.5,0.1-0.6,0.4c-0.1,0.3,0,0.5,0.2,0.7c0.7,0.7,1.4,1.5,2.1,2.2c0.2,0.2,0.3,0.4,0.2,0.7c-0.2,1.1-0.4,2.2-0.5,3.3
		c0,0.6,0.4,0.9,0.8,0.6c0.9-0.5,1.8-1,2.6-1.5c0.3-0.2,0.5-0.2,0.8,0c0.8,0.5,1.7,0.9,2.5,1.4c0.3,0.2,0.5,0.3,0.8,0
		c0.2-0.2,0.2-0.5,0.2-0.8c-0.2-1-0.3-2.1-0.5-3.1c0-0.3,0-0.5,0.2-0.7C24.2,13.5,24.9,12.8,25.6,12z M22.3,13.7
		c-0.2,0.2-0.3,0.5-0.2,0.8c0.1,0.9,0.3,1.7,0.4,2.7c-0.7-0.4-1.4-0.8-2.1-1.2c-0.3-0.2-0.6-0.2-0.9,0c-0.7,0.4-1.4,0.8-2.1,1.2
		c0.1-0.8,0.2-1.6,0.4-2.4c0.1-0.5,0-0.9-0.4-1.3c-0.5-0.5-1-1.2-1.5-1.7c0.7-0.1,1.4-0.2,2.2-0.3c0.4,0,0.6-0.2,0.8-0.6
		c0.3-0.8,0.7-1.5,1.1-2.4c0.4,0.8,0.7,1.6,1.1,2.4c0.2,0.4,0.4,0.5,0.8,0.6c0.8,0.1,1.5,0.2,2.2,0.3C23.4,12.5,22.9,13.1,22.3,13.7
		z M25.6,12c0.2-0.2,0.3-0.5,0.2-0.7c-0.1-0.3-0.3-0.4-0.6-0.5c-1-0.2-2-0.3-3-0.5c-0.2,0-0.3-0.1-0.4-0.3c-0.4-1-0.9-2-1.3-3
		c-0.1-0.2-0.2-0.5-0.5-0.5S19.6,6.7,19.5,7c-0.4,1-0.9,2-1.3,3c-0.1,0.2-0.2,0.3-0.4,0.3c-1,0.1-2,0.3-3,0.5
		c-0.3,0-0.5,0.1-0.6,0.4c-0.1,0.3,0,0.5,0.2,0.7c0.7,0.7,1.4,1.5,2.1,2.2c0.2,0.2,0.3,0.4,0.2,0.7c-0.2,1.1-0.4,2.2-0.5,3.3
		c0,0.6,0.4,0.9,0.8,0.6c0.9-0.5,1.8-1,2.6-1.5c0.3-0.2,0.5-0.2,0.8,0c0.8,0.5,1.7,0.9,2.5,1.4c0.3,0.2,0.5,0.3,0.8,0
		c0.2-0.2,0.2-0.5,0.2-0.8c-0.2-1-0.3-2.1-0.5-3.1c0-0.3,0-0.5,0.2-0.7C24.2,13.5,24.9,12.8,25.6,12z M22.3,13.7
		c-0.2,0.2-0.3,0.5-0.2,0.8c0.1,0.9,0.3,1.7,0.4,2.7c-0.7-0.4-1.4-0.8-2.1-1.2c-0.3-0.2-0.6-0.2-0.9,0c-0.7,0.4-1.4,0.8-2.1,1.2
		c0.1-0.8,0.2-1.6,0.4-2.4c0.1-0.5,0-0.9-0.4-1.3c-0.5-0.5-1-1.2-1.5-1.7c0.7-0.1,1.4-0.2,2.2-0.3c0.4,0,0.6-0.2,0.8-0.6
		c0.3-0.8,0.7-1.5,1.1-2.4c0.4,0.8,0.7,1.6,1.1,2.4c0.2,0.4,0.4,0.5,0.8,0.6c0.8,0.1,1.5,0.2,2.2,0.3C23.4,12.5,22.9,13.1,22.3,13.7
		z M25.6,12c0.2-0.2,0.3-0.5,0.2-0.7c-0.1-0.3-0.3-0.4-0.6-0.5c-1-0.2-2-0.3-3-0.5c-0.2,0-0.3-0.1-0.4-0.3c-0.4-1-0.9-2-1.3-3
		c-0.1-0.2-0.2-0.5-0.5-0.5S19.6,6.7,19.5,7c-0.4,1-0.9,2-1.3,3c-0.1,0.2-0.2,0.3-0.4,0.3c-1,0.1-2,0.3-3,0.5
		c-0.3,0-0.5,0.1-0.6,0.4c-0.1,0.3,0,0.5,0.2,0.7c0.7,0.7,1.4,1.5,2.1,2.2c0.2,0.2,0.3,0.4,0.2,0.7c-0.2,1.1-0.4,2.2-0.5,3.3
		c0,0.6,0.4,0.9,0.8,0.6c0.9-0.5,1.8-1,2.6-1.5c0.3-0.2,0.5-0.2,0.8,0c0.8,0.5,1.7,0.9,2.5,1.4c0.3,0.2,0.5,0.3,0.8,0
		c0.2-0.2,0.2-0.5,0.2-0.8c-0.2-1-0.3-2.1-0.5-3.1c0-0.3,0-0.5,0.2-0.7C24.2,13.5,24.9,12.8,25.6,12z M22.3,13.7
		c-0.2,0.2-0.3,0.5-0.2,0.8c0.1,0.9,0.3,1.7,0.4,2.7c-0.7-0.4-1.4-0.8-2.1-1.2c-0.3-0.2-0.6-0.2-0.9,0c-0.7,0.4-1.4,0.8-2.1,1.2
		c0.1-0.8,0.2-1.6,0.4-2.4c0.1-0.5,0-0.9-0.4-1.3c-0.5-0.5-1-1.2-1.5-1.7c0.7-0.1,1.4-0.2,2.2-0.3c0.4,0,0.6-0.2,0.8-0.6
		c0.3-0.8,0.7-1.5,1.1-2.4c0.4,0.8,0.7,1.6,1.1,2.4c0.2,0.4,0.4,0.5,0.8,0.6c0.8,0.1,1.5,0.2,2.2,0.3C23.4,12.5,22.9,13.1,22.3,13.7
		z"/>
	<path class="st1" d="M25.6,12c0.2-0.2,0.3-0.5,0.2-0.7c-0.1-0.3-0.3-0.4-0.6-0.5c-1-0.2-2-0.3-3-0.5c-0.2,0-0.3-0.1-0.4-0.3
		c-0.4-1-0.9-2-1.3-3c-0.1-0.2-0.2-0.5-0.5-0.5S19.6,6.7,19.5,7c-0.4,1-0.9,2-1.3,3c-0.1,0.2-0.2,0.3-0.4,0.3c-1,0.1-2,0.3-3,0.5
		c-0.3,0-0.5,0.1-0.6,0.4c-0.1,0.3,0,0.5,0.2,0.7c0.7,0.7,1.4,1.5,2.1,2.2c0.2,0.2,0.3,0.4,0.2,0.7c-0.2,1.1-0.4,2.2-0.5,3.3
		c0,0.6,0.4,0.9,0.8,0.6c0.9-0.5,1.8-1,2.6-1.5c0.3-0.2,0.5-0.2,0.8,0c0.8,0.5,1.7,0.9,2.5,1.4c0.3,0.2,0.5,0.3,0.8,0
		c0.2-0.2,0.2-0.5,0.2-0.8c-0.2-1-0.3-2.1-0.5-3.1c0-0.3,0-0.5,0.2-0.7C24.2,13.5,24.9,12.8,25.6,12z M22.3,13.7
		c-0.2,0.2-0.3,0.5-0.2,0.8c0.1,0.9,0.3,1.7,0.4,2.7c-0.7-0.4-1.4-0.8-2.1-1.2c-0.3-0.2-0.6-0.2-0.9,0c-0.7,0.4-1.4,0.8-2.1,1.2
		c0.1-0.8,0.2-1.6,0.4-2.4c0.1-0.5,0-0.9-0.4-1.3c-0.5-0.5-1-1.2-1.5-1.7c0.7-0.1,1.4-0.2,2.2-0.3c0.4,0,0.6-0.2,0.8-0.6
		c0.3-0.8,0.7-1.5,1.1-2.4c0.4,0.8,0.7,1.6,1.1,2.4c0.2,0.4,0.4,0.5,0.8,0.6c0.8,0.1,1.5,0.2,2.2,0.3C23.4,12.5,22.9,13.1,22.3,13.7
		z"/>
	<path class="st1" d="M27.6,32.4c0,0.3-0.2,0.6-0.5,0.6c-0.1,0-0.2,0-0.3,0H13c-0.2,0-0.3,0-0.5-0.1c-0.2-0.2-0.3-0.4-0.3-0.6
		c0-0.3,0.2-0.4,0.4-0.5c0.1,0,0.3,0,0.4,0h13.7c0.1,0,0.3,0,0.4,0C27.4,31.8,27.6,32,27.6,32.4z"/>
	<path d="M25.6,12c0.2-0.2,0.3-0.5,0.2-0.7c-0.1-0.3-0.3-0.4-0.6-0.5c-1-0.2-2-0.3-3-0.5c-0.2,0-0.3-0.1-0.4-0.3c-0.4-1-0.9-2-1.3-3
		c-0.1-0.2-0.2-0.5-0.5-0.5S19.6,6.7,19.5,7c-0.4,1-0.9,2-1.3,3c-0.1,0.2-0.2,0.3-0.4,0.3c-1,0.1-2,0.3-3,0.5
		c-0.3,0-0.5,0.1-0.6,0.4c-0.1,0.3,0,0.5,0.2,0.7c0.7,0.7,1.4,1.5,2.1,2.2c0.2,0.2,0.3,0.4,0.2,0.7c-0.2,1.1-0.4,2.2-0.5,3.3
		c0,0.6,0.4,0.9,0.8,0.6c0.9-0.5,1.8-1,2.6-1.5c0.3-0.2,0.5-0.2,0.8,0c0.8,0.5,1.7,0.9,2.5,1.4c0.3,0.2,0.5,0.3,0.8,0
		c0.2-0.2,0.2-0.5,0.2-0.8c-0.2-1-0.3-2.1-0.5-3.1c0-0.3,0-0.5,0.2-0.7C24.2,13.5,24.9,12.8,25.6,12z M22.3,13.7
		c-0.2,0.2-0.3,0.5-0.2,0.8c0.1,0.9,0.3,1.7,0.4,2.7c-0.7-0.4-1.4-0.8-2.1-1.2c-0.3-0.2-0.6-0.2-0.9,0c-0.7,0.4-1.4,0.8-2.1,1.2
		c0.1-0.8,0.2-1.6,0.4-2.4c0.1-0.5,0-0.9-0.4-1.3c-0.5-0.5-1-1.2-1.5-1.7c0.7-0.1,1.4-0.2,2.2-0.3c0.4,0,0.6-0.2,0.8-0.6
		c0.3-0.8,0.7-1.5,1.1-2.4c0.4,0.8,0.7,1.6,1.1,2.4c0.2,0.4,0.4,0.5,0.8,0.6c0.8,0.1,1.5,0.2,2.2,0.3C23.4,12.5,22.9,13.1,22.3,13.7
		z"/>
	<path d="M27.6,32.4c0,0.3-0.2,0.6-0.5,0.6c-0.1,0-0.2,0-0.3,0H13c-0.2,0-0.3,0-0.5-0.1c-0.2-0.2-0.3-0.4-0.3-0.6
		c0-0.3,0.2-0.4,0.4-0.5c0.1,0,0.3,0,0.4,0h13.7c0.1,0,0.3,0,0.4,0C27.4,31.8,27.6,32,27.6,32.4z"/>
</g>
</svg>
